if (_typeface_js && _typeface_js.loadFace) _typeface_js.loadFace({"glyphs":{"0":{"ha":744,"x_min":6,"x_max":733,"o":"m 622 361 q 603 255 622 308 q 551 158 585 201 q 471 89 518 115 q 368 63 424 63 q 263 88 310 63 q 184 156 217 114 q 134 251 151 197 q 117 363 117 306 q 138 478 117 424 q 196 572 158 532 q 284 636 233 613 q 393 660 335 660 q 501 634 457 660 q 572 567 546 608 q 610 471 599 525 q 622 361 622 417 m 621 65 q 657 101 638 74 q 693 163 676 129 q 721 228 710 196 q 732 278 732 261 l 732 344 q 733 357 733 349 q 708 495 733 436 q 639 599 683 554 q 534 679 594 644 q 401 747 474 714 l 392 747 q 238 722 308 747 q 115 650 167 697 q 35 536 64 603 q 6 385 6 469 q 38 223 6 294 q 126 101 71 151 q 256 25 182 51 q 415 -1 331 -1 q 522 17 474 -1 q 621 65 569 35 m 308 318 l 357 282 l 369 282 q 435 311 414 282 q 456 388 456 340 l 449 406 l 439 418 q 431 431 439 425 q 386 444 422 436 q 351 440 367 444 q 325 425 336 436 q 308 392 314 414 q 303 351 303 371 q 308 318 303 331 z "},"1":{"ha":269,"x_min":24,"x_max":249,"o":"m 201 460 l 200 483 l 221 658 l 244 703 q 235 717 244 710 q 221 724 226 724 l 24 724 q 52 697 35 707 q 89 681 69 688 l 89 483 q 88 410 89 453 q 84 322 86 368 q 79 229 82 275 q 74 147 76 183 q 70 88 72 111 q 68 65 68 65 l 24 21 l 46 0 l 249 0 q 243 20 249 10 q 230 39 238 31 q 214 54 222 47 q 200 65 206 61 l 200 397 l 201 460 z "},"2":{"ha":522,"x_min":13,"x_max":500,"o":"m 500 33 l 499 44 q 465 67 479 58 q 438 81 451 75 q 411 88 425 86 q 379 90 397 90 q 346 86 360 90 q 318 76 332 82 q 290 67 304 71 q 256 63 275 63 q 156 85 193 63 q 119 172 119 108 q 120 190 119 181 q 122 210 121 199 q 151 288 129 256 q 203 344 174 319 q 266 388 233 368 q 326 431 299 408 q 371 483 353 454 q 389 553 389 511 q 367 642 389 607 q 308 698 344 678 q 225 726 271 718 q 132 733 179 733 l 13 733 l 15 703 q 18 685 15 697 q 24 659 21 672 q 30 633 26 646 q 36 615 33 621 l 47 613 q 55 614 50 613 q 60 615 60 615 l 147 681 q 153 682 147 681 q 167 683 160 683 q 206 676 186 683 q 243 655 226 668 q 270 623 260 642 q 281 582 281 604 q 261 522 281 547 q 212 476 242 497 q 148 435 182 456 q 84 385 114 414 q 34 318 54 357 q 13 224 14 279 l 13 213 q 24 97 13 139 q 62 32 35 54 q 134 3 89 10 q 247 -3 179 -3 l 407 -3 l 428 -1 q 466 3 447 -1 q 499 21 485 8 q 499 26 499 21 q 500 33 500 31 z "},"3":{"ha":549,"x_min":7,"x_max":531,"o":"m 294 353 q 390 311 361 353 q 418 210 418 269 q 396 147 418 174 q 340 104 374 121 q 264 80 306 88 q 183 72 222 72 q 131 82 154 82 q 92 75 108 82 q 57 57 75 68 l 54 21 q 72 16 57 21 q 100 11 86 11 q 236 19 161 11 q 376 51 311 28 q 486 119 442 75 q 531 236 531 164 q 530 255 531 243 q 528 278 529 267 q 526 299 528 290 q 525 307 525 307 q 508 334 521 317 q 477 369 494 351 q 443 399 460 386 q 417 417 426 413 q 449 447 436 433 q 469 473 461 460 q 479 501 476 486 q 482 536 482 517 q 449 631 482 592 q 367 694 417 669 q 263 728 318 718 q 161 739 207 739 l 124 739 q 59 732 90 739 q 7 693 28 725 l 15 632 q 23 617 15 632 q 57 594 31 601 l 272 658 q 313 647 294 658 q 345 619 332 636 q 366 581 358 601 q 374 539 374 560 q 357 496 374 514 q 314 467 340 478 q 257 450 288 456 q 199 443 226 444 l 183 364 l 294 353 z "},"4":{"ha":708,"x_min":17,"x_max":681,"o":"m 515 658 q 560 683 553 665 q 568 733 568 700 q 455 719 500 733 q 379 681 410 706 q 328 622 349 656 q 287 548 307 588 q 242 464 267 508 q 179 375 217 419 l 92 267 q 71 247 83 254 q 46 233 58 240 q 25 217 33 226 q 17 190 17 208 q 33 190 21 190 q 60 189 44 189 q 88 189 72 189 q 121 192 104 189 l 428 192 l 428 89 q 405 67 421 82 q 383 44 389 51 q 382 38 383 43 q 381 31 381 33 q 382 24 381 28 q 383 21 383 21 l 560 0 l 561 11 q 560 17 561 13 q 560 21 560 21 q 550 29 557 22 q 535 43 543 36 q 522 56 528 50 q 515 65 515 63 q 513 83 515 67 q 506 121 510 100 q 499 163 503 142 q 492 197 494 185 l 492 200 l 588 200 q 596 206 589 203 l 600 207 q 645 223 621 214 q 681 251 669 232 l 660 272 q 645 274 658 272 q 617 275 632 275 q 587 276 603 275 q 564 278 571 278 q 540 277 560 278 q 493 274 521 276 q 497 374 494 315 q 503 489 500 432 q 510 592 507 546 q 515 658 513 639 m 229 307 l 404 571 q 414 583 407 576 q 428 593 421 590 l 428 269 q 367 266 399 268 q 308 262 336 264 q 256 258 279 260 q 215 256 232 257 q 217 276 217 267 q 229 307 217 288 z "},"5":{"ha":522,"x_min":13,"x_max":500,"o":"m 500 697 l 499 686 q 465 663 479 672 q 438 649 451 654 q 411 642 425 644 q 379 640 397 640 q 346 644 360 640 q 318 654 332 649 q 290 664 304 660 q 256 668 275 668 q 218 669 235 668 q 188 669 201 669 q 140 657 154 669 q 125 597 125 644 q 150 592 125 594 q 213 578 175 589 q 296 542 251 567 q 378 474 340 518 q 442 360 417 429 q 467 189 467 290 q 432 98 467 135 q 347 39 397 61 q 238 7 296 17 q 132 -3 179 -3 l 13 -3 l 15 28 q 18 46 15 33 q 24 72 21 58 q 30 97 26 85 q 36 115 33 110 l 47 118 q 55 117 50 118 q 60 115 60 115 l 147 50 q 153 49 147 50 q 167 47 160 47 q 219 56 186 47 q 283 81 251 65 q 336 117 314 97 q 358 160 358 138 q 334 319 358 257 q 272 421 310 382 q 192 478 235 460 q 113 506 150 497 q 51 520 75 515 q 26 535 26 525 l 26 733 l 407 733 l 428 732 q 466 727 447 732 q 499 710 485 722 q 499 705 499 710 q 500 697 500 700 z "},"6":{"ha":701,"x_min":19,"x_max":683,"o":"m 19 379 q 42 234 19 303 q 108 113 64 165 q 215 30 151 61 q 363 -1 279 -1 q 368 -2 365 -1 q 374 -3 371 -3 q 447 11 403 -3 q 536 50 492 25 q 617 109 581 75 q 665 183 653 143 q 678 267 674 232 q 683 328 683 301 q 649 417 683 383 q 569 450 615 450 l 558 450 q 465 447 515 450 q 358 429 414 444 q 243 381 303 414 q 121 288 183 349 q 108 372 108 326 q 124 479 108 429 q 172 567 140 529 q 252 626 204 604 q 363 647 300 647 l 642 631 q 631 681 642 661 q 601 710 619 700 q 558 724 582 721 q 508 728 533 728 l 429 728 q 273 708 347 728 q 142 644 199 688 q 53 536 86 601 q 19 379 19 471 m 364 357 q 383 361 374 360 q 403 363 392 363 l 463 364 q 513 361 488 364 q 560 347 538 358 q 599 316 588 333 q 611 278 611 299 q 585 206 611 243 q 528 136 560 168 q 468 83 497 104 q 433 63 439 63 l 407 63 q 252 98 311 63 q 161 224 193 133 l 364 357 z "},"7":{"ha":693,"x_min":13,"x_max":676,"o":"m 478 631 l 476 628 q 346 440 393 508 q 275 335 299 371 q 244 288 251 299 q 235 276 238 278 l 58 56 q 38 47 54 56 q 17 33 21 39 q 15 31 17 33 q 13 22 13 29 q 26 -3 13 4 q 57 -11 39 -11 l 96 -11 q 126 -11 108 -11 q 162 -9 144 -11 q 191 -3 179 -7 q 203 7 203 0 l 196 63 q 367 297 288 188 q 504 488 446 406 q 596 618 563 569 q 631 671 629 667 l 676 707 l 676 738 l 13 714 q 20 690 13 704 q 40 662 28 676 q 68 633 53 647 q 97 606 83 618 l 107 597 l 107 622 q 108 633 107 626 q 110 644 110 639 q 106 656 110 651 l 326 656 l 499 667 q 489 650 496 661 q 478 631 482 639 z "},"8":{"ha":638,"x_min":21,"x_max":621,"o":"m 392 26 l 401 26 q 444 33 424 26 q 557 84 507 46 q 618 196 607 122 q 620 229 619 207 q 621 263 621 251 l 621 268 q 607 298 618 279 q 581 335 596 317 q 551 370 567 354 q 528 390 536 386 q 585 440 569 418 q 607 500 601 461 q 608 519 608 507 q 578 610 608 571 q 504 677 549 650 q 408 721 460 704 q 314 743 357 738 l 276 747 q 256 749 265 749 q 236 750 246 750 q 207 748 221 750 q 181 739 193 746 q 78 687 122 724 q 24 582 33 650 q 22 549 22 571 q 21 515 21 526 l 21 510 q 35 480 24 499 q 62 442 47 461 q 92 408 76 424 q 117 386 107 392 q 80 362 94 374 q 56 338 65 350 q 42 312 47 326 q 35 278 38 297 q 33 257 33 271 q 60 172 33 208 q 126 108 86 135 q 213 64 165 81 q 304 39 261 47 q 324 33 314 35 q 346 31 335 32 q 392 26 368 26 m 397 343 q 479 300 454 335 q 504 217 504 265 q 503 201 504 210 q 501 185 503 193 q 479 136 500 158 q 479 136 479 136 q 478 138 479 138 l 476 138 q 460 133 471 138 q 435 124 449 129 q 409 115 422 119 q 388 111 396 111 l 222 131 q 221 129 222 129 q 221 129 221 129 q 190 144 206 132 q 161 174 174 157 q 140 212 149 192 q 132 249 132 232 q 140 276 132 265 l 199 354 l 397 343 m 246 435 q 163 479 188 443 q 139 564 139 515 q 139 578 139 571 q 140 593 139 586 q 147 619 142 607 q 161 642 153 631 q 164 640 161 640 q 176 645 168 640 q 194 655 185 650 q 213 665 203 660 q 231 669 222 669 l 417 647 q 451 633 436 644 q 478 606 467 622 q 495 569 489 589 q 501 532 501 550 l 500 518 q 483 483 497 497 q 447 460 468 468 q 399 447 425 451 q 347 443 372 443 l 246 435 z "},"9":{"ha":529,"x_min":14,"x_max":510,"o":"m 464 65 l 464 636 q 473 644 467 639 q 486 657 479 650 q 499 670 493 664 q 508 681 506 676 q 509 685 508 681 q 510 692 510 689 q 499 711 510 704 q 474 722 489 718 q 440 728 458 726 q 406 729 422 729 q 382 728 392 729 q 367 728 372 728 q 247 719 308 728 q 133 688 185 711 q 47 624 81 665 q 14 517 14 583 q 47 415 14 458 q 131 343 81 372 q 241 298 181 314 q 356 278 301 282 l 332 44 q 300 0 300 42 l 490 0 q 488 13 490 6 q 485 21 486 19 q 476 44 483 26 q 464 65 468 61 m 332 658 l 356 360 q 280 365 322 360 q 199 386 238 371 q 133 427 160 401 q 107 493 107 453 q 127 552 107 522 q 178 606 147 582 q 244 644 208 629 q 310 660 279 660 q 322 659 315 660 q 332 658 329 658 z "}," ":{"ha":361,"x_min":0,"x_max":0,"o":""},"!":{"ha":190,"x_min":3,"x_max":175,"o":"m 21 288 q 27 299 22 289 q 38 325 32 310 q 47 360 43 340 q 50 399 50 379 l 50 413 q 42 491 50 451 q 26 569 35 531 q 10 644 18 607 q 3 717 3 682 q 3 722 3 719 q 4 725 4 725 q 14 729 6 726 q 33 735 22 732 q 53 742 43 739 q 68 749 63 746 l 92 749 q 109 745 97 749 q 133 737 121 742 q 156 727 144 732 q 172 721 167 722 l 175 711 q 174 705 175 710 q 172 700 172 700 q 165 680 167 693 q 157 660 164 667 l 151 288 q 157 260 157 274 q 145 231 157 244 q 97 217 133 217 q 78 217 86 217 q 65 218 71 218 l 63 218 l 21 288 m 24 36 q 19 51 21 43 q 18 69 18 58 q 24 110 18 89 q 40 143 29 132 q 67 158 51 154 q 101 163 82 163 q 160 140 149 151 q 172 118 172 129 l 171 106 q 150 29 171 58 q 85 0 129 0 l 72 0 l 24 36 z "},"\"":{"ha":300,"x_min":25,"x_max":267,"o":"m 156 643 l 160 711 l 172 739 q 197 788 183 765 q 238 822 210 811 q 249 807 244 815 q 257 792 253 799 q 267 729 267 764 q 266 706 267 718 q 264 678 265 693 q 220 589 240 619 q 172 539 200 558 l 156 643 m 25 643 l 29 711 l 42 739 q 66 788 53 765 q 107 822 79 811 q 118 807 114 815 q 126 792 122 799 q 136 729 136 764 q 135 706 136 718 q 133 678 135 693 q 90 589 110 619 q 42 539 69 558 l 25 643 z "},"#":{"ha":650,"x_min":13,"x_max":640,"o":"m 93 519 q 77 517 89 519 q 52 510 65 515 q 28 497 39 506 q 18 475 18 488 l 69 458 l 161 458 l 163 417 q 161 403 163 407 l 161 289 l 88 289 q 72 286 83 289 q 47 278 60 283 q 23 265 33 274 q 13 243 13 256 l 64 226 l 158 226 q 155 96 154 142 q 159 29 156 50 q 168 5 163 8 q 179 1 174 1 l 182 1 q 195 1 188 1 q 214 0 203 0 l 236 0 q 264 5 256 0 q 272 29 272 10 q 271 35 272 31 q 269 40 269 40 q 260 58 264 44 q 250 71 257 71 l 250 226 l 271 226 l 289 221 l 383 221 q 379 170 382 197 q 373 120 376 143 q 367 82 369 97 q 363 65 364 67 l 344 15 l 368 -6 q 383 -5 372 -6 q 404 -4 393 -4 l 407 -4 q 420 -5 413 -4 q 439 -6 428 -6 l 461 -6 q 489 -1 481 -6 q 497 24 497 4 q 496 30 497 25 q 494 35 494 35 q 485 52 489 39 q 475 65 482 65 l 475 221 l 504 221 q 508 219 506 219 q 513 221 511 219 q 541 227 522 224 q 578 235 560 231 q 613 247 597 240 q 635 264 629 254 l 614 285 q 599 286 613 285 q 571 288 586 288 l 475 288 l 475 453 l 510 453 q 514 451 511 451 q 518 453 517 451 q 547 459 528 456 q 584 467 565 463 q 619 479 603 472 q 640 496 635 486 l 619 517 q 605 518 618 517 q 576 519 592 519 l 475 519 l 475 658 q 483 680 482 665 q 489 701 483 694 q 490 706 489 701 q 492 713 492 711 l 489 722 q 460 737 478 726 q 429 747 442 747 l 406 747 q 378 735 394 740 q 357 728 361 731 q 356 725 357 728 q 356 719 356 722 q 363 625 356 675 q 378 524 371 575 q 364 525 371 525 q 351 525 358 525 l 250 525 l 250 664 q 233 735 249 717 q 204 753 217 753 l 181 753 q 153 741 169 746 q 132 733 136 736 q 131 731 132 733 q 131 725 131 728 q 139 626 131 678 q 154 521 147 574 l 93 519 m 294 453 l 386 453 l 388 411 q 386 397 388 401 l 386 290 q 369 292 381 290 q 346 293 357 293 l 250 293 l 250 458 l 276 458 l 294 453 z "},"$":{"ha":522,"x_min":14,"x_max":501,"o":"m 15 44 l 14 33 q 15 26 14 31 q 15 21 15 21 q 57 1 32 6 q 107 -3 82 -3 q 142 -2 126 -3 q 171 -1 157 -1 q 225 0 197 -1 q 281 7 253 1 l 281 -189 l 292 -208 q 301 -208 294 -208 q 315 -207 308 -207 l 317 -207 q 324 -208 319 -207 q 336 -208 329 -208 l 351 -208 q 369 -204 364 -208 q 374 -181 374 -200 q 373 -174 374 -179 q 372 -169 372 -169 q 369 -145 371 -168 q 364 -91 367 -122 q 358 -27 361 -60 q 354 25 356 6 q 459 94 417 49 q 501 224 501 140 q 488 303 501 269 q 453 362 475 336 q 405 408 432 388 q 351 444 378 428 l 351 683 l 367 681 l 454 615 q 459 614 454 615 q 467 613 464 613 l 478 615 q 484 633 481 621 q 491 658 488 644 q 497 685 494 672 q 499 703 499 697 l 501 733 l 382 733 q 365 733 374 733 q 351 732 358 733 l 351 890 q 353 911 353 894 q 353 924 353 918 q 356 932 353 929 q 357 937 356 932 q 358 943 358 942 l 356 953 q 338 966 349 956 q 318 976 326 976 l 303 976 q 285 965 296 969 q 272 957 275 960 l 272 724 q 168 669 211 708 q 125 553 125 631 q 140 492 125 518 q 177 447 154 467 q 228 409 200 426 q 283 374 256 392 l 283 194 q 283 123 283 161 q 282 64 282 85 q 269 63 275 63 q 258 63 265 63 q 224 67 239 63 q 196 76 210 71 q 167 86 182 82 q 135 90 153 90 q 101 88 115 90 q 75 81 88 86 q 48 67 63 75 q 15 44 33 58 m 351 317 q 381 270 369 296 q 392 210 392 244 q 382 142 392 172 q 351 93 372 113 l 351 317 m 278 661 l 278 492 q 246 532 258 511 q 233 582 233 553 q 246 627 233 607 q 278 661 258 647 z "},"%":{"ha":754,"x_min":13,"x_max":736,"o":"m 121 89 q 317 344 242 236 q 437 523 393 453 q 497 626 481 593 q 515 658 513 660 l 492 703 q 501 717 492 710 q 515 724 510 724 l 713 724 q 684 697 701 707 q 647 681 667 688 l 229 89 q 252 67 236 82 q 274 44 268 51 q 275 40 274 44 q 276 33 276 35 q 266 13 276 21 q 240 1 256 6 q 207 -4 225 -3 q 174 -6 189 -6 q 155 -5 163 -6 q 142 -4 147 -4 l 139 -4 q 124 -3 133 -4 q 104 -2 114 -3 q 86 -1 94 -1 q 76 0 78 0 l 53 21 l 121 89 m 318 400 l 319 400 q 269 376 293 385 q 215 367 244 367 q 136 380 174 367 q 72 418 99 393 q 28 479 44 443 q 13 560 13 515 q 67 693 13 644 q 206 742 122 742 l 211 742 q 278 708 247 725 q 330 668 308 690 q 364 616 351 646 q 376 546 376 586 q 375 538 376 539 l 375 508 q 369 483 375 500 q 355 450 364 467 q 336 419 346 433 q 318 400 326 404 m 310 549 q 304 599 310 574 q 286 643 299 624 q 254 674 274 663 q 206 686 235 686 q 156 675 179 686 q 116 645 133 664 q 89 601 99 626 q 79 549 79 576 q 87 498 79 522 q 109 454 94 474 q 144 423 124 435 q 193 411 165 411 q 240 424 218 411 q 277 456 261 436 q 301 499 293 475 q 310 549 310 524 m 678 14 l 679 14 q 628 -10 653 -1 q 575 -19 604 -19 q 496 -6 533 -19 q 431 32 458 7 q 388 93 404 57 q 372 174 372 129 q 427 307 372 258 q 565 356 482 356 l 571 356 q 638 322 607 339 q 690 282 668 304 q 724 230 711 260 q 736 160 736 200 q 735 151 736 153 l 735 122 q 729 97 735 114 q 715 64 724 81 q 696 33 706 47 q 678 14 686 18 m 669 163 q 664 213 669 188 q 646 257 658 238 q 614 288 633 276 q 565 300 594 300 q 516 289 539 300 q 476 259 493 278 q 449 215 458 240 q 439 163 439 190 q 447 112 439 136 q 469 68 454 88 q 504 37 483 49 q 553 25 525 25 q 599 38 578 25 q 637 69 621 50 q 661 113 653 89 q 669 163 669 138 z "},"&":{"ha":643,"x_min":15,"x_max":643,"o":"m 228 435 q 182 450 199 439 q 157 478 165 461 q 147 516 149 494 q 144 563 144 538 q 144 576 144 569 q 146 592 144 585 q 153 617 147 606 q 167 640 158 629 q 169 639 167 639 q 188 654 178 639 q 213 669 197 669 l 399 647 q 464 656 444 650 q 483 671 483 663 q 465 691 483 681 q 419 712 447 701 q 358 731 392 722 q 296 743 325 739 l 258 747 q 238 749 247 749 q 218 750 228 750 q 189 748 203 750 q 163 739 175 746 q 72 686 104 724 q 29 581 39 649 q 27 547 28 569 q 26 514 26 525 l 26 508 q 37 478 29 497 q 55 441 44 460 q 77 407 65 422 q 99 386 89 392 q 62 362 76 374 q 38 338 47 350 q 24 312 29 326 q 17 278 19 297 q 15 257 15 271 q 42 172 15 208 q 108 108 68 135 q 195 64 147 81 q 286 39 243 47 q 306 33 296 35 q 328 31 317 32 q 374 26 350 26 l 383 26 q 426 33 406 26 q 539 84 489 46 q 600 196 589 122 q 603 219 601 204 q 606 247 606 235 q 603 263 606 254 l 589 290 q 574 310 586 299 q 544 333 561 321 q 510 356 528 344 q 483 378 493 368 q 519 384 494 381 q 569 392 543 388 q 616 405 594 397 q 643 422 638 413 l 622 443 q 608 444 621 443 q 579 446 594 446 l 418 446 q 385 443 401 443 q 356 443 369 443 l 329 443 l 228 435 m 379 343 q 412 326 393 338 q 447 299 431 315 q 475 261 464 282 q 486 217 486 240 q 485 201 486 210 q 483 185 485 193 q 461 136 482 158 q 461 136 461 136 q 460 138 461 138 l 458 138 q 442 133 453 138 q 417 124 431 129 q 391 115 404 119 q 369 111 378 111 l 204 131 q 203 129 204 129 q 203 129 203 129 q 172 144 188 132 q 143 174 156 157 q 122 212 131 192 q 114 249 114 232 q 122 276 114 265 l 181 354 l 379 343 z "},"'":{"ha":172,"x_min":28,"x_max":139,"o":"m 28 643 l 32 711 l 44 739 q 69 788 56 765 q 110 822 82 811 q 121 807 117 815 q 129 792 125 799 q 139 729 139 764 q 138 706 139 718 q 136 678 138 693 q 92 589 113 619 q 44 539 72 558 l 28 643 z "},"(":{"ha":424,"x_min":18,"x_max":413,"o":"m 18 344 q 46 508 18 433 q 124 638 74 582 q 242 727 174 693 q 392 772 311 761 l 394 772 q 409 763 406 772 q 413 743 413 754 q 406 717 413 729 q 374 701 399 704 q 269 659 317 694 q 185 573 221 624 q 128 463 149 522 q 108 349 108 403 l 108 329 q 138 202 114 267 q 198 84 161 138 q 284 -3 235 31 q 390 -36 333 -36 q 406 -42 400 -36 q 413 -57 413 -49 q 405 -72 413 -64 q 361 -79 397 -79 l 343 -79 q 200 -44 261 -79 q 99 51 139 -8 q 38 186 58 110 q 18 344 18 263 z "},")":{"ha":433,"x_min":13,"x_max":415,"o":"m 415 347 q 395 506 415 429 q 335 641 375 582 q 233 735 294 700 q 90 771 172 771 l 72 771 q 22 768 29 771 q 14 758 14 765 l 13 750 q 18 740 13 744 q 43 728 24 735 q 150 694 101 728 q 235 608 199 661 q 295 490 272 554 q 325 363 318 425 l 325 343 q 305 229 325 289 q 249 119 285 169 q 164 32 213 68 q 60 -10 115 -4 q 35 -24 42 -12 q 28 -44 28 -35 l 28 -58 q 35 -72 28 -64 q 42 -81 42 -81 q 191 -47 122 -81 q 310 44 260 -14 q 388 179 360 101 q 415 347 415 257 z "},"*":{"ha":275,"x_min":14,"x_max":253,"o":"m 107 921 l 106 899 q 99 906 99 903 q 86 915 96 908 q 63 928 76 922 q 37 935 50 933 q 14 926 24 936 l 39 879 l 86 829 l 64 810 q 63 806 63 808 q 60 801 63 804 q 38 757 50 782 q 33 710 26 732 l 63 710 q 74 718 64 710 q 96 738 85 726 q 99 741 97 740 q 103 744 100 742 q 119 698 110 724 q 149 661 129 672 l 169 682 q 171 697 169 683 q 172 725 172 710 l 172 746 q 213 728 192 736 q 253 726 233 721 l 253 756 q 244 767 253 757 q 225 789 236 778 q 204 810 214 799 q 189 828 194 822 l 185 831 q 203 852 196 843 q 213 864 210 861 q 222 876 215 867 q 235 899 229 886 q 242 926 240 913 q 233 949 243 939 l 186 924 l 167 906 q 163 925 165 914 q 155 947 160 936 q 142 965 150 957 q 124 972 135 972 l 107 921 z "},"+":{"ha":439,"x_min":22,"x_max":419,"o":"m 196 489 l 193 418 q 164 417 181 418 q 133 414 147 415 q 108 412 118 413 q 97 411 97 411 q 81 409 93 411 q 56 402 69 407 q 33 388 43 397 q 22 367 22 379 l 74 350 l 190 349 l 189 322 q 192 314 189 319 q 208 267 197 294 q 238 229 218 239 l 258 250 q 260 265 258 251 q 261 293 261 278 q 263 323 261 307 q 264 346 264 339 l 264 347 l 289 347 q 297 350 292 347 q 326 356 307 353 q 363 365 344 360 q 398 376 382 369 q 419 393 414 383 l 399 414 q 384 415 397 414 q 356 417 371 417 q 335 417 349 417 q 306 419 321 418 q 280 422 292 421 q 265 422 268 422 l 260 422 q 258 450 258 438 q 257 465 257 463 q 255 481 257 469 q 248 506 253 493 q 234 530 243 519 q 213 540 225 540 l 196 489 z "},",":{"ha":190,"x_min":4,"x_max":178,"o":"m 29 29 l 58 92 l 67 100 q 113 144 89 124 q 172 165 136 165 q 178 129 178 149 q 168 78 178 104 q 142 21 158 53 q 68 -45 99 -25 q 4 -72 38 -65 l 29 29 z "},"-":{"ha":363,"x_min":32,"x_max":343,"o":"m 83 354 l 32 371 q 42 392 32 383 q 66 406 53 401 q 91 413 79 411 q 107 415 103 415 q 128 417 110 415 q 168 418 147 418 q 202 420 193 418 q 226 422 211 422 q 249 421 233 422 q 279 419 265 419 q 308 418 294 419 q 322 417 321 417 l 343 396 q 328 378 338 386 q 306 365 318 371 q 281 356 293 360 q 258 350 268 353 q 250 347 253 347 l 83 354 z "},".":{"ha":196,"x_min":18,"x_max":172,"o":"m 24 36 q 19 51 21 43 q 18 69 18 58 q 24 110 18 89 q 40 143 29 132 q 67 158 51 154 q 101 163 82 163 q 160 140 149 151 q 172 118 172 129 l 171 106 q 150 29 171 58 q 85 0 129 0 l 72 0 l 24 36 z "},"/":{"ha":676,"x_min":0,"x_max":660,"o":"m 0 21 l 68 89 q 265 344 189 236 q 384 523 340 453 q 444 626 428 593 q 463 658 461 660 l 439 703 q 448 717 439 710 q 463 724 457 724 l 660 724 q 631 697 649 707 q 594 681 614 688 l 176 89 q 199 67 183 82 q 221 44 215 51 q 222 40 221 44 q 224 33 224 35 q 213 13 224 21 q 188 1 203 6 q 154 -4 172 -3 q 121 -6 136 -6 q 102 -5 110 -6 q 89 -4 94 -4 l 86 -4 q 71 -3 81 -4 q 51 -2 61 -3 q 33 -1 42 -1 q 24 0 25 0 l 0 21 z "},":":{"ha":196,"x_min":18,"x_max":174,"o":"m 24 36 q 19 51 21 43 q 18 69 18 58 q 24 110 18 89 q 40 143 29 132 q 67 158 51 154 q 101 163 82 163 q 160 140 149 151 q 172 118 172 129 l 171 106 q 150 29 171 58 q 85 0 129 0 l 72 0 l 24 36 m 25 433 q 21 448 22 440 q 19 467 19 456 q 25 508 19 486 q 42 540 31 529 q 68 556 53 551 q 103 560 83 560 q 162 538 150 549 q 174 515 174 526 l 172 503 q 151 426 172 456 q 86 397 131 397 l 74 397 l 25 433 z "},";":{"ha":196,"x_min":4,"x_max":178,"o":"m 43 440 q 40 454 42 447 q 38 472 38 461 q 42 510 38 490 q 57 540 47 531 q 81 556 67 551 q 111 560 94 560 q 163 538 151 549 q 174 518 174 528 l 172 506 q 154 434 172 461 q 97 407 136 407 l 86 407 l 43 440 m 29 29 l 58 92 l 72 128 q 113 159 94 151 q 167 167 131 167 q 176 154 175 167 q 178 132 178 142 l 178 129 q 168 78 178 104 q 142 21 158 53 q 68 -45 99 -25 q 4 -72 38 -65 l 29 29 z "},"<":{"ha":461,"x_min":24,"x_max":439,"o":"m 265 65 q 258 82 265 68 q 244 106 251 96 q 243 107 244 107 q 243 108 243 107 l 24 417 l 300 739 l 397 703 q 328 660 369 690 q 247 592 286 629 q 181 516 208 554 q 154 449 154 478 l 154 440 q 165 417 157 433 q 178 396 172 400 q 240 304 203 360 q 311 196 276 249 q 371 105 346 143 q 397 65 396 67 l 439 15 l 351 -4 l 265 65 z "},"=":{"ha":439,"x_min":17,"x_max":419,"o":"m 92 331 q 76 328 88 331 q 51 322 64 326 q 27 308 38 317 q 17 286 17 299 l 68 269 l 283 269 q 288 268 285 268 q 292 269 290 268 q 320 276 301 272 q 358 284 339 279 q 392 296 376 289 q 414 313 408 303 l 393 333 q 378 335 392 333 q 350 336 365 336 l 92 331 m 97 490 q 81 488 93 490 q 56 481 69 486 q 33 467 43 476 q 22 446 22 458 l 74 429 l 289 429 q 293 428 290 428 q 297 429 296 428 q 326 435 307 432 q 363 444 344 439 q 398 456 382 449 q 419 472 414 463 l 399 493 q 384 494 397 493 q 356 496 371 496 l 97 490 z "},">":{"ha":461,"x_min":22,"x_max":438,"o":"m 196 668 q 203 651 196 665 q 217 628 210 638 q 217 626 217 626 q 218 625 218 626 l 438 317 l 161 -6 l 64 31 q 133 74 92 43 q 213 142 175 104 q 279 217 251 179 q 307 285 307 256 l 307 293 q 297 317 304 300 q 283 338 289 333 q 222 429 258 374 q 150 538 185 485 q 90 628 115 590 q 64 668 65 667 l 22 718 l 110 738 l 196 668 z "},"?":{"ha":474,"x_min":19,"x_max":454,"o":"m 19 654 l 211 672 q 310 649 274 672 q 347 563 347 626 q 347 545 347 554 q 344 525 346 536 q 331 490 342 497 q 304 482 319 482 l 267 483 q 246 482 253 483 l 135 461 q 84 431 101 449 q 58 394 67 413 q 49 359 50 375 q 47 335 47 343 l 47 328 q 49 299 47 319 q 56 258 51 279 q 67 222 60 238 q 88 206 75 206 l 143 206 q 150 215 147 206 q 154 237 153 224 q 156 264 156 250 q 156 290 156 279 l 151 349 q 174 378 151 371 q 230 386 196 385 q 303 388 264 388 q 376 400 342 389 q 432 436 410 411 q 454 511 454 461 l 454 522 q 443 638 454 594 q 405 703 432 681 q 333 731 378 725 q 219 738 288 738 l 60 738 l 32 719 l 19 654 m 57 32 q 53 46 54 39 q 51 63 51 53 q 56 100 51 81 q 72 129 61 119 q 96 143 82 140 q 126 146 110 146 q 180 126 169 136 q 190 107 190 117 l 189 96 q 170 26 189 53 q 111 0 151 0 l 100 0 l 57 32 z "},"@":{"ha":801,"x_min":17,"x_max":781,"o":"m 781 507 q 756 655 781 596 q 685 748 731 714 q 574 796 639 782 q 428 810 508 810 q 397 803 428 810 q 324 776 365 797 q 203 713 257 757 q 109 611 149 669 q 46 484 69 553 q 18 344 22 415 l 18 292 q 17 279 17 288 q 40 142 17 207 q 106 28 63 78 q 209 -50 149 -21 q 343 -79 269 -79 l 361 -79 q 405 -72 397 -79 q 413 -57 413 -64 q 406 -42 413 -49 q 390 -36 400 -36 q 285 -3 333 -36 q 199 84 236 31 q 138 202 161 138 q 108 329 114 267 l 108 349 q 104 382 104 365 q 139 503 104 440 q 226 619 174 567 q 338 705 278 671 q 446 739 397 739 q 628 665 558 728 q 697 493 697 601 l 697 474 q 684 370 690 415 q 663 292 678 325 q 620 240 647 260 q 546 215 593 221 q 563 238 554 224 q 578 266 571 251 q 589 294 585 281 q 593 315 593 308 l 593 344 q 594 353 594 346 q 582 423 594 393 q 548 475 569 453 q 496 515 526 497 q 429 549 465 532 l 424 549 q 285 500 340 549 q 231 367 231 451 q 247 286 231 322 q 290 225 263 250 q 354 187 317 200 q 433 174 392 174 q 465 173 457 174 q 479 172 474 172 q 498 172 486 172 q 542 171 510 171 l 560 171 q 728 257 676 171 q 781 507 781 343 m 528 356 q 519 306 528 331 q 495 263 511 282 q 458 231 479 243 q 411 218 436 218 q 363 230 383 218 q 327 261 342 242 q 305 305 313 281 q 297 356 297 329 q 307 408 297 383 q 334 452 317 433 q 374 482 351 471 q 424 493 397 493 q 472 481 453 493 q 504 450 492 469 q 522 406 517 431 q 528 356 528 381 z "},"A":{"ha":999,"x_min":6,"x_max":983,"o":"m 690 13 l 717 -15 q 727 -16 718 -15 q 749 -17 736 -17 q 773 -17 761 -17 q 793 -18 785 -18 l 800 -18 q 817 -19 806 -18 q 842 -19 828 -19 q 888 -17 863 -19 q 934 -10 913 -15 q 969 3 956 -6 q 983 26 983 13 q 968 42 983 26 q 933 77 953 57 q 897 116 914 97 q 876 143 879 135 q 824 268 854 196 q 762 418 794 340 q 697 572 729 496 q 640 708 665 647 q 599 806 615 768 q 583 843 583 843 l 543 904 q 458 873 494 901 q 395 800 422 844 q 349 702 368 756 q 315 596 329 649 q 289 497 300 543 q 267 422 278 451 q 242 360 260 403 q 205 269 225 317 q 166 180 185 222 q 139 119 147 138 q 111 91 131 104 q 70 67 92 78 q 30 48 49 56 q 6 38 11 40 l 6 1 l 268 13 q 280 15 272 13 q 296 22 288 18 q 312 31 304 26 q 322 38 319 35 q 295 60 310 53 q 268 76 281 68 q 247 94 256 83 q 239 128 239 106 q 245 184 239 153 q 263 244 251 215 q 288 293 274 272 q 321 317 303 314 l 638 342 q 672 314 653 342 q 707 248 690 286 q 735 169 724 210 q 746 106 746 129 q 738 51 746 74 q 690 13 729 29 m 478 739 q 524 668 500 706 q 569 590 549 631 q 603 506 590 549 q 617 422 617 464 l 369 422 q 403 584 369 501 q 478 739 436 667 z "},"B":{"ha":664,"x_min":14,"x_max":642,"o":"m 14 42 l 42 15 q 53 15 43 15 q 77 15 64 15 q 103 14 90 14 q 125 14 117 14 q 231 18 174 14 q 347 33 289 22 q 458 62 404 43 q 552 110 511 81 q 617 183 593 140 q 642 283 642 225 q 641 306 642 292 q 639 334 640 321 q 637 358 638 347 q 635 368 636 368 q 615 401 631 381 q 578 442 599 422 q 538 479 558 463 q 506 500 518 496 q 543 535 528 519 q 567 567 558 551 q 580 601 576 583 q 583 643 583 619 q 544 758 583 711 q 446 833 504 804 q 321 874 388 861 q 199 886 254 886 l 154 886 q 76 878 114 886 q 14 832 39 869 l 65 806 q 67 782 65 806 q 72 719 69 758 q 78 633 75 681 q 84 535 81 585 q 90 439 88 485 q 93 360 92 393 l 93 247 q 92 191 93 219 q 83 135 90 163 q 60 84 76 108 q 14 42 43 60 m 225 436 l 358 424 q 427 410 399 424 q 473 374 456 397 q 499 319 490 350 q 507 251 507 288 q 481 176 507 207 q 413 125 454 144 q 322 96 372 106 q 225 86 272 86 l 225 436 m 225 806 l 332 790 q 381 777 358 790 q 420 743 404 764 q 445 697 436 722 q 454 647 454 671 q 431 593 454 615 q 374 557 408 571 q 299 538 339 543 q 225 532 258 532 l 225 806 z "},"C":{"ha":800,"x_min":22,"x_max":790,"o":"m 22 414 q 59 614 22 528 q 161 758 96 700 q 317 844 226 815 q 515 874 407 874 l 633 874 q 658 848 653 868 q 664 808 664 828 q 663 789 664 797 q 661 776 661 781 q 663 766 661 774 q 664 747 664 758 q 658 707 664 726 q 633 685 653 688 q 584 742 606 722 q 542 772 563 763 q 496 783 521 782 q 438 785 471 785 q 313 752 368 785 q 219 667 258 719 q 160 549 181 614 q 139 418 139 483 l 139 394 q 180 253 147 315 q 264 149 213 192 q 383 85 315 107 q 528 63 450 63 q 585 69 558 63 q 636 85 611 75 q 686 108 661 96 q 739 131 711 119 q 744 133 739 131 q 750 135 749 135 q 758 133 753 135 q 764 131 764 131 q 780 120 771 128 q 790 107 789 113 q 722 44 761 67 q 638 12 682 22 q 547 0 594 1 q 456 -1 500 -1 l 433 -1 q 127 106 232 -1 q 22 414 22 213 z "},"D":{"ha":781,"x_min":15,"x_max":754,"o":"m 15 25 q 18 37 15 29 q 25 53 21 44 q 34 68 29 61 q 43 78 39 75 l 43 817 q 34 826 39 819 q 25 842 29 833 q 18 857 21 850 q 15 868 15 864 q 26 886 15 875 q 43 897 36 897 l 465 897 q 592 854 538 897 q 683 748 647 811 q 736 614 718 685 q 754 489 754 543 q 701 269 754 361 q 562 117 647 176 q 367 28 476 57 q 149 -1 258 -1 l 43 -1 q 26 10 36 0 q 15 25 15 19 m 201 107 q 222 99 207 103 q 253 90 236 94 q 285 83 269 86 q 307 78 300 79 l 318 78 q 446 114 389 78 q 542 206 503 150 q 603 331 582 263 q 624 461 624 399 q 601 605 624 539 q 535 719 578 671 q 430 793 492 767 q 289 819 368 819 q 276 821 285 819 q 258 822 268 822 l 254 822 q 215 819 235 822 q 192 797 194 817 q 187 747 189 781 q 183 672 185 714 q 179 583 181 629 q 176 494 178 536 q 174 418 175 451 q 174 368 174 385 q 176 316 174 353 q 183 238 179 279 q 192 159 188 196 q 201 107 197 122 z "},"E":{"ha":653,"x_min":8,"x_max":647,"o":"m 8 25 q 65 22 26 24 q 154 17 104 19 q 259 10 204 14 q 364 5 314 7 q 453 1 414 3 q 511 0 493 0 l 526 0 q 570 24 549 0 q 609 79 592 47 q 637 144 626 111 q 647 199 647 178 q 601 190 624 199 q 556 169 578 182 q 516 139 535 156 q 483 107 497 122 l 160 108 l 160 424 l 378 422 l 378 368 l 406 368 q 419 386 406 368 q 451 429 433 404 q 485 481 468 454 q 511 528 503 508 q 513 540 511 531 q 514 551 514 549 q 513 568 514 558 q 511 581 511 578 l 431 528 l 167 528 l 167 790 l 458 790 l 431 739 q 442 734 433 736 q 458 732 451 732 q 503 749 483 732 q 540 792 524 767 q 568 847 556 818 q 589 897 581 875 l 564 897 q 499 895 543 897 q 401 890 456 893 q 285 885 346 888 q 170 878 225 882 q 72 872 115 875 q 8 868 29 869 l 8 843 q 20 817 11 836 q 36 790 29 797 l 36 78 l 8 25 z "},"F":{"ha":607,"x_min":15,"x_max":601,"o":"m 43 25 q 88 57 79 36 q 97 106 97 78 l 97 211 q 95 313 97 253 q 90 437 93 372 q 85 565 88 501 q 78 678 82 628 q 72 759 75 728 q 68 790 69 790 l 15 843 l 43 868 l 601 899 q 588 847 601 872 q 556 797 575 821 q 515 753 536 774 q 475 719 493 733 l 465 711 l 465 739 q 476 765 467 746 q 490 790 485 785 l 226 790 l 226 528 l 413 528 q 447 570 428 551 q 499 589 467 589 q 482 478 499 524 q 413 394 465 432 q 391 408 397 403 q 385 419 385 413 q 388 429 385 424 q 392 447 392 435 l 226 447 l 226 78 q 239 60 226 69 q 267 43 251 51 q 294 30 282 35 q 307 25 307 25 q 236 2 271 6 q 163 -1 201 -1 l 147 -1 q 130 -2 142 -1 q 104 -3 118 -3 q 65 1 83 -3 q 43 25 46 6 z "},"G":{"ha":935,"x_min":24,"x_max":922,"o":"m 24 456 q 50 281 24 364 q 128 135 76 199 q 258 35 181 72 q 435 -1 335 -1 q 497 3 458 -1 q 582 17 536 8 q 674 39 628 26 q 759 67 721 51 q 821 103 797 83 q 844 144 844 122 q 844 153 844 147 q 843 158 843 158 q 833 174 842 165 q 817 183 824 182 l 817 422 q 842 428 826 425 q 872 438 857 432 q 901 453 888 444 q 922 475 915 463 l 897 500 q 878 501 894 500 q 844 503 863 503 q 809 505 829 503 q 782 507 789 507 q 736 505 764 507 q 678 503 708 503 q 631 501 653 503 q 606 500 608 500 q 586 498 601 500 q 556 490 571 496 q 528 473 540 483 q 515 447 515 463 l 658 447 l 658 131 q 644 103 658 114 q 610 85 631 92 q 565 77 589 79 q 519 75 540 75 l 489 75 q 353 106 418 75 q 240 187 289 136 q 162 305 190 238 q 133 446 133 372 q 154 578 133 514 q 215 693 175 643 q 313 773 254 743 q 446 803 371 803 q 532 796 493 803 q 608 780 571 789 q 684 764 646 771 q 769 757 722 757 q 756 817 769 794 q 721 853 743 840 q 669 869 699 865 q 610 874 640 874 l 515 874 q 327 849 417 874 q 170 774 238 825 q 63 644 103 722 q 24 456 24 565 z "},"H":{"ha":807,"x_min":0,"x_max":792,"o":"m 0 25 l 82 107 l 82 764 l 28 843 q 70 867 42 857 q 131 884 99 878 q 192 894 163 890 q 239 897 222 897 q 251 886 240 897 q 265 868 263 875 q 267 863 265 868 q 268 857 268 858 q 267 849 268 856 q 265 843 265 843 q 255 831 263 839 q 239 816 247 824 q 223 801 231 808 q 211 790 215 794 l 211 551 l 578 551 q 579 567 578 556 q 581 581 581 578 q 574 633 578 599 q 565 701 569 667 q 558 761 561 735 q 556 790 556 788 l 526 843 q 538 859 526 850 q 556 868 549 868 l 792 868 q 758 836 779 849 q 714 817 736 824 l 714 581 q 715 493 714 544 q 719 385 717 442 q 725 274 722 329 q 731 176 728 219 q 735 105 733 132 q 739 78 738 78 l 792 25 l 765 0 l 522 0 q 529 24 522 13 q 545 47 536 36 q 564 65 554 57 q 581 78 574 74 l 581 476 l 211 447 l 211 107 q 223 96 215 103 q 239 81 231 89 q 255 65 247 72 q 265 53 263 57 q 267 47 265 53 q 268 40 268 42 q 256 16 268 25 q 225 1 243 7 q 185 -6 207 -4 q 144 -7 163 -7 q 122 -6 131 -7 q 107 -6 114 -6 l 103 -6 q 84 -5 96 -6 q 61 -3 72 -4 q 40 -1 50 -1 q 28 0 31 0 l 0 25 z "},"I":{"ha":307,"x_min":15,"x_max":283,"o":"m 15 25 l 68 78 q 76 109 71 81 q 85 176 81 138 q 94 253 90 214 q 97 317 97 293 l 97 476 q 99 485 99 481 q 99 493 99 490 q 90 587 99 539 q 70 681 81 635 q 51 772 60 728 q 42 858 42 817 q 42 865 42 861 q 43 868 43 868 q 56 873 46 869 q 78 881 65 876 q 102 889 90 885 q 121 897 114 893 l 149 897 q 175 894 156 897 q 215 885 194 890 q 255 876 236 881 q 281 868 274 871 l 283 857 q 282 849 283 856 q 281 843 281 843 q 270 831 278 839 q 254 816 263 824 q 238 801 246 808 q 226 790 231 794 l 226 78 q 238 75 231 78 q 254 68 246 72 q 270 60 263 64 q 281 53 278 56 q 282 47 281 53 q 283 40 283 42 q 271 16 283 25 q 240 1 258 7 q 200 -6 222 -4 q 160 -7 178 -7 q 138 -6 146 -7 q 122 -6 129 -6 l 118 -6 q 99 -5 111 -6 q 76 -3 88 -4 q 56 -1 65 -1 q 43 0 46 0 l 15 25 z "},"J":{"ha":351,"x_min":-336,"x_max":332,"o":"m -278 -71 q -321 -111 -306 -93 q -336 -164 -336 -129 q -249 -162 -294 -164 q -158 -153 -203 -160 q -69 -134 -112 -147 q 14 -97 -25 -121 q 65 -57 32 -86 q 137 3 97 -28 q 219 60 176 35 q 303 88 263 85 l 303 826 q 328 852 324 838 q 332 888 332 867 l 326 888 q 305 889 318 888 q 276 890 292 890 q 226 889 253 890 q 173 883 199 888 q 125 872 147 879 q 90 851 103 864 l 144 746 l 144 142 q 106 43 144 83 q 10 -24 67 3 q -111 -62 -47 -50 q -226 -74 -175 -74 q -254 -73 -242 -74 q -278 -71 -267 -72 z "},"K":{"ha":828,"x_min":17,"x_max":817,"o":"m 18 25 l 71 78 l 71 817 q 60 819 67 817 q 44 826 53 822 q 28 835 36 831 q 18 843 21 840 q 17 849 18 843 q 17 857 17 856 q 17 863 17 858 q 18 868 18 868 q 31 873 21 869 q 54 881 42 876 q 79 889 67 885 q 100 897 92 893 l 124 897 q 154 894 131 897 q 204 885 178 890 q 253 876 231 881 q 283 868 276 871 l 229 817 l 229 500 q 256 512 235 503 q 283 528 276 521 q 327 565 296 536 q 392 628 358 594 q 454 694 425 663 q 493 739 483 725 q 501 800 494 771 q 524 851 508 829 q 563 885 539 872 q 624 899 588 899 l 642 899 q 681 893 661 899 q 704 868 701 888 q 688 849 699 864 q 665 818 678 835 q 642 786 653 801 q 626 764 632 771 l 335 475 q 403 340 353 411 q 520 210 453 269 q 665 113 588 151 q 817 74 743 74 q 803 38 817 53 q 769 15 789 24 q 728 3 750 7 q 692 -1 707 -1 q 545 40 608 -1 q 429 138 482 81 q 328 259 376 196 q 229 368 281 322 l 229 78 q 241 75 233 78 q 257 68 249 72 q 273 60 265 64 q 283 53 281 56 q 285 49 283 53 q 286 40 286 46 q 285 31 286 38 q 283 25 283 25 q 269 10 281 19 q 257 0 258 0 l 46 0 l 18 25 z "},"L":{"ha":614,"x_min":11,"x_max":601,"o":"m 11 25 q 32 70 19 49 q 64 107 44 92 l 64 790 l 11 843 l 39 868 l 238 899 l 292 899 q 281 866 292 882 q 255 835 271 850 q 221 809 239 821 q 186 789 203 797 l 186 129 q 204 116 186 121 q 247 108 222 111 q 297 104 271 106 q 338 103 322 103 l 368 103 q 438 121 410 103 q 491 161 467 139 q 540 201 515 183 q 601 219 565 219 q 592 162 601 199 q 567 89 583 125 q 527 26 550 53 q 476 0 504 0 l 461 0 q 408 1 443 0 q 328 5 372 3 q 235 10 283 7 q 142 17 186 14 q 63 22 97 19 q 11 25 28 24 z "},"M":{"ha":1135,"x_min":8,"x_max":1119,"o":"m 8 25 q 31 1 13 6 q 72 -3 50 -3 q 97 -2 86 -3 q 111 -1 108 -1 l 131 -1 q 203 2 171 -1 q 274 25 236 6 q 238 60 260 49 q 194 78 217 71 q 199 133 196 96 q 208 217 203 171 q 219 316 213 264 q 230 415 225 368 q 240 498 235 461 q 247 551 244 535 q 251 578 247 558 q 258 619 254 597 q 267 659 263 640 q 274 685 271 678 l 300 658 q 318 588 304 638 q 349 485 332 539 q 381 383 365 431 q 406 317 397 335 q 424 276 408 308 q 457 209 439 244 q 491 144 475 174 q 511 107 507 114 q 526 60 524 78 q 532 34 528 43 q 547 22 536 25 q 589 18 558 18 q 617 22 597 18 q 642 25 636 25 q 682 195 660 108 q 733 367 704 282 q 799 533 763 453 q 881 685 835 614 q 906 542 896 603 q 923 427 917 481 q 932 320 929 374 q 935 199 935 267 l 933 167 l 933 78 l 906 25 q 926 2 906 7 q 967 -3 946 -3 q 986 -2 978 -3 q 997 -1 994 -1 l 1025 -1 q 1056 -1 1039 -1 q 1087 4 1072 0 q 1110 17 1101 8 q 1119 40 1119 25 q 1118 47 1119 42 q 1117 53 1117 53 q 1106 67 1114 58 q 1090 78 1097 75 q 1039 432 1058 257 q 1010 790 1019 607 q 1051 810 1033 801 q 1079 831 1068 819 q 1096 857 1090 842 q 1101 897 1101 872 l 1092 897 q 1020 895 1060 897 q 942 883 981 893 q 873 851 904 872 q 826 790 842 829 l 617 236 l 589 236 q 577 256 588 239 q 553 300 567 274 q 535 342 540 326 l 431 658 q 420 682 429 664 q 397 724 411 700 q 369 776 383 749 q 340 828 354 804 q 317 871 326 853 q 307 894 308 889 l 300 922 q 245 901 278 910 q 180 879 213 892 q 122 849 147 867 q 90 803 97 832 l 192 803 q 193 793 192 803 q 194 772 194 783 l 194 764 q 185 688 192 739 q 171 572 179 636 q 154 435 163 507 q 138 299 146 364 q 123 183 129 235 q 114 107 117 132 q 89 83 103 92 q 61 66 75 74 q 33 49 47 58 q 8 25 19 40 z "},"N":{"ha":879,"x_min":3,"x_max":868,"o":"m 94 247 l 94 264 q 93 324 94 283 q 89 417 92 365 q 83 527 86 469 q 76 637 79 585 q 71 730 74 689 q 65 790 68 771 q 12 819 21 797 q 3 881 3 840 q 153 848 85 881 q 281 762 222 815 q 392 640 340 708 q 490 499 443 571 q 582 359 538 428 q 672 236 626 290 l 672 435 q 677 486 676 461 q 678 536 678 511 q 672 662 678 601 q 646 790 665 722 q 620 800 638 790 q 594 817 603 810 l 593 817 q 592 822 593 817 q 590 831 590 828 q 592 838 590 832 q 593 843 593 843 q 610 851 599 847 q 633 859 621 856 q 657 865 646 863 q 672 868 668 868 q 710 865 683 868 q 765 859 736 863 q 820 851 794 856 q 856 843 846 847 q 825 815 843 821 q 791 804 807 808 q 763 790 775 800 q 751 749 751 779 l 751 685 q 753 619 751 664 q 757 517 754 574 q 763 396 760 460 q 768 275 765 332 q 774 173 771 218 q 778 107 776 128 q 803 83 788 92 q 833 67 818 75 q 858 48 847 60 q 868 15 868 36 q 849 15 863 15 q 815 14 835 14 q 770 15 794 14 q 722 21 746 17 q 678 33 699 25 q 646 53 658 40 q 619 90 638 65 q 576 147 600 115 q 527 212 553 178 q 478 277 501 246 q 436 333 454 308 q 410 368 418 357 l 199 685 q 187 700 196 692 q 171 711 178 708 l 171 107 q 183 96 175 103 q 199 81 190 89 q 214 65 207 72 q 224 53 221 57 q 226 45 224 51 q 228 36 228 39 q 226 29 228 33 q 224 25 224 25 l 13 0 l 11 14 q 12 20 11 15 q 13 25 13 25 q 24 35 15 28 q 42 52 32 43 q 58 68 51 61 q 65 78 65 75 q 69 100 65 81 q 76 144 72 119 q 85 195 81 169 q 94 236 90 221 l 94 247 z "},"O":{"ha":893,"x_min":7,"x_max":881,"o":"m 142 78 q 97 122 121 89 q 54 196 74 156 q 22 274 35 236 q 8 333 8 313 l 8 342 q 8 372 8 346 q 7 414 7 397 q 36 585 7 513 q 118 715 65 658 q 244 814 171 771 q 406 897 317 857 l 417 897 q 601 867 517 897 q 749 781 686 838 q 846 644 811 725 q 881 461 881 563 q 842 267 881 353 q 736 122 803 181 q 580 31 669 63 q 389 -1 490 -1 q 262 20 319 -1 q 142 78 204 42 m 140 433 q 163 306 140 369 q 225 190 185 242 q 322 107 265 139 q 444 75 378 75 q 570 106 514 75 q 666 187 626 136 q 726 302 706 238 q 747 435 747 367 q 722 573 747 508 q 651 686 696 638 q 547 763 607 735 q 415 792 486 792 q 285 761 338 792 q 200 681 232 731 q 154 566 168 631 q 140 433 140 501 z "},"P":{"ha":578,"x_min":10,"x_max":551,"o":"m 64 78 l 64 764 q 53 772 61 765 q 38 788 46 779 q 22 804 29 796 q 11 817 14 813 q 10 822 11 817 q 10 831 10 828 q 22 853 10 844 q 53 867 35 863 q 94 874 72 872 q 135 875 115 875 q 162 874 150 875 q 181 874 174 874 q 317 864 250 874 q 435 826 383 854 q 519 747 488 797 q 551 618 551 697 q 519 499 551 549 q 434 417 486 450 q 317 365 382 383 q 188 342 251 347 l 188 53 q 228 38 207 51 q 250 0 250 24 l 33 0 q 35 15 33 7 q 39 25 38 24 q 50 53 42 33 q 64 78 58 72 m 188 790 l 188 440 q 271 446 226 440 q 353 467 315 451 q 415 513 390 483 q 440 590 440 542 q 419 661 440 625 q 364 726 397 697 q 291 774 331 756 q 215 792 251 792 q 199 791 208 792 q 188 790 190 790 z "},"Q":{"ha":907,"x_min":11,"x_max":2236,"o":"m 11 436 q 32 294 11 368 q 93 158 53 221 q 193 52 133 96 q 331 0 253 8 l 481 0 q 493 1 488 0 q 501 1 499 1 q 509 1 507 1 q 514 0 511 0 q 797 -87 665 -40 q 1057 -174 928 -133 q 1324 -240 1186 -214 q 1628 -267 1461 -267 l 1774 -267 q 1838 -264 1811 -267 q 1894 -253 1865 -261 q 1958 -229 1922 -244 q 2051 -189 1994 -214 l 2076 -178 q 2121 -158 2094 -171 q 2172 -133 2147 -146 q 2216 -111 2197 -121 q 2236 -101 2235 -101 l 2236 -67 q 2168 -76 2201 -67 q 2102 -99 2135 -86 q 2038 -128 2069 -112 q 1974 -153 2006 -143 l 1900 -175 q 1851 -187 1867 -186 q 1819 -189 1836 -189 q 1780 -187 1804 -189 q 1701 -186 1756 -186 l 1515 -186 l 1490 -185 q 1444 -178 1483 -185 q 1354 -163 1404 -172 q 1253 -144 1304 -154 q 1174 -129 1203 -135 q 1104 -115 1149 -125 q 1007 -90 1060 -104 q 899 -58 954 -76 q 799 -20 844 -40 q 726 22 754 0 q 697 67 697 44 q 727 101 697 74 q 793 173 757 128 q 859 278 829 218 q 889 414 889 339 q 855 594 889 511 q 759 738 821 678 q 612 833 697 799 q 424 868 526 868 q 251 832 328 868 q 122 736 175 796 q 40 599 68 676 q 11 436 11 521 m 143 456 q 160 566 143 507 q 211 675 178 625 q 293 758 244 725 q 406 792 342 792 q 553 759 489 792 q 663 672 618 726 q 730 548 707 618 q 753 403 753 478 q 732 284 753 343 q 674 178 711 225 q 583 103 636 132 q 467 75 531 75 q 322 106 383 75 q 222 190 261 138 q 163 312 182 243 q 143 456 143 381 z "},"R":{"ha":790,"x_min":15,"x_max":781,"o":"m 97 115 l 68 790 l 15 843 l 68 868 l 385 868 q 458 849 424 868 q 517 801 492 831 q 558 736 543 772 q 572 665 572 700 q 564 582 572 615 q 538 521 556 549 q 492 467 521 493 q 425 406 464 440 l 413 394 l 410 382 q 429 324 410 356 q 481 258 449 292 q 553 190 513 224 q 634 128 593 157 q 713 80 675 100 q 781 53 751 60 q 756 27 775 38 q 715 10 738 17 q 674 2 693 4 q 649 0 654 0 q 566 19 606 0 q 491 68 526 38 q 423 137 456 99 q 361 213 390 175 q 305 285 332 251 q 254 342 278 319 l 226 317 l 226 78 q 239 60 226 69 q 267 43 251 51 q 294 30 282 35 q 307 25 307 25 q 260 7 286 14 q 205 -3 233 0 q 148 -8 176 -7 q 93 -10 119 -10 l 38 -10 q 44 24 38 10 q 60 50 50 38 q 79 76 69 63 q 97 107 89 89 l 97 115 m 226 817 l 226 394 q 235 397 232 394 q 288 428 251 401 q 363 491 325 456 q 428 563 400 526 q 457 619 457 599 q 456 628 457 626 l 413 711 q 380 750 401 731 q 333 784 358 769 q 282 808 307 799 q 242 817 257 817 l 226 817 z "},"S":{"ha":617,"x_min":17,"x_max":601,"o":"m 17 40 q 17 31 17 38 q 18 25 18 25 q 67 1 38 6 q 128 -3 97 -3 q 170 -2 151 -3 q 204 -1 189 -1 q 342 10 271 -1 q 470 51 413 21 q 565 133 528 81 q 601 268 601 185 q 578 383 601 336 q 518 463 554 429 q 440 522 482 497 q 363 572 399 547 q 303 626 326 597 q 279 699 279 656 q 292 747 279 725 q 324 785 304 769 q 368 810 343 801 q 417 819 393 819 q 432 818 424 819 q 440 817 440 817 l 544 739 q 551 737 544 739 q 560 735 557 735 l 574 739 q 581 760 576 746 q 588 791 585 775 q 594 822 592 807 q 599 843 597 836 l 601 881 l 458 881 q 347 872 401 881 q 248 838 292 863 q 177 772 204 814 q 150 664 150 729 q 174 580 150 614 q 233 519 197 546 q 310 467 268 492 q 387 414 351 443 q 446 346 422 385 q 469 251 469 307 q 433 123 469 171 q 310 75 397 75 q 269 80 286 75 q 235 91 251 85 q 201 103 218 97 q 161 108 183 108 q 122 106 139 108 q 90 97 106 103 q 57 80 74 90 q 18 53 40 69 l 17 40 z "},"T":{"ha":797,"x_min":15,"x_max":785,"o":"m 346 56 l 281 0 l 567 0 q 553 24 567 14 q 524 41 540 35 q 494 50 508 47 q 475 53 479 53 l 475 776 l 676 776 l 676 703 q 723 721 703 703 q 757 765 743 739 q 778 819 771 792 q 785 868 785 847 l 121 868 q 84 849 103 868 q 50 805 65 831 q 25 753 35 779 q 15 711 15 726 q 26 694 15 704 q 43 685 36 685 q 95 724 74 708 q 135 751 117 740 q 171 765 154 761 q 208 769 188 769 q 266 769 229 769 q 347 768 303 768 l 346 56 z "},"U":{"ha":944,"x_min":10,"x_max":938,"o":"m 129 739 q 103 741 121 739 q 67 749 86 743 q 33 765 49 756 q 10 790 17 775 q 21 799 13 794 q 38 806 29 803 q 53 813 46 810 q 63 817 60 815 q 106 834 79 825 q 158 851 133 843 q 202 863 183 858 q 221 868 221 868 l 275 817 l 275 183 q 294 131 275 151 q 339 97 313 110 q 394 80 365 85 q 446 75 424 75 q 513 83 467 75 q 606 107 558 90 q 688 149 653 124 q 724 211 724 175 l 724 711 q 713 723 724 714 q 696 739 701 732 q 669 749 689 740 q 643 764 649 758 q 642 767 643 764 q 642 776 642 771 q 669 821 642 806 q 733 843 697 836 q 804 851 769 850 q 853 853 839 853 l 853 78 l 938 78 q 920 36 938 51 q 878 13 903 21 q 828 1 854 4 q 785 -1 803 -1 q 763 -1 776 -1 q 749 0 749 0 q 740 15 744 4 q 731 40 735 26 q 724 67 726 53 q 721 93 721 82 q 724 107 721 103 q 561 17 644 40 q 379 -6 478 -6 q 353 -3 371 -6 q 313 -1 336 -1 q 274 -1 290 -1 q 249 0 257 0 q 217 27 238 8 q 178 69 197 46 q 144 116 158 92 q 129 158 129 140 l 129 739 z "},"V":{"ha":922,"x_min":3,"x_max":907,"o":"m 479 25 l 86 739 q 64 757 78 750 q 36 770 50 764 q 13 784 22 776 q 3 803 3 792 l 4 817 q 50 824 17 819 q 122 833 83 829 q 194 840 160 838 q 243 843 229 843 l 276 843 q 274 817 276 836 q 269 790 272 797 q 265 786 269 790 q 256 778 261 782 q 247 769 251 774 q 243 764 243 765 q 257 686 243 732 q 294 588 271 640 q 347 481 317 536 q 408 376 376 426 q 472 282 440 325 q 531 211 504 239 q 547 238 538 218 q 560 264 557 257 l 718 764 q 702 776 711 767 q 690 790 693 785 q 689 796 690 790 q 688 803 688 801 q 689 813 688 810 q 690 817 690 817 q 722 837 703 829 q 762 849 740 844 q 806 856 783 854 q 847 857 828 857 q 883 856 867 857 q 907 856 899 856 q 892 810 907 826 q 859 780 878 793 q 822 752 840 767 q 794 711 803 738 q 764 601 779 663 q 732 472 749 539 q 695 335 715 404 q 648 202 675 265 q 587 86 621 139 q 507 0 553 33 l 479 25 z "},"W":{"ha":1318,"x_min":0,"x_max":1308,"o":"m 0 858 q 10 866 3 861 q 25 876 17 871 q 41 884 33 881 q 53 888 49 888 l 294 897 q 289 870 294 881 q 277 851 283 860 q 265 832 271 842 q 260 807 260 822 q 262 792 260 801 q 264 781 264 782 q 342 875 301 831 q 428 951 382 919 q 527 1002 474 983 q 643 1021 581 1021 q 702 1008 675 1021 q 755 979 729 994 q 806 951 781 964 q 858 938 831 938 q 905 952 876 938 q 965 985 933 967 q 1027 1021 996 1004 q 1082 1043 1058 1038 l 1094 1043 q 1158 1030 1126 1043 q 1217 995 1190 1017 q 1265 946 1244 974 q 1293 888 1285 918 q 1300 851 1293 878 q 1307 801 1307 825 q 1308 758 1307 779 q 1308 729 1308 738 l 1297 654 q 1296 615 1297 631 q 1288 583 1294 600 q 1271 545 1282 567 q 1239 490 1260 524 q 1192 412 1218 457 q 1136 317 1165 367 q 1078 219 1107 268 q 1028 132 1050 171 q 991 69 1006 93 q 975 43 976 44 l 924 -10 q 908 1 917 -8 q 897 15 900 10 l 736 332 q 726 348 735 339 q 714 358 718 357 q 692 317 707 344 q 659 256 678 290 q 620 185 640 222 q 581 115 600 149 q 548 54 563 81 q 526 15 533 28 q 505 -8 514 -4 q 475 -11 496 -11 q 460 -10 468 -11 q 449 -10 451 -10 q 399 105 428 28 q 337 276 371 182 q 263 470 303 371 q 181 653 224 569 q 93 794 139 738 q 0 858 47 851 m 314 706 q 326 635 314 683 q 357 528 338 588 q 399 406 376 468 q 444 291 422 343 q 485 206 467 239 q 514 172 504 172 q 568 205 542 172 q 615 282 594 238 q 649 374 636 326 q 661 449 661 421 q 649 530 661 488 q 617 614 636 572 q 575 694 597 656 q 535 765 553 733 q 526 781 531 774 q 513 778 519 779 q 499 776 506 776 q 469 783 482 776 q 449 807 456 789 l 475 847 l 736 847 l 674 913 q 662 915 672 914 q 638 915 651 915 q 610 915 624 915 q 589 915 596 915 q 501 904 549 915 q 411 868 453 893 q 342 803 369 843 q 314 706 314 763 m 818 506 l 818 490 q 842 415 826 454 q 876 338 858 375 q 913 265 894 300 q 949 201 932 229 q 955 200 951 201 q 961 199 958 199 q 1013 228 986 199 q 1065 303 1039 257 q 1115 407 1092 350 q 1156 518 1138 464 q 1184 618 1174 572 q 1194 689 1194 664 l 1186 807 q 1142 899 1174 875 q 1069 924 1111 924 q 983 909 1029 924 q 897 888 938 894 q 901 857 900 871 q 903 829 903 843 q 890 749 903 785 q 860 677 876 713 q 831 601 844 642 q 818 506 818 560 m 685 781 l 765 624 q 772 638 768 628 q 781 661 776 649 q 788 685 785 674 q 790 701 790 697 l 790 778 q 785 815 790 797 q 763 840 779 833 l 685 781 z "},"X":{"ha":950,"x_min":17,"x_max":942,"o":"m 625 25 q 638 33 629 26 q 654 49 646 40 q 669 65 663 57 q 676 78 676 74 q 667 99 676 82 q 651 126 658 115 q 650 128 651 128 q 650 131 650 128 q 614 182 640 144 q 558 261 588 219 q 503 340 529 303 q 467 394 476 378 q 401 331 435 368 q 334 252 367 293 q 274 173 301 211 q 228 107 246 135 q 245 92 235 101 q 265 72 256 83 q 282 49 275 61 q 289 25 289 38 l 17 25 l 17 53 q 84 85 46 58 q 163 153 122 113 q 244 242 204 193 q 316 337 285 290 q 367 424 347 383 q 386 489 386 464 l 386 500 q 382 512 385 504 q 376 528 379 519 q 368 543 372 536 q 360 551 364 550 l 150 817 q 124 826 143 817 q 99 843 104 836 q 97 847 99 843 q 94 857 94 850 q 110 888 94 878 q 149 897 125 897 l 175 897 q 205 894 182 897 q 254 885 228 890 q 303 876 281 881 q 333 868 326 871 l 339 857 q 336 849 339 856 q 333 843 333 843 q 324 828 332 836 q 308 817 315 819 l 467 606 q 475 615 471 608 q 521 656 494 632 q 570 708 547 681 q 609 763 593 735 q 625 817 625 792 q 613 831 625 819 q 597 843 600 842 q 593 868 593 857 l 808 868 l 835 843 q 745 808 796 843 q 650 725 694 774 q 574 625 606 676 q 543 539 543 574 l 543 528 q 549 516 544 524 q 557 500 553 508 q 565 485 561 492 q 572 475 569 478 q 619 406 592 446 q 675 322 646 365 q 733 235 704 278 q 783 158 761 192 q 820 101 806 124 q 835 78 835 79 l 942 25 l 942 -11 l 676 0 q 665 3 672 0 q 650 10 658 6 q 635 18 642 14 q 625 25 628 22 z "},"Y":{"ha":1007,"x_min":11,"x_max":994,"o":"m 467 114 q 462 83 467 97 q 451 55 457 68 q 440 28 444 42 q 435 0 435 15 l 656 0 q 646 87 656 43 q 625 175 636 131 q 604 265 614 219 q 594 356 594 310 q 612 533 594 463 q 657 649 629 604 q 721 719 685 694 q 794 761 757 744 q 868 790 832 778 q 932 821 904 801 q 977 872 960 840 q 994 958 994 903 q 849 924 908 958 q 740 839 789 889 q 644 733 690 789 q 540 635 599 678 q 458 739 500 690 q 369 824 417 788 q 263 881 321 860 q 133 903 206 903 l 114 903 q 72 902 94 903 q 42 899 49 901 q 26 888 35 896 q 14 874 17 879 q 13 867 14 874 q 11 860 11 861 l 14 844 q 198 803 122 836 q 324 717 274 769 q 403 597 374 665 q 446 451 432 529 q 463 287 460 372 q 467 114 467 201 z "},"Z":{"ha":868,"x_min":7,"x_max":856,"o":"m 297 126 l 299 131 q 456 356 399 272 q 541 482 513 439 q 578 538 569 525 q 589 551 586 550 l 800 817 q 825 826 806 817 q 850 843 844 836 q 853 847 850 843 q 856 857 856 850 q 840 888 856 878 q 801 897 824 897 l 774 897 q 744 894 767 897 q 693 883 721 890 l 690 889 l 7 889 q 19 844 7 867 q 51 799 32 821 q 91 757 69 776 q 129 724 113 738 l 146 711 l 146 739 q 134 765 143 746 q 118 790 125 785 l 383 790 l 635 808 q 429 528 524 658 q 265 299 335 397 q 156 142 196 200 q 114 78 115 83 l 7 25 l 7 -11 l 856 26 q 844 54 856 38 q 814 90 832 71 q 775 126 796 108 q 738 160 754 144 l 717 176 l 717 149 q 727 124 718 143 q 743 97 736 104 l 479 97 l 272 83 q 283 103 275 90 q 297 126 292 117 z "},"[":{"ha":508,"x_min":19,"x_max":483,"o":"m 19 500 q 110 615 69 558 q 181 715 150 671 q 231 789 211 760 q 258 822 250 818 l 433 908 l 460 867 q 402 849 433 867 q 340 802 371 831 q 279 738 308 774 q 227 665 250 701 q 190 594 204 628 q 176 539 176 561 l 176 528 q 182 516 178 524 q 190 500 186 508 q 199 485 194 492 q 206 475 203 478 q 253 403 225 446 q 313 311 282 360 q 375 215 344 263 q 430 128 406 167 q 469 64 454 89 q 482 39 483 39 l 413 0 l 19 500 z "},"\\":{"ha":676,"x_min":-1,"x_max":658,"o":"m 658 21 l 590 89 q 394 344 469 236 q 274 523 318 453 q 214 626 231 593 q 196 658 197 660 l 219 703 q 210 717 219 710 q 196 724 201 724 l -1 724 q 27 697 10 707 q 64 681 44 688 l 482 89 q 459 67 475 82 q 438 44 443 51 q 436 40 438 44 q 435 33 435 35 q 445 13 435 21 q 471 1 456 6 q 504 -4 486 -3 q 538 -6 522 -6 q 556 -5 549 -6 q 569 -4 564 -4 l 572 -4 q 588 -3 578 -4 q 607 -2 597 -3 q 624 -1 617 -1 q 635 0 632 0 l 658 21 z "},"]":{"ha":508,"x_min":19,"x_max":483,"o":"m 483 408 q 393 294 433 350 q 322 193 353 238 q 272 119 292 149 q 244 86 253 90 l 69 0 l 43 42 q 101 60 69 42 q 163 106 132 78 q 224 171 194 135 q 276 244 253 207 q 313 313 299 281 q 326 369 326 346 l 326 381 q 320 392 324 385 q 313 408 317 400 q 304 424 308 417 q 297 433 300 431 q 249 506 278 463 q 190 597 221 549 q 128 694 158 646 q 73 781 97 742 q 34 844 49 819 q 21 869 19 868 l 90 908 l 483 408 z "},"^":{"ha":950,"x_min":1,"x_max":950,"o":"m 1 724 l 207 724 q 206 715 207 719 q 203 703 204 710 l 181 681 q 180 676 181 681 q 179 669 179 671 l 181 658 q 286 411 232 540 q 379 153 340 282 l 383 163 q 410 215 397 186 q 424 274 424 244 l 424 285 l 400 372 q 371 451 389 403 q 335 545 353 500 q 305 624 318 590 q 290 658 292 657 l 247 703 q 300 728 272 728 l 356 728 q 368 728 360 728 q 388 729 376 729 q 424 724 407 729 q 443 703 440 718 q 424 688 428 699 q 421 663 421 676 l 421 647 q 424 605 421 624 q 435 569 428 586 q 455 533 443 551 q 482 492 467 515 l 488 483 l 554 681 l 511 703 q 533 724 514 718 q 569 729 551 729 q 588 728 581 729 q 599 728 596 728 q 609 728 601 728 q 628 729 617 729 q 665 724 646 729 q 686 703 683 718 q 649 687 667 696 q 619 658 632 678 q 603 603 615 643 q 576 517 590 563 q 550 430 563 471 q 532 372 538 389 l 532 351 q 540 317 533 340 q 557 267 547 294 q 578 215 567 240 q 599 176 589 190 q 628 234 615 201 q 651 301 640 267 q 669 365 661 335 q 686 417 678 396 l 775 658 q 751 667 768 658 q 731 681 735 676 q 730 685 731 681 q 729 692 729 689 l 731 703 q 815 721 778 714 q 897 728 853 728 l 903 728 q 931 725 917 728 q 950 703 944 722 q 842 615 888 676 q 764 474 797 553 q 706 312 731 396 q 663 158 682 228 q 626 44 643 89 q 589 -1 608 -1 q 581 -1 585 -1 q 576 0 576 0 q 539 35 556 13 q 508 82 522 57 q 484 132 494 107 q 467 176 474 157 l 443 176 q 406 76 432 124 q 335 0 381 28 q 306 30 315 11 q 290 65 297 49 l 136 483 q 104 541 126 510 q 59 604 82 572 q 19 667 36 636 q 1 724 1 699 z "},"_":{"ha":385,"x_min":-7,"x_max":389,"o":"m 44 -15 l -7 1 q 3 23 -7 14 q 27 37 14 32 q 52 44 40 42 q 68 46 64 46 q 79 47 69 46 q 102 48 89 47 q 130 49 115 49 q 156 50 144 50 q 190 52 181 50 q 214 54 199 54 q 232 54 217 54 q 266 53 247 54 q 301 53 285 53 q 325 53 318 53 q 353 51 340 53 q 368 50 367 50 l 389 29 q 364 12 383 19 q 322 -1 344 4 q 277 -11 299 -7 q 246 -18 256 -15 q 238 -21 240 -21 l 44 -15 z "},"`":{"ha":196,"x_min":15,"x_max":179,"o":"m 179 560 q 117 591 146 569 q 47 661 88 613 q 35 685 40 674 q 28 708 31 697 q 15 771 15 739 q 19 787 18 778 q 24 806 19 796 q 74 787 53 804 q 114 749 94 769 l 135 726 l 161 664 l 179 560 z "},"a":{"ha":847,"x_min":14,"x_max":829,"o":"m 585 1 q 624 34 618 15 q 631 79 631 53 q 620 132 631 99 q 595 197 610 165 q 564 251 581 228 q 535 274 547 274 l 271 253 q 244 233 256 250 q 225 193 233 217 q 213 144 217 169 q 208 97 208 118 q 215 69 208 78 q 233 53 222 60 q 255 41 243 47 q 278 22 267 35 q 256 10 272 18 q 233 1 240 1 l 14 -8 l 14 22 q 35 31 19 25 q 68 47 50 38 q 102 67 86 56 q 125 90 118 78 q 146 141 132 106 q 175 215 160 176 q 204 289 190 254 q 225 340 218 324 q 244 403 233 364 q 268 489 254 443 q 299 581 282 535 q 338 664 317 626 q 384 725 358 701 q 440 749 410 749 l 490 692 q 504 660 490 692 q 540 579 518 629 q 588 466 561 529 q 642 338 614 403 q 695 213 669 274 q 740 110 721 153 q 757 87 743 103 q 787 54 771 71 q 816 25 803 38 q 829 13 829 13 q 817 -6 829 1 q 788 -18 806 -14 q 749 -24 769 -22 q 711 -25 729 -25 q 690 -24 700 -25 q 676 -24 681 -24 l 671 -24 q 653 -24 664 -24 q 633 -23 643 -24 q 615 -22 624 -22 q 607 -22 608 -22 l 585 1 m 401 604 q 340 476 368 546 q 311 340 311 407 l 518 340 q 507 412 518 376 q 479 481 496 447 q 442 545 463 514 q 401 604 421 576 z "},"b":{"ha":549,"x_min":7,"x_max":531,"o":"m 7 35 l 31 13 q 40 13 32 13 q 60 12 49 13 q 82 11 71 11 q 100 11 93 11 q 236 19 161 11 q 376 51 311 28 q 486 119 442 75 q 531 236 531 164 q 530 255 531 243 q 528 278 529 267 q 526 299 528 290 q 525 307 525 307 q 508 334 521 317 q 477 369 494 351 q 443 399 460 386 q 417 417 426 413 q 449 447 436 433 q 469 473 461 460 q 479 501 476 486 q 482 536 482 517 q 449 631 482 592 q 367 694 417 669 q 263 728 318 718 q 161 739 207 739 l 124 739 q 59 732 90 739 q 7 693 28 725 l 50 671 q 54 628 51 671 q 60 527 57 586 q 67 405 64 468 q 74 300 71 342 l 74 206 q 72 158 74 182 q 65 113 71 135 q 45 70 58 90 q 7 35 32 50 m 183 364 l 294 353 q 390 311 361 353 q 418 210 418 269 q 396 147 418 174 q 340 104 374 121 q 264 80 306 88 q 183 72 222 72 l 183 364 m 183 671 l 272 658 q 313 647 294 658 q 345 619 332 636 q 366 581 358 601 q 374 539 374 560 q 354 494 374 513 q 306 465 335 476 q 244 448 278 453 q 183 443 211 443 l 183 671 z "},"c":{"ha":668,"x_min":18,"x_max":658,"o":"m 18 344 q 49 512 18 440 q 134 631 79 583 q 264 703 189 679 q 429 728 339 728 l 528 728 q 548 707 543 724 q 553 674 553 690 q 552 657 553 664 q 551 647 551 650 q 552 638 551 644 q 553 622 553 632 q 548 590 553 606 q 528 571 543 574 q 488 619 506 601 q 453 644 471 636 q 417 653 436 651 q 369 654 397 654 q 266 627 313 654 q 187 557 219 600 q 136 460 154 514 q 118 351 118 406 l 118 332 q 152 214 125 265 q 222 127 179 163 q 319 74 264 92 q 440 56 375 56 q 488 60 467 56 q 531 74 510 65 q 572 91 551 82 q 615 108 592 100 q 619 110 615 108 q 625 113 624 113 q 632 110 628 113 q 636 108 636 108 q 649 100 642 107 q 658 89 657 93 q 600 37 633 56 q 531 10 567 18 q 456 0 494 1 q 379 -1 417 -1 l 361 -1 q 106 88 193 -1 q 18 344 18 176 z "},"d":{"ha":650,"x_min":13,"x_max":628,"o":"m 13 21 q 21 44 13 28 q 36 65 29 61 l 36 681 q 21 701 29 686 q 13 724 13 717 q 21 738 13 729 q 36 747 29 747 l 388 747 q 494 711 449 747 q 569 623 539 675 q 613 512 599 571 q 628 407 628 453 q 583 224 628 301 q 467 97 539 147 q 306 23 396 47 q 124 -1 215 -1 l 36 -1 q 21 8 29 0 q 13 21 13 17 m 168 89 q 185 83 174 86 q 210 76 197 79 q 236 69 224 72 q 256 65 249 67 l 265 65 q 372 95 325 65 q 452 172 419 125 q 502 276 485 219 q 519 385 519 332 q 501 505 519 450 q 446 599 482 560 q 358 661 410 639 q 240 683 306 683 q 230 684 238 683 q 215 685 222 685 q 184 680 199 685 q 168 658 169 675 q 163 617 165 644 q 158 556 161 590 q 153 483 156 521 q 149 410 150 444 q 146 349 147 376 q 144 307 144 321 q 147 263 144 294 q 153 198 150 232 q 161 133 157 164 q 168 89 165 101 z "},"e":{"ha":563,"x_min":13,"x_max":544,"o":"m 13 21 q 60 17 28 19 q 134 13 93 15 q 221 8 175 11 q 308 4 267 6 q 383 1 350 3 q 432 0 415 0 l 444 0 q 481 19 463 0 q 513 66 499 39 q 535 121 526 93 q 544 165 544 149 q 469 140 506 165 q 408 89 432 115 l 156 85 l 156 347 l 321 351 l 321 307 l 343 307 q 355 322 343 307 q 381 358 367 338 q 410 402 396 379 q 432 440 425 425 q 433 449 432 442 q 433 460 433 457 q 433 474 433 467 q 432 483 432 481 l 364 440 l 144 440 l 144 658 l 388 658 l 364 615 q 388 610 371 610 q 425 624 408 610 q 455 660 442 639 q 478 706 468 682 q 496 747 489 729 l 475 747 q 421 746 457 747 q 339 742 385 744 q 243 738 293 740 q 147 732 193 735 q 65 727 101 729 q 13 724 29 725 l 13 703 q 22 681 15 697 q 36 658 29 665 l 36 65 l 13 21 z "},"f":{"ha":519,"x_min":13,"x_max":501,"o":"m 36 21 q 74 48 67 31 q 81 88 81 65 l 81 176 q 79 260 81 211 q 76 363 78 310 q 71 469 74 417 q 65 565 68 522 q 60 633 63 607 q 57 658 58 658 l 13 703 l 36 724 l 501 749 q 490 705 501 726 q 463 664 479 683 q 428 628 447 644 q 396 600 410 613 l 388 593 l 388 615 q 397 638 389 621 q 408 658 404 654 l 189 658 l 189 440 l 343 440 q 373 475 357 460 q 415 490 389 490 q 401 399 415 438 q 343 329 388 361 q 321 350 321 340 q 324 357 321 353 q 326 372 326 361 l 189 372 l 189 65 q 199 50 189 58 q 222 35 210 42 q 245 25 235 29 q 256 21 256 21 q 196 1 225 4 q 135 -1 167 -1 l 122 -1 q 108 -2 118 -1 q 86 -3 97 -3 q 54 1 69 -3 q 36 21 39 6 z "},"g":{"ha":776,"x_min":19,"x_max":768,"o":"m 19 379 q 42 234 19 303 q 108 113 64 165 q 215 30 151 61 q 363 -1 279 -1 q 449 8 392 -1 q 563 33 506 17 q 662 71 619 49 q 704 121 704 93 q 703 128 704 124 q 703 132 703 132 q 694 144 701 138 q 681 153 686 151 l 681 351 q 702 358 689 354 q 728 366 715 361 q 751 378 740 371 q 768 396 763 385 l 747 417 q 733 418 746 417 q 704 419 719 419 q 674 421 690 419 q 651 422 658 422 q 613 421 636 422 q 565 419 590 419 q 526 418 544 419 q 504 417 507 417 q 488 415 500 417 q 463 408 476 413 q 440 394 450 403 q 429 372 429 385 l 549 372 l 549 108 q 537 85 549 94 q 508 72 525 76 q 470 65 490 67 q 433 63 450 63 l 407 63 q 294 88 347 63 q 199 158 240 114 q 135 258 158 201 q 111 375 111 314 q 127 483 111 432 q 174 574 143 535 q 253 637 206 614 q 363 660 300 660 q 435 655 401 660 q 502 645 469 650 q 569 635 535 640 q 642 631 603 631 q 631 681 642 661 q 601 710 619 700 q 558 724 582 721 q 508 728 533 728 l 429 728 q 273 708 347 728 q 142 644 199 688 q 53 536 86 601 q 19 379 19 471 z "},"h":{"ha":676,"x_min":0,"x_max":660,"o":"m 0 21 l 68 89 l 68 636 l 24 703 q 58 722 35 714 q 108 736 82 731 q 160 744 135 742 q 199 747 185 747 q 209 738 200 747 q 221 724 218 729 q 222 719 221 724 q 224 714 224 715 q 222 708 224 713 q 221 703 221 703 q 212 692 218 699 q 199 680 206 686 q 185 667 192 674 q 176 658 179 661 l 176 460 l 482 460 q 483 472 482 463 q 483 483 483 481 q 478 527 482 499 q 472 584 475 556 q 465 634 468 613 q 463 658 463 656 l 439 703 q 448 717 439 710 q 463 724 457 724 l 660 724 q 631 697 649 707 q 594 681 614 688 l 594 483 q 596 410 594 453 q 599 322 597 368 q 604 229 601 275 q 609 147 607 183 q 613 88 611 111 q 615 65 615 65 l 660 21 l 638 0 l 435 0 q 440 20 435 10 q 453 39 446 31 q 469 54 461 47 q 483 65 478 61 l 483 397 l 176 372 l 176 89 q 199 67 183 82 q 221 44 215 51 q 222 40 221 44 q 224 33 224 35 q 213 13 224 21 q 188 1 203 6 q 154 -4 172 -3 q 121 -6 136 -6 q 102 -5 110 -6 q 89 -4 94 -4 l 86 -4 q 71 -3 81 -4 q 51 -2 61 -3 q 33 -1 42 -1 q 24 0 25 0 l 0 21 z "},"i":{"ha":264,"x_min":21,"x_max":244,"o":"m 21 21 l 65 65 q 71 91 67 67 q 79 147 75 115 q 86 212 83 179 q 89 264 89 244 l 89 397 q 90 411 90 401 q 83 490 90 450 q 67 567 75 529 q 51 643 58 606 q 43 715 43 681 q 44 721 43 718 q 44 724 44 724 q 54 728 46 725 q 73 734 63 731 q 93 741 83 738 q 108 747 103 744 l 132 747 q 153 744 138 747 q 188 738 169 742 q 221 729 206 733 q 242 724 236 725 l 244 714 q 243 708 244 713 q 242 703 242 703 q 233 692 239 699 q 219 680 226 686 q 206 667 213 674 q 197 658 200 661 l 197 65 q 220 57 204 65 q 242 44 236 49 q 243 40 242 44 q 244 33 244 35 q 234 13 244 21 q 208 1 224 6 q 175 -4 193 -3 q 142 -6 157 -6 q 123 -5 131 -6 q 110 -4 115 -4 l 107 -4 q 92 -3 101 -4 q 72 -2 82 -3 q 54 -1 63 -1 q 44 0 46 0 l 21 21 z "},"j":{"ha":300,"x_min":-274,"x_max":283,"o":"m -225 -62 q -261 -97 -249 -82 q -274 -140 -274 -112 q -126 -132 -203 -140 q 18 -86 -49 -124 q 60 -52 33 -76 q 121 -1 88 -28 q 190 46 154 25 q 258 69 225 67 l 258 685 q 280 706 276 693 q 283 736 283 718 l 278 736 q 260 737 271 736 q 236 738 250 738 q 194 736 217 738 q 151 732 172 735 q 110 722 129 729 q 82 706 92 715 l 126 618 l 126 114 q 94 32 126 65 q 14 -24 61 -1 q -87 -56 -33 -46 q -182 -65 -140 -65 q -205 -65 -194 -65 q -225 -62 -215 -64 z "},"k":{"ha":689,"x_min":15,"x_max":682,"o":"m 17 21 l 40 0 l 207 0 q 217 8 208 0 q 229 21 226 17 q 231 26 229 21 q 232 33 232 31 q 231 41 232 38 q 229 44 229 44 q 208 57 224 49 q 185 65 192 65 l 185 307 q 269 216 228 269 q 356 115 310 163 q 455 33 401 67 q 578 -1 508 -1 q 608 2 590 -1 q 643 13 626 6 q 671 32 660 19 q 682 61 682 44 q 556 94 621 61 q 435 176 492 126 q 338 284 379 225 q 281 396 296 343 l 524 636 q 537 654 528 642 q 556 681 546 667 q 576 707 567 694 q 589 724 585 719 q 569 744 586 740 q 536 749 551 749 l 521 749 q 438 709 463 749 q 413 615 414 669 q 378 578 404 604 q 324 524 353 551 q 267 472 294 496 q 229 440 240 447 q 206 426 224 433 q 185 417 189 419 l 185 681 l 229 724 q 206 729 224 725 q 167 738 188 733 q 128 744 147 742 q 104 747 110 747 l 85 747 q 47 734 71 742 q 17 724 22 726 q 16 719 17 724 q 15 714 15 715 q 16 708 15 713 q 17 703 17 703 q 38 689 22 697 q 61 681 54 681 l 61 65 l 17 21 z "},"l":{"ha":519,"x_min":13,"x_max":504,"o":"m 13 21 q 30 58 19 40 q 57 89 40 76 l 57 658 l 13 703 l 36 724 l 206 744 q 223 747 207 744 q 246 749 239 749 q 228 695 246 721 q 183 656 210 669 l 183 106 q 194 95 183 99 q 222 90 206 92 q 255 87 238 88 q 285 86 272 86 l 310 86 q 369 101 344 86 q 413 135 393 117 q 454 168 433 153 q 504 183 475 183 q 497 135 504 165 q 475 74 489 104 q 442 22 461 44 q 400 0 422 0 l 388 0 q 312 2 365 0 q 199 8 258 4 q 86 15 139 11 q 13 21 33 18 z "},"m":{"ha":950,"x_min":4,"x_max":931,"o":"m 4 21 q 23 1 7 6 q 57 -3 39 -3 q 78 -2 68 -3 q 90 -1 88 -1 l 106 -1 q 166 1 139 -1 q 225 21 193 4 q 196 49 214 40 q 160 65 178 58 q 167 144 161 88 q 179 264 172 200 q 192 383 186 328 q 203 460 199 439 q 206 481 203 465 q 212 515 208 497 q 219 548 215 532 q 225 571 222 564 l 247 549 q 263 491 251 532 q 288 405 275 450 q 315 319 301 360 q 335 264 328 279 q 350 231 338 257 q 378 175 363 204 q 406 120 393 146 q 424 89 419 94 q 435 51 433 65 q 441 28 438 36 q 453 18 444 21 q 488 15 463 15 q 511 17 494 15 q 532 21 528 19 q 566 163 547 90 q 609 306 585 235 q 663 444 633 376 q 731 571 693 511 q 752 451 743 501 q 766 356 761 401 q 774 267 771 311 q 776 165 776 222 l 775 139 l 775 65 l 751 21 q 768 1 751 6 q 803 -3 785 -3 q 819 -2 811 -3 q 828 -1 826 -1 l 851 -1 q 878 -1 864 -1 q 903 3 892 0 q 923 14 915 7 q 931 33 931 21 q 929 40 931 35 q 928 44 928 44 q 918 56 925 49 q 906 65 911 63 q 839 658 854 358 q 873 674 858 667 q 897 691 888 682 q 910 713 906 700 q 915 747 915 726 l 907 747 q 847 746 881 747 q 783 736 814 744 q 725 710 751 728 q 686 658 699 692 l 511 197 l 488 197 q 482 208 488 197 q 469 232 476 218 q 453 260 461 246 q 443 285 446 275 l 356 549 q 338 583 353 554 q 305 647 322 613 q 274 710 288 681 q 260 746 260 739 l 247 768 q 201 749 228 757 q 147 732 174 742 q 99 708 119 722 q 72 669 78 693 l 157 669 q 158 661 157 669 q 160 643 160 653 l 160 636 q 151 572 157 615 q 140 475 146 529 q 126 362 133 421 q 112 249 118 303 q 100 152 106 194 q 92 89 94 110 q 72 69 83 76 q 49 55 61 61 q 26 41 38 49 q 4 21 14 33 z "},"n":{"ha":731,"x_min":4,"x_max":725,"o":"m 81 206 l 81 219 q 79 269 81 235 q 76 348 78 304 q 72 440 74 392 q 67 531 69 488 q 61 609 64 575 q 57 658 58 643 q 12 683 19 665 q 4 733 4 700 q 130 706 72 733 q 237 635 188 679 q 329 533 286 590 q 411 417 372 476 q 488 299 450 357 q 563 197 525 242 l 563 363 q 566 406 565 385 q 567 447 567 426 q 561 551 567 500 q 540 658 556 601 q 519 667 533 658 q 497 681 504 675 l 496 681 q 495 685 496 681 q 494 692 494 689 q 495 698 494 693 q 496 703 496 703 q 510 709 500 706 q 530 716 519 713 q 549 722 540 719 q 563 724 558 724 q 594 722 572 724 q 641 716 617 719 q 686 709 665 713 q 715 703 707 706 q 690 678 704 683 q 661 670 675 674 q 638 658 647 667 q 628 624 628 649 l 628 571 q 629 515 628 553 q 633 431 631 478 q 637 330 635 383 q 642 229 639 276 q 647 144 644 182 q 650 89 649 106 q 671 69 658 76 q 696 56 683 63 q 717 40 708 49 q 725 13 725 31 q 709 12 721 13 q 682 11 697 11 q 644 13 665 11 q 604 17 624 14 q 567 27 585 21 q 540 44 550 33 q 501 97 529 60 q 441 176 472 135 q 381 255 410 218 q 343 307 353 292 l 168 571 q 158 583 165 576 q 144 593 151 590 l 144 89 q 167 67 151 82 q 189 44 183 51 q 190 38 189 43 q 192 31 192 33 q 190 24 192 28 q 189 21 189 21 l 13 0 l 11 11 q 12 17 11 13 q 13 21 13 21 q 22 29 14 22 q 37 43 29 36 q 51 56 44 50 q 57 65 57 63 q 60 83 57 67 q 66 121 63 100 q 74 163 69 142 q 81 197 78 185 l 81 206 z "},"o":{"ha":744,"x_min":6,"x_max":733,"o":"m 118 65 q 217 17 169 35 q 324 -1 265 -1 q 483 25 408 -1 q 613 101 557 51 q 701 223 668 151 q 733 385 733 294 q 704 536 733 469 q 624 650 675 603 q 501 722 572 697 q 347 747 431 747 l 338 747 q 203 678 264 714 q 98 595 142 642 q 30 488 54 549 q 6 344 6 428 l 6 278 q 17 228 6 261 q 45 163 28 196 q 82 101 63 129 q 118 65 101 74 m 117 361 q 128 471 117 417 q 167 567 140 525 q 237 634 193 608 q 346 660 281 660 q 455 636 404 660 q 543 572 506 613 q 601 478 581 532 q 622 363 622 424 q 605 251 622 306 q 555 156 588 197 q 476 88 522 114 q 371 63 429 63 q 267 89 314 63 q 188 158 221 115 q 135 255 154 201 q 117 361 117 308 z "},"p":{"ha":479,"x_min":7,"x_max":463,"o":"m 53 65 l 53 636 q 31 657 47 642 q 8 681 14 672 q 8 685 8 681 q 7 692 7 689 q 17 711 7 704 q 43 722 28 718 q 76 728 58 726 q 111 729 94 729 q 135 728 125 729 q 150 728 144 728 q 264 719 208 728 q 364 688 319 711 q 435 624 408 665 q 463 517 463 583 q 437 417 463 458 q 369 347 411 375 q 275 304 328 319 q 168 285 222 289 l 168 44 q 201 31 183 43 q 219 0 219 19 l 26 0 q 28 13 26 6 q 32 21 31 19 q 41 44 33 26 q 53 65 49 61 m 168 658 l 168 367 q 237 372 201 367 q 301 390 272 376 q 350 428 331 403 q 369 493 369 453 q 353 552 369 522 q 310 606 336 582 q 253 644 285 629 q 190 660 221 660 q 178 659 185 660 q 168 658 171 658 z "},"q":{"ha":756,"x_min":10,"x_max":1864,"o":"m 10 364 q 27 246 10 307 q 78 132 44 185 q 160 43 111 79 q 275 0 210 7 l 400 0 q 411 1 407 0 q 418 1 415 1 q 424 1 422 1 q 428 0 426 0 q 664 -72 554 -33 q 881 -144 774 -111 q 1103 -200 989 -178 q 1357 -222 1218 -222 l 1478 -222 q 1531 -220 1508 -222 q 1578 -210 1554 -218 q 1632 -190 1601 -203 q 1710 -157 1663 -178 l 1731 -149 q 1768 -132 1746 -143 q 1811 -110 1790 -121 q 1847 -92 1832 -100 q 1864 -85 1863 -85 l 1864 -56 q 1807 -63 1835 -56 q 1752 -83 1779 -71 q 1698 -107 1725 -94 q 1644 -128 1671 -119 l 1583 -146 q 1543 -155 1556 -153 q 1517 -157 1531 -157 q 1483 -156 1504 -157 q 1418 -156 1463 -156 l 1263 -156 l 1242 -154 q 1203 -149 1236 -154 q 1128 -136 1171 -143 q 1044 -121 1086 -129 q 978 -108 1003 -112 q 920 -96 957 -104 q 839 -76 883 -87 q 749 -49 794 -64 q 665 -17 703 -33 q 604 19 628 0 q 581 56 581 38 q 606 84 581 61 q 660 144 631 107 q 715 232 690 182 q 740 344 740 282 q 712 494 740 425 q 632 615 683 564 q 509 695 581 667 q 353 724 438 724 q 210 694 274 724 q 102 614 147 664 q 33 499 57 564 q 10 364 10 435 m 119 379 q 134 472 119 422 q 176 563 149 521 q 244 632 204 604 q 338 660 285 660 q 461 633 407 660 q 552 560 515 606 q 608 457 589 515 q 628 336 628 399 q 610 237 628 286 q 562 149 593 188 q 486 87 531 111 q 389 63 442 63 q 269 88 319 63 q 185 158 218 114 q 135 259 151 201 q 119 379 119 317 z "},"r":{"ha":650,"x_min":3,"x_max":640,"o":"m 71 96 l 47 658 l 3 703 l 47 724 l 311 724 q 372 708 343 724 q 421 667 400 692 q 454 613 442 643 q 467 554 467 583 q 460 485 467 513 q 438 433 453 457 q 401 388 424 410 q 344 338 378 367 l 333 329 l 332 318 q 367 242 332 286 q 451 158 401 199 q 552 86 500 118 q 640 44 604 54 q 620 23 636 32 q 586 9 604 14 q 552 2 568 4 q 531 0 536 0 q 430 34 476 0 q 342 115 383 68 q 267 209 301 161 q 201 285 232 257 l 179 264 l 179 65 q 190 50 179 58 q 213 35 200 42 q 235 25 225 29 q 246 21 246 21 q 161 -3 211 1 q 68 -8 111 -8 l 21 -8 q 26 20 21 8 q 40 42 32 32 q 56 63 47 53 q 71 89 64 74 l 71 96 m 179 681 l 179 329 q 186 331 183 329 q 231 358 200 335 q 292 410 261 381 q 347 469 324 439 q 371 517 371 499 q 369 524 371 522 l 333 593 q 307 625 325 610 q 267 653 289 640 q 225 673 246 665 q 192 681 204 681 l 179 681 z "},"s":{"ha":522,"x_min":14,"x_max":501,"o":"m 14 33 q 15 26 14 31 q 15 21 15 21 q 57 1 32 6 q 107 -3 82 -3 q 142 -2 126 -3 q 171 -1 157 -1 q 285 8 226 -1 q 392 42 344 17 q 471 110 440 67 q 501 224 501 154 q 481 318 501 279 q 432 385 461 357 q 367 435 403 414 q 303 476 332 456 q 253 522 274 497 q 233 582 233 547 q 244 623 233 604 q 271 655 254 642 q 308 676 288 668 q 347 683 328 683 q 360 682 354 683 q 367 681 367 681 l 454 615 q 459 614 454 615 q 467 613 464 613 l 478 615 q 484 633 481 621 q 491 658 488 644 q 497 685 494 672 q 499 703 499 697 l 501 733 l 382 733 q 289 726 335 733 q 206 698 243 718 q 147 642 169 678 q 125 553 125 607 q 144 483 125 511 q 194 432 164 454 q 258 390 224 410 q 323 345 293 369 q 372 289 353 321 q 392 210 392 257 q 360 103 392 143 q 258 63 329 63 q 224 67 239 63 q 196 76 210 71 q 167 86 182 82 q 135 90 153 90 q 101 88 115 90 q 75 81 88 86 q 48 67 63 75 q 15 44 33 58 l 14 33 z "},"t":{"ha":671,"x_min":11,"x_max":653,"o":"m 282 47 l 232 0 l 469 0 q 458 21 469 13 q 434 35 447 29 q 408 42 421 40 q 393 44 396 44 l 393 643 l 563 643 l 563 586 q 601 601 585 586 q 629 638 618 617 q 647 683 640 660 q 653 724 653 707 l 99 724 q 68 708 83 724 q 40 672 53 693 q 19 628 28 650 q 11 593 11 606 q 19 579 11 588 q 35 571 28 571 q 80 603 61 590 q 113 623 99 615 q 142 634 128 631 q 172 638 156 638 l 283 638 l 282 47 z "},"u":{"ha":786,"x_min":4,"x_max":778,"o":"m 104 615 q 83 617 97 615 q 53 624 68 619 q 24 638 38 629 q 4 658 10 646 q 27 672 10 665 q 49 681 44 678 q 85 695 63 688 q 128 709 107 703 q 165 719 150 715 q 181 724 181 724 l 225 681 l 225 153 q 240 109 225 126 q 278 81 256 92 q 325 67 300 71 q 368 63 350 63 q 423 69 385 63 q 500 89 461 75 q 569 124 539 103 q 599 176 599 146 l 599 593 q 590 603 599 596 q 576 615 581 610 q 553 624 571 617 q 532 636 536 632 q 531 640 532 636 q 531 647 531 643 q 553 684 531 671 q 607 703 576 697 q 666 710 638 710 q 707 711 694 711 l 707 65 l 778 65 q 763 30 778 43 q 728 10 749 17 q 686 1 708 3 q 650 -1 664 -1 q 631 -1 643 -1 q 619 0 619 0 q 612 13 615 4 q 605 33 608 22 q 599 56 601 44 q 597 78 597 68 q 599 89 597 86 q 464 15 533 33 q 313 -4 394 -4 q 291 -3 306 -4 q 257 -1 276 -1 q 224 -1 238 -1 q 203 0 210 0 q 178 23 194 7 q 144 58 161 39 q 116 97 128 76 q 104 132 104 117 l 104 615 z "},"v":{"ha":776,"x_min":10,"x_max":764,"o":"m 407 21 l 79 615 q 60 631 72 625 q 38 642 49 636 q 18 653 26 647 q 10 669 10 660 l 11 681 q 48 687 19 683 q 109 694 76 690 q 170 700 142 697 q 210 703 199 703 l 238 703 q 236 681 238 697 q 232 658 235 665 q 221 648 232 657 q 210 636 210 639 q 222 572 210 610 q 252 490 233 533 q 296 400 271 446 q 347 312 321 354 q 401 234 374 269 q 450 176 428 199 q 464 198 457 182 q 474 219 471 214 l 606 636 q 593 647 600 639 q 583 658 586 654 q 582 663 583 658 q 581 669 581 668 q 582 678 581 675 q 583 681 583 681 q 643 708 604 701 q 714 714 682 714 q 744 713 731 714 q 764 713 757 713 q 752 674 764 688 q 724 651 740 661 q 692 628 708 640 q 669 593 676 615 q 644 501 656 553 q 617 393 632 450 q 586 278 603 336 q 547 168 569 221 q 497 72 525 115 q 431 0 468 28 l 407 21 z "},"w":{"ha":1099,"x_min":-3,"x_max":1088,"o":"m -3 715 q 18 730 1 721 q 42 739 35 739 l 243 747 q 238 724 243 733 q 228 708 233 715 q 219 693 224 701 q 214 672 214 685 q 215 660 214 668 q 217 650 217 651 q 281 728 247 692 q 353 792 315 765 q 436 835 392 819 q 533 850 481 850 q 583 839 560 850 q 627 815 606 828 q 669 792 649 803 q 713 781 690 781 q 751 792 726 781 q 801 820 775 804 q 853 851 828 836 q 899 869 879 865 l 910 869 q 963 858 936 869 q 1012 829 989 847 q 1051 788 1035 811 q 1075 739 1068 764 q 1081 710 1075 732 q 1086 668 1086 688 q 1087 631 1086 649 q 1088 607 1088 614 l 1078 544 q 1076 513 1078 525 q 1070 486 1075 500 q 1056 454 1065 472 q 1029 408 1046 436 q 990 343 1013 381 q 944 265 968 306 q 896 183 919 224 q 853 110 872 142 q 823 57 835 78 q 810 36 811 36 l 767 -8 q 754 1 761 -7 q 744 13 747 8 l 611 276 q 603 290 610 282 q 592 299 596 297 q 574 265 586 288 q 546 213 561 242 q 514 154 531 185 q 482 95 497 124 q 454 44 467 67 q 436 13 442 22 q 418 -7 425 -4 q 393 -10 411 -10 q 381 -9 388 -10 q 371 -8 374 -8 q 329 88 353 24 q 277 230 306 151 q 216 392 249 308 q 148 544 183 475 q 74 661 113 614 q -3 715 36 708 m 258 588 q 269 529 258 569 q 294 440 279 489 q 329 338 310 390 q 367 242 349 285 q 401 171 386 199 q 425 143 417 143 q 471 170 449 143 q 510 235 493 197 q 538 311 528 272 q 549 374 549 350 q 538 441 549 406 q 512 512 528 476 q 477 579 496 547 q 443 638 458 611 q 436 650 439 646 q 424 648 429 649 q 413 647 419 647 q 388 652 399 647 q 371 672 376 657 l 393 706 l 614 718 l 558 760 q 548 760 557 760 q 528 762 539 761 q 504 763 517 763 q 488 763 493 763 q 414 753 454 763 q 340 722 374 743 q 282 668 306 701 q 258 588 258 635 m 679 421 l 679 408 q 727 281 694 347 q 788 168 760 215 q 793 167 790 168 q 799 165 796 165 q 842 190 819 165 q 885 253 864 214 q 926 339 907 292 q 960 431 946 386 q 984 515 975 476 q 993 574 993 553 l 986 672 q 949 749 975 729 q 889 769 924 769 q 817 758 854 769 q 744 739 779 746 q 750 690 750 715 q 739 624 750 653 q 715 565 728 594 q 690 501 701 535 q 679 421 679 467 m 568 650 l 635 519 q 641 531 638 522 q 647 551 644 540 q 653 571 650 561 q 656 585 656 581 l 656 647 q 651 681 656 665 q 632 703 646 696 l 568 650 z "},"x":{"ha":790,"x_min":11,"x_max":782,"o":"m 518 21 q 539 8 524 17 q 561 0 554 0 l 782 -10 l 782 21 l 693 65 q 681 83 693 65 q 651 131 669 101 q 608 196 632 160 q 559 269 583 232 q 513 339 535 306 q 474 396 490 372 q 460 417 468 400 q 450 440 453 433 l 450 449 q 474 521 450 478 q 534 605 499 564 q 610 675 569 646 q 683 704 650 704 l 671 724 l 492 724 q 492 715 492 719 q 494 703 493 710 q 508 692 497 701 q 518 681 518 683 q 505 636 518 660 q 472 590 492 613 q 431 547 453 567 q 393 513 410 526 q 389 508 390 510 q 386 504 388 506 l 254 681 q 267 690 260 683 q 275 703 274 697 q 277 708 275 703 q 279 714 279 713 l 275 724 q 251 729 269 725 q 210 738 232 733 q 168 744 188 742 q 143 747 149 747 l 121 747 q 89 740 101 747 q 76 714 76 732 q 78 705 76 707 q 79 703 79 703 q 100 689 83 697 q 122 681 117 681 l 297 460 q 310 440 304 457 q 319 417 317 424 l 319 407 q 303 353 319 386 q 261 281 288 319 q 201 201 235 242 q 134 128 168 161 q 67 72 100 94 q 11 44 35 49 l 11 21 l 238 21 q 232 41 238 31 q 218 60 226 51 q 201 77 210 69 q 188 89 193 85 q 226 144 203 111 q 276 210 250 176 q 331 276 303 244 q 386 329 360 307 q 482 190 447 242 q 535 112 517 139 q 557 76 553 85 q 561 65 561 67 q 556 54 561 61 q 543 40 550 47 q 529 28 536 33 q 518 21 522 22 z "},"y":{"ha":842,"x_min":10,"x_max":829,"o":"m 389 94 q 376 46 389 67 q 363 0 363 25 l 546 0 q 538 71 546 35 q 521 144 531 107 q 503 220 511 182 q 496 296 496 258 q 510 444 496 385 q 548 540 525 503 q 601 599 571 578 q 662 634 631 621 q 724 658 693 647 q 777 684 754 668 q 815 726 800 700 q 829 799 829 753 q 707 769 757 799 q 616 699 657 740 q 537 610 575 657 q 450 529 499 564 q 383 616 417 575 q 308 687 349 657 q 220 735 268 717 q 111 753 172 753 l 96 753 q 60 752 81 753 q 35 749 40 751 q 21 739 28 746 q 11 728 14 732 q 10 723 11 728 q 10 717 10 718 l 11 704 q 222 638 146 693 q 335 498 299 582 q 381 309 372 414 q 389 94 389 204 z "},"z":{"ha":740,"x_min":14,"x_max":721,"o":"m 256 106 l 257 108 q 388 296 340 226 q 458 401 435 365 q 489 448 482 438 q 499 460 496 458 l 675 681 q 696 689 679 681 q 717 703 713 697 q 719 705 717 703 q 721 714 721 707 q 708 740 721 732 q 676 747 694 747 l 653 747 q 628 744 647 747 q 586 736 608 742 l 583 740 l 14 740 q 25 701 14 721 q 53 663 36 682 q 88 628 69 644 q 119 600 106 613 l 129 593 l 129 615 q 120 638 128 621 q 107 658 113 654 l 328 658 l 538 674 q 367 440 446 549 q 229 249 288 331 q 138 118 171 167 q 103 65 104 69 l 14 21 l 14 -10 l 721 22 q 710 47 721 32 q 682 78 699 63 q 647 110 665 94 q 615 139 629 126 l 606 147 l 606 124 q 615 103 607 119 q 628 81 622 86 l 407 81 l 235 69 q 244 86 238 75 q 256 106 251 97 z "},"{":{"ha":469,"x_min":22,"x_max":464,"o":"m 22 414 q 47 613 22 528 q 124 756 72 697 q 253 847 175 814 q 439 890 332 879 q 454 878 444 890 q 464 851 464 867 q 444 822 464 836 q 367 808 424 808 q 253 772 299 808 q 180 678 207 735 q 142 552 153 621 q 131 418 131 483 l 131 394 q 165 255 138 325 q 235 127 193 185 q 333 33 278 69 q 449 -3 388 -3 l 439 -54 q 263 -18 340 -54 q 131 81 185 18 q 50 230 78 144 q 22 414 22 315 z "},"|":{"ha":254,"x_min":53,"x_max":214,"o":"m 74 419 q 72 406 74 410 l 72 272 q 72 218 72 253 q 72 151 72 185 q 69 92 71 118 q 67 65 68 67 l 67 -181 l 85 -201 q 99 -201 89 -201 q 121 -200 110 -200 l 124 -200 q 137 -201 129 -200 q 156 -201 144 -201 l 178 -201 q 206 -197 197 -201 q 214 -172 214 -192 q 213 -166 214 -171 q 211 -161 211 -161 q 207 -142 210 -160 q 201 -100 204 -125 q 196 -46 199 -75 q 190 8 193 -17 q 183 49 186 32 q 179 65 181 65 l 179 944 q 181 965 181 951 q 186 988 181 981 q 188 992 186 988 q 189 999 189 997 l 186 1008 q 157 1023 175 1013 q 126 1033 139 1033 l 103 1033 q 75 1022 92 1026 q 54 1014 58 1017 q 53 1011 54 1014 q 53 1006 53 1008 l 74 419 z "},"}":{"ha":461,"x_min":-3,"x_max":439,"o":"m 439 422 q 338 81 439 194 q 22 -54 236 -32 q 7 -42 17 -54 q -3 -15 -3 -31 q 17 14 -3 0 q 94 28 38 28 q 208 65 163 28 q 281 158 254 101 q 319 284 308 215 q 331 418 331 353 l 331 442 q 296 581 324 510 q 226 709 268 651 q 128 803 183 767 q 13 839 74 839 l 22 890 q 199 854 121 890 q 330 755 276 818 q 411 606 383 692 q 439 422 439 521 z "},"~":{"ha":476,"x_min":25,"x_max":456,"o":"m 139 464 l 164 467 l 176 467 q 221 447 192 467 q 275 404 250 426 q 290 398 282 401 q 303 390 299 394 q 320 402 308 399 q 339 413 332 406 q 371 440 361 429 q 386 457 381 451 q 397 465 392 463 q 417 467 401 467 l 453 447 l 453 444 q 454 435 453 439 q 456 428 456 431 q 453 412 456 421 q 440 382 451 403 l 381 318 q 351 301 369 307 q 321 293 332 296 l 282 297 q 260 304 268 300 q 244 315 251 308 q 226 330 236 321 q 197 351 215 339 q 183 356 190 354 q 174 364 176 358 q 156 353 168 356 q 138 343 144 350 q 103 316 114 326 q 87 300 93 306 q 74 292 81 294 q 54 290 68 290 q 34 301 40 294 q 25 318 28 308 l 40 364 l 97 435 q 115 451 107 447 q 139 464 122 456 z "},"":{"ha":211,"x_min":0,"x_max":0,"o":""},"":{"ha":811,"x_min":7,"x_max":801,"o":"m 118 318 q 97 315 114 318 q 59 307 79 313 q 23 292 39 301 q 7 269 7 282 l 58 253 l 168 253 q 276 65 192 131 q 504 -1 361 -1 l 522 -1 q 599 0 560 -1 q 674 10 638 1 q 744 37 711 18 q 801 89 776 56 q 792 100 800 93 q 779 108 785 107 q 775 110 779 108 q 768 113 771 113 q 763 110 767 113 q 758 108 758 108 q 715 89 735 100 q 674 68 694 78 q 631 51 653 58 q 583 44 610 44 q 477 59 528 44 q 385 101 426 74 q 313 168 343 128 q 265 258 282 208 l 421 264 q 425 263 422 263 q 429 264 428 263 q 458 270 439 267 q 495 278 476 274 q 530 290 514 283 q 551 307 546 297 l 531 328 q 516 329 529 328 q 488 331 503 331 l 251 322 l 251 349 q 253 383 251 365 q 258 418 254 400 l 426 424 q 431 422 428 422 q 435 424 433 422 q 463 430 444 426 q 501 438 482 433 q 535 450 519 443 q 557 467 551 457 l 536 488 q 522 489 535 488 q 493 490 508 490 l 281 483 q 320 551 297 519 q 373 608 343 583 q 438 646 403 632 q 513 660 472 660 q 560 658 540 660 q 597 647 579 656 q 631 619 614 638 q 671 571 649 601 q 691 590 686 574 q 696 622 696 606 q 695 638 696 632 q 694 647 694 644 q 695 657 694 650 q 696 674 696 664 q 691 707 696 690 q 671 728 686 724 l 572 728 q 324 666 428 728 q 181 479 219 604 l 124 479 q 102 476 119 479 q 65 467 85 472 q 28 451 44 461 q 13 429 13 442 l 64 413 l 165 413 q 161 344 161 383 l 161 319 l 118 318 z "},"":{"ha":190,"x_min":4,"x_max":178,"o":"m 29 29 l 58 92 l 67 100 q 113 144 89 124 q 172 165 136 165 q 178 129 178 149 q 168 78 178 104 q 142 21 158 53 q 68 -45 99 -25 q 4 -72 38 -65 l 29 29 z "},"":{"ha":1085,"x_min":28,"x_max":1057,"o":"m 1057 519 l 1015 532 l 1007 379 l 1036 374 l 1057 519 m 1040 311 l 1015 324 l 990 304 l 1013 281 l 1040 311 m 965 322 l 965 521 l 936 532 l 928 393 l 828 519 l 832 321 l 858 324 l 858 422 q 965 322 925 322 m 801 324 l 797 474 q 753 536 785 536 q 728 531 733 536 q 656 332 667 432 l 692 332 q 736 379 714 379 q 778 332 760 379 l 801 324 m 636 532 l 603 524 l 585 321 l 628 335 l 636 532 m 553 317 l 553 514 l 521 524 l 515 385 l 414 514 l 417 311 l 444 318 l 444 413 q 553 317 508 317 m 394 456 q 321 522 379 522 l 311 522 q 311 522 313 522 q 303 521 310 521 q 238 346 238 476 q 297 313 247 313 q 326 317 310 313 q 394 456 378 317 m 225 529 q 96 411 96 506 l 96 400 q 97 385 96 386 q 165 297 114 297 q 181 300 172 297 q 203 306 190 303 l 200 340 q 165 335 190 335 q 128 375 128 335 q 154 456 128 417 q 203 485 179 485 q 212 484 210 485 q 221 481 214 483 l 225 529 m 78 524 l 46 517 l 28 311 l 68 326 l 78 524 m 767 422 l 711 422 l 746 490 l 767 422 m 361 428 q 346 368 361 396 q 300 350 315 350 q 271 399 271 350 l 271 413 q 322 476 293 476 q 356 450 346 476 q 361 428 361 444 z "},"":{"ha":336,"x_min":7,"x_max":324,"o":"m 175 29 l 204 92 l 213 100 q 258 144 235 124 q 318 165 282 165 q 324 129 324 149 q 314 78 324 104 q 288 21 304 53 q 214 -45 244 -25 q 150 -72 183 -65 l 175 29 m 32 28 l 61 90 l 69 99 q 115 143 92 122 q 175 164 139 164 q 181 128 181 147 q 171 77 181 103 q 144 19 161 51 q 71 -47 101 -26 q 7 -74 40 -67 l 32 28 z "},"":{"ha":650,"x_min":13,"x_max":626,"o":"m 478 36 q 474 51 475 43 q 472 69 472 58 q 478 110 472 89 q 494 143 483 132 q 521 158 506 154 q 556 163 536 163 q 615 140 603 151 q 626 118 626 129 l 625 106 q 604 29 625 58 q 539 0 583 0 l 526 0 l 478 36 m 247 36 q 243 51 244 43 q 242 69 242 58 q 247 110 242 89 q 264 143 253 132 q 290 158 275 154 q 325 163 306 163 q 384 140 372 151 q 396 118 396 129 l 394 106 q 374 29 394 58 q 308 0 353 0 l 296 0 l 247 36 m 18 36 q 14 51 15 43 q 13 69 13 58 q 18 110 13 89 q 35 143 24 132 q 61 158 46 154 q 96 163 76 163 q 155 140 143 151 q 167 118 167 129 l 165 106 q 144 29 165 58 q 79 0 124 0 l 67 0 l 18 36 z "},"":{"ha":425,"x_min":18,"x_max":415,"o":"m 93 514 q 77 512 89 514 q 52 505 65 510 q 28 491 39 500 q 18 469 18 482 l 69 453 l 161 453 l 163 411 q 161 397 163 401 l 161 264 q 158 212 161 244 q 151 147 156 179 q 143 91 147 115 q 138 65 139 67 l 119 15 l 143 -6 q 158 -5 147 -6 q 179 -4 168 -4 l 182 -4 q 195 -5 188 -4 q 214 -6 203 -6 l 236 -6 q 264 -1 256 -6 q 272 24 272 4 q 271 30 272 25 q 269 35 269 35 q 260 52 264 39 q 250 65 257 65 l 250 453 l 285 453 q 289 451 286 451 q 293 453 292 451 q 322 459 303 456 q 359 467 340 463 q 394 479 378 472 q 415 496 410 486 l 394 517 q 380 518 393 517 q 351 519 367 519 l 250 519 l 250 658 q 258 680 257 665 q 264 701 258 694 q 265 706 264 701 q 267 713 267 711 l 264 722 q 235 737 253 726 q 204 747 217 747 l 181 747 q 153 735 169 740 q 132 728 136 731 q 131 725 132 728 q 131 719 131 722 q 139 620 131 672 q 154 515 147 568 l 93 514 z "},"":{"ha":425,"x_min":13,"x_max":415,"o":"m 93 514 q 77 512 89 514 q 52 505 65 510 q 28 491 39 500 q 18 469 18 482 l 69 453 l 161 453 l 163 411 q 161 397 163 401 l 161 283 l 88 283 q 72 281 83 283 q 47 273 60 278 q 23 259 33 268 q 13 238 13 250 l 64 221 l 158 221 q 154 170 157 197 q 148 120 151 143 q 142 82 144 97 q 138 65 139 67 l 119 15 l 143 -6 q 158 -5 147 -6 q 179 -4 168 -4 l 182 -4 q 195 -5 188 -4 q 214 -6 203 -6 l 236 -6 q 264 -1 256 -6 q 272 24 272 4 q 271 30 272 25 q 269 35 269 35 q 260 52 264 39 q 250 65 257 65 l 250 221 l 279 221 q 283 219 281 219 q 288 221 286 219 q 316 227 297 224 q 353 235 335 231 q 388 247 372 240 q 410 264 404 254 l 389 285 q 374 286 388 285 q 346 288 361 288 l 250 288 l 250 453 l 285 453 q 289 451 286 451 q 293 453 292 451 q 322 459 303 456 q 359 467 340 463 q 394 479 378 472 q 415 496 410 486 l 394 517 q 380 518 393 517 q 351 519 367 519 l 250 519 l 250 658 q 258 680 257 665 q 264 701 258 694 q 265 706 264 701 q 267 713 267 711 l 264 722 q 235 737 253 726 q 204 747 217 747 l 181 747 q 153 735 169 740 q 132 728 136 731 q 131 725 132 728 q 131 719 131 722 q 139 620 131 672 q 154 515 147 568 l 93 514 z "},"":{"ha":328,"x_min":11,"x_max":311,"o":"m 283 856 l 311 871 l 296 936 l 253 1003 q 208 1026 221 1024 q 182 1032 194 1029 l 182 1035 l 160 1038 q 126 1029 140 1038 q 93 1010 113 1021 l 67 993 l 26 939 l 11 874 l 39 858 q 60 861 54 858 q 73 871 67 864 q 90 889 79 878 q 124 917 100 900 q 142 926 131 924 q 160 938 154 929 q 180 925 167 929 q 201 914 193 921 q 236 885 226 897 q 251 867 246 874 q 263 858 257 861 q 283 856 268 856 z "},"":{"ha":1131,"x_min":13,"x_max":1113,"o":"m 121 89 q 317 344 242 236 q 437 523 393 453 q 497 626 481 593 q 515 658 513 660 l 492 703 q 501 717 492 710 q 515 724 510 724 l 713 724 q 684 697 701 707 q 647 681 667 688 l 229 89 q 252 67 236 82 q 274 44 268 51 q 275 40 274 44 q 276 33 276 35 q 266 13 276 21 q 240 1 256 6 q 207 -4 225 -3 q 174 -6 189 -6 q 155 -5 163 -6 q 142 -4 147 -4 l 139 -4 q 124 -3 133 -4 q 104 -2 114 -3 q 86 -1 94 -1 q 76 0 78 0 l 53 21 l 121 89 m 318 400 l 319 400 q 269 376 293 385 q 215 367 244 367 q 136 380 174 367 q 72 418 99 393 q 28 479 44 443 q 13 560 13 515 q 67 693 13 644 q 206 742 122 742 l 211 742 q 278 708 247 725 q 330 668 308 690 q 364 616 351 646 q 376 546 376 586 q 375 538 376 539 l 375 508 q 369 483 375 500 q 355 450 364 467 q 336 419 346 433 q 318 400 326 404 m 310 549 q 304 599 310 574 q 286 643 299 624 q 254 674 274 663 q 206 686 235 686 q 156 675 179 686 q 116 645 133 664 q 89 601 99 626 q 79 549 79 576 q 87 498 79 522 q 109 454 94 474 q 144 423 124 435 q 193 411 165 411 q 240 424 218 411 q 277 456 261 436 q 301 499 293 475 q 310 549 310 524 m 678 14 l 679 14 q 628 -10 653 -1 q 575 -19 604 -19 q 496 -6 533 -19 q 431 32 458 7 q 388 93 404 57 q 372 174 372 129 q 427 307 372 258 q 565 356 482 356 l 571 356 q 638 322 607 339 q 690 282 668 304 q 724 230 711 260 q 736 160 736 200 q 735 151 736 153 l 735 122 q 729 97 735 114 q 715 64 724 81 q 696 33 706 47 q 678 14 686 18 m 669 163 q 664 213 669 188 q 646 257 658 238 q 614 288 633 276 q 565 300 594 300 q 516 289 539 300 q 476 259 493 278 q 449 215 458 240 q 439 163 439 190 q 447 112 439 136 q 469 68 454 88 q 504 37 483 49 q 553 25 525 25 q 599 38 578 25 q 637 69 621 50 q 661 113 653 89 q 669 163 669 138 m 1054 13 l 1056 13 q 1005 -12 1029 -3 q 951 -21 981 -21 q 872 -8 910 -21 q 808 31 835 6 q 765 92 781 56 q 749 172 749 128 q 803 306 749 257 q 942 354 858 354 l 947 354 q 1014 320 983 338 q 1066 281 1044 303 q 1100 228 1088 258 q 1113 158 1113 199 q 1111 150 1113 151 l 1111 121 q 1106 96 1111 113 q 1091 63 1100 79 q 1072 31 1082 46 q 1054 13 1063 17 m 1046 161 q 1040 211 1046 186 q 1022 256 1035 236 q 990 287 1010 275 q 942 299 971 299 q 892 288 915 299 q 852 258 869 276 q 825 214 835 239 q 815 161 815 189 q 823 110 815 135 q 845 67 831 86 q 881 35 860 47 q 929 24 901 24 q 976 36 954 24 q 1013 68 997 49 q 1038 112 1029 88 q 1046 161 1046 136 z "},"":{"ha":617,"x_min":17,"x_max":601,"o":"m 17 40 q 17 31 17 38 q 18 25 18 25 q 67 1 38 6 q 128 -3 97 -3 q 170 -2 151 -3 q 204 -1 189 -1 q 342 10 271 -1 q 470 51 413 21 q 565 133 528 81 q 601 268 601 185 q 578 383 601 336 q 518 463 554 429 q 440 522 482 497 q 363 572 399 547 q 303 626 326 597 q 279 699 279 656 q 292 747 279 725 q 324 785 304 769 q 368 810 343 801 q 417 819 393 819 q 432 818 424 819 q 440 817 440 817 l 544 739 q 551 737 544 739 q 560 735 557 735 l 574 739 q 581 760 576 746 q 588 791 585 775 q 594 822 592 807 q 599 843 597 836 l 601 881 l 458 881 q 347 872 401 881 q 248 838 292 863 q 177 772 204 814 q 150 664 150 729 q 174 580 150 614 q 233 519 197 546 q 310 467 268 492 q 387 414 351 443 q 446 346 422 385 q 469 251 469 307 q 433 123 469 171 q 310 75 397 75 q 269 80 286 75 q 235 91 251 85 q 201 103 218 97 q 161 108 183 108 q 122 106 139 108 q 90 97 106 103 q 57 80 74 90 q 18 53 40 69 l 17 40 m 235 1140 l 207 1125 l 222 1060 l 265 993 q 310 969 297 972 q 336 964 324 967 l 336 961 l 358 958 q 392 967 378 958 q 425 986 406 975 l 451 1003 l 492 1057 l 507 1122 l 479 1138 q 458 1135 464 1138 q 445 1125 451 1132 q 428 1107 439 1118 q 394 1079 418 1096 q 376 1069 388 1072 q 358 1058 364 1067 q 338 1071 351 1067 q 317 1082 325 1075 q 282 1110 292 1099 q 267 1128 272 1122 q 256 1138 261 1135 q 235 1140 250 1140 z "},"":{"ha":214,"x_min":17,"x_max":199,"o":"m 199 514 l 183 542 l 118 526 l 51 483 q 28 438 31 451 q 22 413 25 425 l 19 413 l 17 390 q 25 357 17 371 q 44 324 33 343 l 61 297 l 115 257 l 181 242 l 196 269 q 193 291 196 285 q 183 303 190 297 q 165 320 176 310 q 138 354 154 331 q 128 373 131 361 q 117 390 125 385 q 129 410 125 397 q 140 432 133 424 q 169 467 157 457 q 187 482 181 476 q 196 493 193 488 q 199 514 199 499 z "},"":{"ha":1269,"x_min":15,"x_max":1264,"o":"m 15 413 q 121 105 15 213 q 426 -3 226 -3 l 449 -3 q 561 0 504 -3 q 669 22 618 3 q 782 15 714 19 q 919 8 850 11 q 1045 2 988 4 q 1128 0 1103 0 l 1143 0 q 1187 24 1165 0 q 1226 79 1208 47 q 1253 144 1243 111 q 1264 199 1264 178 q 1217 190 1240 199 q 1173 169 1194 182 q 1133 139 1151 156 q 1100 107 1114 122 l 782 108 q 780 111 781 110 q 776 115 779 113 l 776 424 l 994 422 l 994 368 l 1022 368 q 1036 386 1022 368 q 1067 429 1050 404 q 1102 481 1085 454 q 1128 528 1119 508 q 1129 540 1128 531 q 1131 551 1131 549 q 1129 568 1131 558 q 1128 581 1128 578 l 1047 528 l 783 528 l 783 790 l 1075 790 l 1047 739 q 1059 734 1050 736 q 1075 732 1068 732 q 1120 749 1100 732 q 1156 792 1140 767 q 1185 847 1172 818 q 1206 897 1197 875 l 1181 897 q 1119 896 1160 897 q 1025 892 1078 894 q 915 885 972 889 q 803 878 857 882 q 704 872 749 875 q 635 868 660 869 l 626 872 l 508 872 q 310 843 400 872 q 154 756 219 814 q 52 613 89 699 q 15 413 15 526 m 521 61 q 374 83 443 61 q 253 148 306 106 q 166 252 200 190 q 124 393 132 314 l 124 417 q 147 549 124 482 q 211 669 169 615 q 310 756 253 722 q 436 790 367 790 q 493 788 469 790 q 538 774 517 785 q 578 742 558 764 q 626 683 599 721 q 644 692 638 685 q 653 708 650 699 l 653 93 q 590 70 622 79 q 521 61 558 61 z "},"":{"ha":868,"x_min":7,"x_max":856,"o":"m 299 131 q 456 356 399 272 q 541 482 513 439 q 578 538 569 525 q 589 551 586 550 l 800 817 q 825 826 806 817 q 850 843 844 836 q 853 847 850 843 q 856 857 856 850 q 840 888 856 878 q 801 897 824 897 l 774 897 q 744 894 767 897 q 693 883 721 890 l 690 889 l 7 889 q 19 844 7 867 q 51 799 32 821 q 91 757 69 776 q 129 724 113 738 l 146 711 l 146 739 q 141 750 144 743 q 134 765 138 757 q 126 781 131 774 q 118 790 122 788 l 383 790 l 635 808 q 429 528 524 658 q 265 299 335 397 q 155 142 194 200 q 114 78 115 83 l 7 25 l 7 -11 l 856 26 q 843 54 856 38 q 813 89 831 71 q 775 126 796 107 q 738 160 754 144 l 717 176 l 717 149 q 719 139 717 146 q 726 124 722 132 q 735 108 731 115 q 743 97 739 101 l 479 97 l 272 83 q 283 103 275 90 q 297 126 292 117 l 299 131 m 315 1146 l 288 1131 l 303 1065 l 346 999 q 391 975 378 978 q 417 969 404 972 l 417 967 l 439 964 q 472 972 458 964 q 506 992 486 981 l 532 1008 l 572 1063 l 588 1128 l 560 1143 q 538 1140 544 1143 q 526 1131 532 1138 q 509 1113 519 1124 q 475 1085 499 1101 q 456 1075 468 1078 q 439 1064 444 1072 q 419 1076 432 1072 q 397 1088 406 1081 q 363 1116 372 1104 q 347 1134 353 1128 q 336 1143 342 1140 q 315 1146 331 1146 z "},"":{"ha":172,"x_min":28,"x_max":139,"o":"m 28 643 l 32 711 l 44 739 q 69 788 56 765 q 110 822 82 811 q 121 807 117 815 q 129 792 125 799 q 139 729 139 764 q 138 706 139 718 q 136 678 138 693 q 92 589 113 619 q 44 539 72 558 l 28 643 z "},"":{"ha":172,"x_min":28,"x_max":139,"o":"m 28 643 l 32 711 l 44 739 q 69 788 56 765 q 110 822 82 811 q 121 807 117 815 q 129 792 125 799 q 139 729 139 764 q 138 706 139 718 q 136 678 138 693 q 92 589 113 619 q 44 539 72 558 l 28 643 z "},"":{"ha":300,"x_min":25,"x_max":267,"o":"m 156 643 l 160 711 l 172 739 q 197 788 183 765 q 238 822 210 811 q 249 807 244 815 q 257 792 253 799 q 267 729 267 764 q 266 706 267 718 q 264 678 265 693 q 220 589 240 619 q 172 539 200 558 l 156 643 m 25 643 l 29 711 l 42 739 q 66 788 53 765 q 107 822 79 811 q 118 807 114 815 q 126 792 122 799 q 136 729 136 764 q 135 706 136 718 q 133 678 135 693 q 90 589 110 619 q 42 539 69 558 l 25 643 z "},"":{"ha":300,"x_min":25,"x_max":267,"o":"m 156 643 l 160 711 l 172 739 q 197 788 183 765 q 238 822 210 811 q 249 807 244 815 q 257 792 253 799 q 267 729 267 764 q 266 706 267 718 q 264 678 265 693 q 220 589 240 619 q 172 539 200 558 l 156 643 m 25 643 l 29 711 l 42 739 q 66 788 53 765 q 107 822 79 811 q 118 807 114 815 q 126 792 122 799 q 136 729 136 764 q 135 706 136 718 q 133 678 135 693 q 90 589 110 619 q 42 539 69 558 l 25 643 z "},"":{"ha":547,"x_min":21,"x_max":526,"o":"m 21 361 q 40 263 21 308 q 93 183 58 217 q 174 131 128 150 q 278 113 221 113 q 460 181 394 113 q 526 363 526 249 q 506 474 526 424 q 449 560 485 524 q 362 615 413 596 q 253 635 311 635 q 144 613 188 635 q 72 555 100 592 q 33 468 44 518 q 21 361 21 418 z "},"":{"ha":363,"x_min":32,"x_max":343,"o":"m 83 354 l 32 371 q 42 392 32 383 q 66 406 53 401 q 91 413 79 411 q 107 415 103 415 q 128 417 110 415 q 168 418 147 418 q 202 420 193 418 q 226 422 211 422 q 249 421 233 422 q 279 419 265 419 q 308 418 294 419 q 322 417 321 417 l 343 396 q 328 378 338 386 q 306 365 318 371 q 281 356 293 360 q 258 350 268 353 q 250 347 253 347 l 83 354 z "},"":{"ha":439,"x_min":22,"x_max":419,"o":"m 97 411 q 81 409 93 411 q 56 402 69 407 q 33 388 43 397 q 22 367 22 379 l 74 350 l 289 350 q 293 349 290 349 q 297 350 296 349 q 326 356 307 353 q 363 365 344 360 q 398 376 382 369 q 419 393 414 383 l 399 414 q 384 415 397 414 q 356 417 371 417 l 97 411 z "},"":{"ha":482,"x_min":26,"x_max":457,"o":"m 140 1032 l 165 1035 l 178 1035 q 222 1015 193 1035 q 276 972 251 994 q 292 966 283 969 q 304 958 300 963 q 322 970 310 967 q 340 981 333 974 q 372 1008 363 997 q 388 1025 382 1019 q 398 1033 393 1031 q 418 1035 403 1035 l 454 1015 l 454 1013 q 456 1003 454 1007 q 457 996 457 999 q 455 980 457 989 q 442 950 453 971 l 382 886 q 352 869 371 875 q 322 861 333 864 l 283 865 q 261 872 269 868 q 245 883 253 876 q 227 898 238 889 q 199 919 217 907 q 185 924 192 922 q 175 932 178 926 q 158 921 169 924 q 139 911 146 918 q 105 884 115 894 q 88 868 94 874 q 76 860 82 863 q 56 858 69 858 q 35 869 42 863 q 26 886 29 876 l 42 932 l 99 1003 q 116 1019 108 1015 q 140 1032 124 1024 z "},"":{"ha":824,"x_min":24,"x_max":800,"o":"m 158 633 l 133 610 l 260 610 q 254 620 260 615 q 242 627 249 625 q 228 631 235 629 q 221 632 222 632 l 221 928 l 299 928 l 299 903 q 318 910 310 903 q 333 928 326 918 q 342 951 339 939 q 344 971 344 963 l 67 971 q 52 963 60 971 q 38 945 44 956 q 28 924 32 935 q 24 906 24 913 q 28 899 24 903 q 35 894 32 894 q 74 919 63 914 q 103 925 86 925 l 158 925 l 158 633 m 336 617 q 347 608 339 610 q 363 606 354 606 l 388 606 q 417 607 404 606 q 447 617 431 608 q 432 632 440 628 q 414 639 424 636 q 418 678 415 650 q 424 739 421 707 q 431 799 428 771 q 436 836 433 826 q 440 864 436 843 q 447 892 444 885 l 458 881 q 466 852 460 872 q 479 809 472 832 q 492 766 486 786 q 501 739 499 746 q 509 722 503 735 q 523 694 515 708 q 537 667 531 679 q 546 651 543 654 q 552 632 551 639 q 555 621 553 625 q 561 615 557 617 q 578 614 565 614 q 590 615 582 614 q 600 617 597 617 q 639 760 615 688 q 700 892 663 832 q 710 832 706 857 q 717 785 715 807 q 721 740 719 763 q 722 689 722 718 l 722 639 l 710 617 q 718 608 710 610 q 736 606 726 606 l 760 606 q 786 608 772 606 q 800 624 800 611 l 799 629 q 793 635 796 632 q 788 639 790 638 q 754 936 760 788 q 783 952 774 944 q 792 981 792 960 l 788 981 q 758 980 775 981 q 726 975 742 979 q 697 962 710 971 q 678 936 683 953 l 590 706 l 578 706 q 568 722 578 706 q 556 749 558 739 l 513 881 q 502 899 511 883 q 483 935 493 915 q 466 971 474 954 q 458 990 458 988 q 435 981 449 985 q 408 973 421 978 q 384 961 394 968 q 371 942 374 954 l 413 942 q 413 938 413 942 q 414 928 414 933 l 414 925 q 407 869 411 908 q 397 787 403 831 q 387 705 392 743 q 381 651 382 667 q 360 634 372 639 q 336 617 347 629 z "},"":{"ha":522,"x_min":14,"x_max":501,"o":"m 14 33 q 15 26 14 31 q 15 21 15 21 q 57 1 32 6 q 107 -3 82 -3 q 142 -2 126 -3 q 171 -1 157 -1 q 285 8 226 -1 q 392 42 344 17 q 471 110 440 67 q 501 224 501 154 q 481 318 501 279 q 432 385 461 357 q 367 435 403 414 q 303 476 332 456 q 253 522 274 497 q 233 582 233 547 q 244 623 233 604 q 271 655 254 642 q 308 676 288 668 q 347 683 328 683 q 360 682 354 683 q 367 681 367 681 l 454 615 q 459 614 454 615 q 467 613 464 613 l 478 615 q 484 633 481 621 q 491 658 488 644 q 497 685 494 672 q 499 703 499 697 l 501 733 l 382 733 q 289 726 335 733 q 206 698 243 718 q 147 642 169 678 q 125 553 125 607 q 144 483 125 511 q 194 432 164 454 q 258 390 224 410 q 323 345 293 369 q 372 289 353 321 q 392 210 392 257 q 360 103 392 143 q 258 63 329 63 q 224 67 239 63 q 196 76 210 71 q 167 86 182 82 q 135 90 153 90 q 101 88 115 90 q 75 81 88 86 q 48 67 63 75 q 15 44 33 58 l 14 33 m 182 1029 l 154 1014 l 169 949 l 213 882 q 258 858 244 861 q 283 853 271 856 l 283 850 l 306 847 q 339 856 325 847 q 372 875 353 864 l 399 892 l 439 946 l 454 1011 l 426 1026 q 405 1024 411 1026 q 392 1014 399 1021 q 376 996 386 1007 q 342 968 365 985 q 323 958 335 961 q 306 947 311 956 q 285 960 299 956 q 264 971 272 964 q 229 999 239 988 q 214 1017 219 1011 q 203 1026 208 1024 q 182 1029 197 1029 z "},"":{"ha":214,"x_min":15,"x_max":197,"o":"m 15 514 l 31 542 l 96 526 l 163 483 q 186 438 183 451 q 192 413 189 425 l 194 413 l 197 390 q 189 357 197 371 q 169 324 181 343 l 153 297 l 99 257 l 33 242 l 18 269 q 21 291 18 285 q 31 303 24 297 q 49 320 38 310 q 76 354 60 331 q 86 373 83 361 q 97 390 89 385 q 85 410 89 397 q 74 432 81 424 q 45 467 57 457 q 27 482 33 476 q 18 493 21 488 q 15 514 15 499 z "},"":{"ha":1079,"x_min":18,"x_max":1061,"o":"m 18 346 q 106 90 18 179 q 361 0 194 0 l 379 0 q 469 2 424 0 q 556 18 515 4 q 649 13 590 15 q 766 7 707 10 q 876 2 825 4 q 949 0 928 0 l 961 0 q 997 19 979 0 q 1029 66 1015 39 q 1052 121 1043 93 q 1061 165 1061 149 q 985 140 1022 165 q 925 89 949 115 l 685 89 l 685 351 l 838 351 l 838 307 l 860 307 q 872 322 860 307 q 898 358 883 338 q 927 402 913 379 q 949 440 942 425 q 949 449 949 442 q 950 460 950 457 q 949 474 950 467 q 949 483 949 481 l 881 440 l 661 440 l 661 658 l 904 658 l 881 615 q 904 610 888 610 q 942 624 925 610 q 972 660 958 639 q 995 706 985 682 q 1013 747 1006 729 l 992 747 q 940 746 975 747 q 862 742 906 744 q 769 738 818 740 q 676 733 721 736 q 595 728 632 731 q 538 724 558 725 q 533 727 535 726 q 528 729 531 728 l 429 729 q 264 705 339 729 q 134 633 189 681 q 49 513 79 585 q 18 346 18 442 m 440 57 q 318 75 375 57 q 217 127 261 93 q 144 213 172 161 q 108 331 115 264 l 108 350 q 128 460 108 404 q 182 560 147 515 q 265 633 217 604 q 369 661 313 661 q 424 660 397 661 q 477 651 451 658 q 528 627 503 644 q 575 579 553 610 l 553 83 q 500 65 526 72 q 440 57 474 57 z "},"":{"ha":740,"x_min":14,"x_max":721,"o":"m 257 108 q 388 296 340 226 q 458 401 435 365 q 489 447 482 436 q 499 460 496 458 l 675 681 q 696 689 679 681 q 717 703 713 697 q 719 705 717 703 q 721 714 721 707 q 708 740 721 732 q 676 747 694 747 l 653 747 q 628 744 647 747 q 586 736 608 742 l 583 740 l 14 740 q 25 701 14 721 q 53 663 36 682 q 88 628 69 644 q 119 600 106 613 l 129 593 l 129 615 q 120 638 128 621 q 107 658 113 654 l 328 658 l 538 674 q 367 440 446 549 q 231 249 289 331 q 138 118 172 167 q 103 65 104 69 l 14 21 l 14 -10 l 721 22 q 710 47 721 32 q 682 78 699 63 q 647 110 665 94 q 615 139 629 126 l 606 147 l 606 124 q 615 103 607 119 q 628 81 622 86 l 407 81 l 235 69 q 244 86 238 75 q 256 106 251 97 l 257 108 m 260 1031 l 232 1015 l 247 950 l 290 883 q 335 860 322 863 q 361 854 349 857 l 361 851 l 383 849 q 417 857 403 849 q 450 876 431 865 l 476 893 l 517 947 l 532 1013 l 504 1028 q 483 1025 489 1028 q 470 1015 476 1022 q 453 997 464 1008 q 419 969 443 986 q 401 960 413 963 q 383 949 389 957 q 363 961 376 957 q 342 972 350 965 q 307 1001 317 989 q 292 1019 297 1013 q 281 1028 286 1025 q 260 1031 275 1031 z "},"":{"ha":1007,"x_min":11,"x_max":994,"o":"m 467 114 q 463 287 467 201 q 446 451 460 372 q 403 597 432 529 q 324 717 374 665 q 198 803 274 769 q 14 844 122 836 l 11 860 q 13 867 11 861 q 14 874 14 874 q 26 888 17 879 q 42 899 35 896 q 58 901 46 900 q 85 902 71 901 q 114 903 100 903 q 133 903 128 903 q 263 881 206 903 q 369 824 321 860 q 459 739 418 788 q 540 635 500 690 q 644 733 599 678 q 740 839 690 789 q 849 924 789 889 q 994 958 908 958 q 977 872 994 903 q 932 821 960 840 q 868 789 904 801 q 794 760 832 776 q 721 719 757 744 q 657 649 685 694 q 612 533 629 604 q 594 356 594 463 q 604 265 594 310 q 625 175 614 219 q 646 87 636 131 q 656 0 656 43 l 435 0 q 440 28 435 15 q 451 55 444 42 q 462 83 457 68 q 467 114 467 97 m 561 1003 q 558 1016 560 1010 q 557 1032 557 1022 q 561 1067 557 1049 q 576 1096 565 1086 q 600 1109 586 1106 q 631 1113 614 1113 q 683 1094 671 1103 q 694 1076 694 1085 l 693 1063 q 674 997 693 1022 q 617 972 656 972 l 606 972 l 561 1003 m 344 1001 q 342 1015 343 1008 q 340 1031 340 1021 q 344 1066 340 1047 q 360 1094 349 1085 q 383 1108 369 1104 q 414 1111 397 1111 q 466 1092 454 1101 q 478 1075 478 1083 l 476 1061 q 458 996 476 1021 q 400 971 439 971 l 389 971 l 344 1001 z "},"":{"ha":190,"x_min":3,"x_max":175,"o":"m 157 460 l 115 529 l 113 529 q 99 530 107 529 q 81 531 92 531 q 33 517 44 531 q 21 488 21 503 q 26 460 21 472 l 21 88 q 13 67 14 81 q 6 47 11 54 q 4 42 6 47 q 3 36 3 38 l 6 26 q 22 20 11 25 q 45 10 33 15 q 68 2 57 6 q 86 -1 79 -1 l 110 -1 q 125 5 115 1 q 145 12 135 8 q 164 18 156 15 q 174 22 172 21 q 174 25 174 22 q 175 31 175 28 q 167 103 175 65 q 151 178 160 140 q 135 256 143 217 q 128 335 128 296 l 128 349 q 132 388 128 368 q 141 422 136 407 q 151 448 146 438 q 157 460 156 458 m 154 711 l 106 747 l 93 747 q 28 718 49 747 q 7 642 7 689 l 6 629 q 17 607 6 618 q 76 585 29 596 q 111 589 96 585 q 138 604 126 593 q 154 637 149 615 q 160 678 160 658 q 154 711 160 699 z "},"":{"ha":668,"x_min":18,"x_max":658,"o":"m 18 344 q 85 112 18 199 q 281 4 151 25 l 281 -189 l 292 -208 q 301 -208 294 -208 q 315 -207 308 -207 l 317 -207 q 324 -208 319 -207 q 336 -208 329 -208 l 351 -208 q 369 -204 364 -208 q 374 -181 374 -200 q 373 -174 374 -179 q 372 -169 372 -169 q 369 -150 371 -168 q 366 -107 368 -132 q 361 -53 364 -82 q 357 -1 358 -25 l 379 -1 q 456 0 417 -1 q 531 10 494 1 q 600 37 567 18 q 658 89 633 56 q 649 100 657 93 q 636 108 642 107 q 632 110 636 108 q 625 113 628 113 q 619 110 624 113 q 615 108 615 108 q 572 91 592 100 q 531 74 551 82 q 488 60 510 65 q 440 56 467 56 q 351 64 393 56 l 351 658 q 369 660 357 660 q 417 658 397 660 q 453 647 436 656 q 488 619 471 638 q 528 571 506 601 q 548 590 543 574 q 553 622 553 606 q 552 638 553 632 q 551 647 551 644 q 552 657 551 650 q 553 674 553 664 q 548 707 553 690 q 528 728 543 724 l 429 728 q 390 726 408 728 q 351 722 371 725 l 351 890 q 353 911 353 894 q 353 924 353 918 q 356 932 353 929 q 357 937 356 932 q 358 943 358 942 l 356 953 q 338 966 349 956 q 318 976 326 976 l 303 976 q 285 965 296 969 q 272 957 275 960 l 272 707 q 88 583 158 674 q 18 344 18 492 m 285 388 q 283 374 285 376 l 283 194 q 283 139 283 168 q 282 86 283 110 q 164 178 211 118 q 108 329 117 239 l 108 349 q 121 435 108 392 q 156 518 133 479 q 209 588 178 557 q 279 639 240 619 l 285 388 z "},"":{"ha":689,"x_min":4,"x_max":674,"o":"m 125 426 l 65 426 q 51 422 61 426 q 31 408 42 417 q 13 389 21 400 q 4 365 4 378 l 56 349 l 181 349 q 154 315 165 331 q 139 288 143 299 q 137 267 138 288 q 136 231 136 247 l 136 217 q 165 133 139 168 q 232 75 190 99 l 108 75 q 92 71 104 74 q 67 63 81 68 q 44 49 54 58 q 33 28 33 40 l 85 11 l 214 11 q 221 9 214 10 q 238 8 228 8 q 260 9 249 8 q 272 10 271 10 l 567 11 q 599 11 583 11 q 628 13 614 11 q 656 18 642 13 q 674 24 671 24 l 669 60 q 645 68 661 64 q 612 76 629 72 q 578 81 594 79 q 549 82 561 82 l 543 82 q 519 78 532 81 q 490 69 506 76 l 474 69 q 397 76 436 69 q 325 99 357 83 q 272 138 293 114 q 250 196 251 161 l 250 210 q 277 303 250 265 q 367 344 304 342 l 575 365 l 556 444 q 536 442 547 442 q 513 440 525 442 l 457 440 q 444 439 453 439 q 385 444 414 439 q 333 459 356 449 q 295 486 310 469 q 279 526 281 503 l 279 532 q 285 572 279 551 q 304 610 292 593 q 334 639 317 628 q 374 651 351 650 l 469 628 q 503 651 496 636 q 510 667 510 667 l 515 728 l 481 736 q 382 721 436 733 q 281 683 328 708 q 202 620 233 658 q 171 528 171 582 l 171 518 q 180 468 172 488 q 210 429 188 449 l 125 426 z "},"":{"ha":790,"x_min":11,"x_max":782,"o":"m 172 368 q 213 214 172 286 q 160 153 188 182 q 106 101 133 124 q 55 63 79 78 q 11 44 31 47 l 11 21 l 238 21 q 232 41 238 31 q 218 60 226 51 q 201 77 210 69 q 188 89 193 85 q 243 168 210 122 q 308 115 271 135 q 388 94 344 94 q 456 108 425 94 q 513 146 488 122 q 528 124 522 133 q 539 108 535 114 l 539 107 q 540 106 540 107 q 554 82 547 96 q 561 65 561 68 q 556 54 561 61 q 543 40 550 47 q 529 28 536 33 q 518 21 522 22 q 539 8 524 17 q 561 0 554 0 l 782 -10 l 782 21 l 693 65 q 683 81 693 65 q 657 121 674 96 q 619 178 640 146 q 576 244 599 211 q 593 306 588 274 q 599 369 599 338 q 576 486 599 432 q 515 578 554 540 q 558 625 535 603 q 604 665 581 647 q 651 692 628 682 q 693 703 674 703 l 671 724 l 492 724 q 492 715 492 719 q 494 703 493 710 q 508 692 497 701 q 518 681 518 683 q 508 643 518 663 q 483 604 499 624 q 365 642 431 642 q 326 638 344 642 q 293 628 308 635 l 254 681 q 267 690 260 683 q 275 703 274 697 q 277 708 275 703 q 279 714 279 713 l 275 724 q 251 729 269 725 q 210 738 232 733 q 168 744 188 742 q 143 747 149 747 l 121 747 q 89 740 101 747 q 76 714 76 732 q 78 705 76 707 q 79 703 79 703 q 100 689 83 697 q 122 681 117 681 l 217 560 q 183 471 193 521 q 172 368 172 421 m 228 367 q 235 437 228 403 q 258 498 242 471 q 302 541 275 525 q 369 557 329 557 q 436 542 406 557 q 490 502 467 528 q 526 442 513 476 q 539 369 539 408 q 528 299 539 333 q 497 237 517 264 q 448 194 476 210 q 383 178 419 178 q 320 194 349 178 q 271 238 292 211 q 239 299 250 265 q 228 367 228 333 z "},"":{"ha":842,"x_min":10,"x_max":829,"o":"m 218 439 q 202 437 214 439 q 177 430 190 435 q 153 416 164 425 q 143 394 143 407 l 194 378 l 371 378 q 383 282 379 332 l 213 282 q 197 278 208 281 q 172 270 185 275 q 148 256 158 265 q 138 235 138 247 l 189 218 l 386 218 l 386 132 q 388 113 388 122 q 389 94 389 104 q 376 46 389 67 q 363 0 363 25 l 546 0 q 529 110 546 53 q 501 225 513 167 l 510 225 q 576 229 542 226 q 640 235 611 232 q 690 244 669 239 q 715 256 711 249 l 694 276 q 672 277 694 276 q 617 279 649 278 q 551 282 585 281 q 496 283 518 283 l 496 296 q 500 382 496 342 l 525 382 q 592 383 557 382 q 656 385 626 383 q 704 391 685 388 q 728 401 724 394 l 707 422 q 685 424 707 422 q 632 430 663 426 q 568 436 601 433 q 510 442 535 439 q 556 551 525 513 q 622 612 586 590 q 694 645 657 633 q 760 674 731 657 q 810 718 790 690 q 829 799 829 746 q 707 769 757 799 q 616 699 657 740 q 537 610 575 657 q 450 529 499 564 q 383 616 417 575 q 308 687 349 657 q 220 735 268 717 q 111 753 172 753 l 96 753 q 60 752 81 753 q 35 749 40 751 q 21 739 28 746 q 11 728 14 732 q 10 723 11 728 q 10 717 10 718 l 11 704 q 148 676 90 697 q 247 619 206 654 q 314 540 288 585 q 356 442 340 494 l 218 439 z "},"":{"ha":254,"x_min":53,"x_max":214,"o":"m 74 419 q 72 406 74 410 l 72 272 q 72 218 72 253 q 72 151 72 185 q 69 92 71 118 q 67 65 68 67 l 67 -181 l 85 -201 q 99 -201 89 -201 q 121 -200 110 -200 l 124 -200 q 137 -201 129 -200 q 156 -201 144 -201 l 178 -201 q 206 -197 197 -201 q 214 -172 214 -192 q 213 -166 214 -171 q 211 -161 211 -161 q 207 -142 210 -160 q 201 -100 204 -125 q 196 -46 199 -75 q 190 8 193 -17 q 183 49 186 32 q 179 65 181 65 l 179 944 q 181 965 181 951 q 186 988 181 981 q 188 992 186 988 q 189 999 189 997 l 186 1008 q 157 1023 175 1013 q 126 1033 139 1033 l 103 1033 q 75 1022 92 1026 q 54 1014 58 1017 q 53 1011 54 1014 q 53 1006 53 1008 l 74 419 z "},"":{"ha":704,"x_min":11,"x_max":686,"o":"m 172 368 q 213 214 172 286 q 160 153 188 182 q 106 101 133 124 q 55 63 79 78 q 11 44 31 47 l 11 21 l 238 21 q 232 41 238 31 q 218 60 226 51 q 201 77 210 69 q 188 89 193 85 q 243 168 210 122 q 301 115 268 138 q 371 93 335 93 q 388 94 382 93 q 489 132 449 104 q 553 199 529 160 q 588 282 578 238 q 599 369 599 326 q 576 486 599 432 q 515 578 554 540 q 601 662 556 626 q 686 697 647 697 l 671 724 l 492 724 q 492 715 492 719 q 494 703 493 710 q 508 692 497 701 q 518 681 518 683 q 508 643 518 663 q 483 604 499 624 q 365 642 431 642 q 326 638 344 642 q 293 628 308 635 l 217 560 q 183 471 193 521 q 172 368 172 421 m 228 367 q 235 437 228 403 q 258 498 242 471 q 302 541 275 525 q 369 557 329 557 q 436 542 406 557 q 490 502 467 528 q 526 442 513 476 q 539 369 539 408 q 528 299 539 333 q 497 237 517 264 q 448 194 476 210 q 383 178 419 178 q 320 194 349 178 q 271 238 292 211 q 239 299 250 265 q 228 367 228 333 z "},"":{"ha":392,"x_min":18,"x_max":372,"o":"m 239 864 l 283 833 l 294 833 q 352 858 333 833 q 371 924 371 883 l 372 938 q 360 955 372 946 q 308 974 349 964 q 278 970 292 974 q 254 957 264 967 q 239 928 243 947 q 235 893 235 910 q 236 877 235 883 q 239 864 238 871 m 22 863 l 67 832 l 78 832 q 135 857 117 832 q 154 922 154 882 l 156 936 q 144 953 156 944 q 92 972 132 963 q 61 969 75 972 q 38 956 47 965 q 22 927 26 946 q 18 892 18 908 q 19 876 18 882 q 22 863 21 869 z "},"":{"ha":435,"x_min":32,"x_max":400,"o":"m 217 1040 q 307 1017 244 1040 q 347 985 331 1004 q 376 944 364 967 q 400 846 400 900 q 376 753 400 797 q 308 679 354 703 q 217 653 257 653 q 126 679 169 653 q 88 710 106 692 q 58 753 69 729 q 32 846 32 796 q 40 897 32 874 q 58 944 47 921 q 128 1017 81 994 q 217 1040 172 1040 m 217 1010 q 140 990 176 1010 q 83 929 104 969 q 69 887 74 907 q 64 846 64 867 q 83 768 64 822 q 140 708 100 732 q 217 689 176 689 q 293 708 257 689 q 349 768 322 725 q 364 807 358 788 q 369 846 369 826 q 364 887 369 867 q 349 929 358 907 q 292 988 329 969 q 217 1010 257 1010 m 276 817 l 307 808 q 217 738 286 738 q 147 765 172 738 q 121 846 121 793 q 147 928 121 900 q 218 957 174 957 q 301 896 285 957 l 274 889 q 218 929 253 929 q 154 846 154 929 q 214 768 154 768 q 276 817 264 768 z "},"":{"ha":457,"x_min":18,"x_max":425,"o":"m 261 771 q 244 828 258 800 q 211 881 229 857 q 187 827 197 856 q 175 771 176 799 l 261 771 m 286 604 q 313 621 308 613 q 317 639 317 629 q 312 663 317 647 q 301 692 307 678 q 288 716 294 706 q 275 726 281 726 l 149 717 l 150 717 q 140 708 144 715 q 132 690 135 700 q 127 668 129 679 q 125 649 125 657 q 129 635 125 639 q 139 628 133 631 q 163 613 151 621 q 145 602 157 610 q 131 594 133 594 l 18 590 l 18 615 q 25 619 22 619 q 51 631 32 622 q 72 647 69 639 q 82 671 75 654 q 96 707 89 688 q 108 738 103 722 q 121 768 114 754 l 119 767 q 125 782 122 774 q 131 801 128 790 q 147 854 138 825 q 167 908 156 883 q 196 951 179 933 q 233 968 213 968 l 260 939 l 260 940 q 267 924 260 940 q 285 883 274 908 q 309 826 296 858 q 336 763 322 794 q 361 704 350 732 q 382 656 372 676 l 381 656 q 382 653 381 654 q 388 647 383 651 q 400 635 392 643 q 425 611 408 626 q 403 587 425 592 q 361 582 381 582 l 342 582 q 331 583 338 582 q 318 583 324 583 l 307 583 l 286 604 z "},"":{"ha":400,"x_min":21,"x_max":385,"o":"m 385 514 l 369 542 l 304 526 l 238 483 q 214 438 217 451 q 208 413 211 425 l 206 413 l 203 390 q 211 357 203 371 q 231 324 219 343 l 247 297 l 301 257 l 367 242 l 382 269 q 379 291 382 285 q 369 303 376 297 q 351 320 363 310 q 324 354 340 331 q 314 373 317 361 q 303 390 311 385 q 315 410 311 397 q 326 432 319 424 q 355 467 343 457 q 373 482 367 476 q 382 493 379 488 q 385 514 385 499 m 203 514 l 188 542 l 122 526 l 56 483 q 32 438 35 451 q 26 413 29 425 l 24 413 l 21 390 q 29 357 21 371 q 49 324 38 343 l 65 297 l 119 257 l 185 242 l 200 269 q 197 291 200 285 q 188 303 194 297 q 169 320 181 310 q 142 354 158 331 q 132 373 135 361 q 121 390 129 385 q 133 410 129 397 q 144 432 138 424 q 173 467 161 457 q 191 482 185 476 q 200 493 197 488 q 203 514 203 499 z "},"":{"ha":439,"x_min":22,"x_max":421,"o":"m 399 414 l 419 393 l 421 351 q 419 328 421 344 q 418 299 418 313 q 417 270 418 283 q 415 256 415 257 l 394 235 q 377 249 385 239 q 364 272 369 260 q 355 297 358 285 q 349 319 351 310 q 346 328 346 328 l 347 354 l 74 354 l 22 367 q 33 388 22 379 q 56 402 43 397 q 81 409 69 407 q 97 411 93 411 l 399 414 z "},"":{"ha":290,"x_min":29,"x_max":271,"o":"m 81 353 l 178 347 q 186 350 178 347 l 190 351 q 235 367 211 358 q 271 396 260 376 l 250 417 q 238 417 244 417 q 222 418 231 418 q 185 417 206 418 q 148 416 165 417 q 118 415 131 415 q 104 414 106 414 q 88 412 100 414 q 63 405 76 410 q 40 391 50 400 q 29 369 29 382 l 81 353 z "},"":{"ha":436,"x_min":32,"x_max":401,"o":"m 217 1040 q 306 1017 261 1040 q 375 944 351 993 q 401 846 401 897 q 375 753 401 796 q 347 711 364 728 q 307 679 331 694 q 217 653 256 653 q 125 679 168 653 q 88 711 104 694 q 56 753 71 728 q 32 846 32 797 q 38 897 32 874 q 56 944 44 921 q 85 985 68 967 q 126 1017 103 1004 q 217 1040 171 1040 m 217 1010 q 141 990 178 1010 q 83 929 104 969 q 69 887 74 907 q 64 846 64 867 q 83 768 64 822 q 106 737 92 753 q 139 708 119 721 q 217 686 182 686 q 293 708 254 686 q 325 733 311 718 q 350 768 339 749 q 369 846 369 822 q 365 887 369 867 q 350 929 360 907 q 326 961 339 946 q 290 988 314 976 q 217 1010 260 1010 m 138 740 l 138 949 l 204 949 q 234 948 222 949 q 256 943 246 947 q 269 933 264 939 q 278 924 275 928 q 289 893 289 908 q 274 853 289 869 q 232 835 258 836 q 255 816 247 828 q 278 782 263 804 l 304 740 l 263 740 l 246 774 q 226 808 235 796 q 211 822 217 819 q 188 828 206 828 l 168 828 l 168 740 l 138 740 m 168 857 l 206 857 q 245 865 235 857 q 256 889 256 872 q 238 918 256 913 q 204 919 236 919 l 168 919 l 168 857 z "},"":{"ha":385,"x_min":-7,"x_max":389,"o":"m 44 824 l 238 818 q 246 821 238 818 q 277 828 256 824 q 322 838 299 832 q 364 851 344 843 q 389 868 383 858 l 368 889 q 353 890 367 889 q 325 892 340 892 l 301 892 q 266 892 285 892 q 232 893 247 893 l 214 893 q 190 891 199 893 q 156 889 181 889 q 130 888 144 889 q 102 887 115 888 q 79 885 89 886 q 68 885 69 885 q 52 883 64 885 q 27 876 40 881 q 3 862 14 871 q -7 840 -7 853 l 44 824 z "},"":{"ha":175,"x_min":18,"x_max":156,"o":"m 22 863 l 67 832 l 78 832 q 135 857 117 832 q 154 922 154 882 l 156 936 q 144 953 156 944 q 92 972 132 963 q 61 969 75 972 q 38 956 47 965 q 22 927 26 946 q 18 892 18 908 q 19 876 18 882 q 22 863 21 869 z "},"":{"ha":439,"x_min":24,"x_max":421,"o":"m 194 453 q 165 451 182 453 q 134 449 149 450 q 109 447 119 447 q 99 446 99 446 q 83 444 94 446 q 58 437 71 442 q 34 423 44 432 q 24 401 24 414 l 75 385 l 192 383 l 190 357 q 193 349 190 357 q 199 326 196 339 q 208 301 203 314 q 222 278 214 289 q 239 264 229 268 l 260 285 q 261 299 260 286 q 263 328 263 313 q 264 358 263 342 q 265 381 265 374 l 265 382 l 290 382 q 299 385 290 382 q 327 391 308 388 q 365 399 346 394 q 399 411 383 404 q 421 428 415 418 l 400 449 q 385 450 399 449 q 357 451 372 451 q 336 452 350 451 q 308 454 322 453 q 281 456 293 456 q 267 457 269 457 l 261 457 q 259 485 260 472 q 258 500 258 497 q 256 516 258 504 q 249 541 254 528 q 235 565 244 554 q 214 575 226 575 l 197 524 l 194 453 m 126 138 l 293 131 q 301 133 293 131 q 349 150 322 140 q 386 179 375 160 l 365 200 q 351 201 364 200 q 322 203 338 203 q 292 204 308 203 q 269 206 276 206 q 245 203 254 206 q 211 201 236 201 q 172 200 190 201 q 150 199 153 199 q 134 197 146 199 q 109 190 122 194 q 85 176 96 185 q 75 154 75 167 l 126 138 z "},"":{"ha":297,"x_min":25,"x_max":272,"o":"m 272 628 q 252 613 265 621 q 228 604 239 604 l 143 604 q 85 607 108 604 q 49 622 63 610 q 31 655 36 633 q 25 714 25 676 l 25 719 q 51 791 26 767 q 104 835 76 815 q 138 859 124 846 q 153 892 153 872 q 137 923 153 911 q 106 935 121 935 q 99 933 103 935 l 100 935 l 56 901 q 47 900 51 900 l 39 903 q 31 927 35 910 q 26 951 26 944 l 25 972 l 88 972 q 135 968 111 972 q 176 953 158 964 q 206 925 194 943 q 217 879 217 907 q 198 827 217 846 q 156 793 179 808 q 115 760 135 778 q 90 711 96 743 q 89 701 89 706 q 89 696 89 699 q 104 658 89 668 q 147 649 119 649 q 174 656 157 649 q 189 657 176 657 q 217 657 201 657 q 246 656 232 657 q 265 656 260 656 l 272 628 z "},"":{"ha":297,"x_min":11,"x_max":276,"o":"m 97 779 l 106 829 q 134 833 119 831 q 160 840 149 835 q 180 851 172 844 q 188 869 188 858 q 176 901 188 885 q 149 919 165 918 q 76 897 104 904 q 32 890 47 890 q 11 904 11 890 l 14 944 q 41 968 25 964 q 76 972 57 972 l 94 972 q 144 967 117 972 q 197 949 172 961 q 237 917 221 938 q 253 868 253 897 q 248 838 253 849 q 228 811 243 826 q 253 783 239 801 q 274 757 268 765 q 276 733 276 738 q 276 724 276 729 q 255 663 276 686 q 201 628 233 640 q 131 613 168 617 q 65 608 94 608 q 46 611 54 608 q 40 612 43 611 q 36 613 38 613 l 38 640 q 56 651 47 647 q 79 656 65 656 q 106 651 90 656 l 104 651 q 140 655 122 651 q 174 665 158 658 q 199 683 189 672 q 208 710 208 694 q 197 754 208 736 q 157 772 185 772 l 97 779 z "},"":{"ha":196,"x_min":15,"x_max":179,"o":"m 15 560 q 78 591 49 569 q 147 661 107 613 q 159 685 154 674 q 167 708 164 697 q 179 771 179 739 q 176 787 176 778 q 171 806 175 796 q 121 787 142 804 q 81 749 100 769 l 60 726 l 33 664 l 15 560 z "},"":{"ha":1554,"x_min":22,"x_max":1524,"o":"m 1524 457 q 1393 543 1524 489 q 1464 608 1464 553 l 1464 617 l 1464 622 l 1264 682 q 1304 747 1304 690 l 1282 771 l 1046 771 l 1056 840 l 986 850 l 788 806 l 778 817 l 788 850 l 747 885 l 568 782 l 479 850 q 424 806 453 838 q 360 715 396 774 l 249 760 l 244 760 q 199 599 199 760 l 82 613 l 71 543 l 132 463 l 22 442 l 32 385 l 143 326 l 82 268 q 111 225 82 225 l 269 193 l 239 156 l 239 113 l 497 88 l 488 31 l 518 10 l 767 56 l 767 -14 l 797 -25 l 986 88 l 1046 18 l 1096 31 l 1194 156 q 1250 122 1226 133 q 1294 110 1274 110 q 1333 135 1325 110 l 1344 268 l 1444 247 q 1475 296 1475 257 l 1475 306 q 1472 318 1475 315 l 1413 406 l 1503 406 l 1522 453 q 1523 455 1522 454 q 1524 457 1524 456 m 1493 442 l 1365 431 q 1446 293 1446 329 q 1445 290 1446 293 q 1444 281 1444 288 l 1313 306 l 1304 143 l 1175 193 l 1076 56 l 986 122 l 788 10 l 797 56 l 767 100 l 518 43 l 547 122 l 269 135 l 350 200 l 111 260 l 221 318 l 53 418 l 181 431 l 111 531 l 101 578 l 232 567 l 249 725 q 347 676 314 676 q 371 682 360 676 l 479 817 l 557 747 l 738 850 l 757 840 l 767 771 l 1025 817 l 1007 736 l 1274 736 l 1194 668 l 1422 613 l 1433 589 l 1422 589 l 1322 556 l 1482 463 l 1493 442 m 1299 519 l 1257 532 l 1249 379 l 1278 374 l 1299 519 m 1282 311 l 1257 324 l 1232 304 l 1254 281 l 1282 311 m 1207 322 l 1207 521 l 1178 532 l 1169 393 l 1069 519 l 1074 321 l 1100 324 l 1100 422 q 1207 322 1167 322 m 1043 324 l 1039 474 q 994 536 1026 536 q 969 531 975 536 q 897 332 908 432 l 933 332 q 978 379 956 379 q 1019 332 1001 379 l 1043 324 m 878 532 l 844 524 l 826 321 l 869 335 l 878 532 m 794 317 l 794 514 l 763 524 l 757 385 l 656 514 l 658 311 l 686 318 l 686 413 q 794 317 750 317 m 636 456 q 563 522 621 522 l 553 522 q 553 522 554 522 q 544 521 551 521 q 479 346 479 476 q 539 313 489 313 q 568 317 551 313 q 636 456 619 317 m 467 529 q 338 411 338 506 l 338 400 q 339 385 338 386 q 407 297 356 297 q 423 300 414 297 q 444 306 432 303 l 442 340 q 407 335 432 335 q 369 375 369 335 q 396 456 369 417 q 444 485 421 485 q 453 484 451 485 q 463 481 456 483 l 467 529 m 319 524 l 288 517 l 269 311 l 310 326 l 319 524 m 1008 422 l 953 422 l 988 490 l 1008 422 m 603 428 q 588 368 603 396 q 542 350 557 350 q 513 399 513 350 l 513 413 q 564 476 535 476 q 597 450 588 476 q 603 428 603 444 z "},"":{"ha":1506,"x_min":31,"x_max":1471,"o":"m 1471 442 l 1343 431 q 1424 293 1424 329 q 1423 290 1424 293 q 1422 281 1422 288 l 1290 306 l 1282 143 l 1153 193 l 1054 56 l 964 122 l 765 10 l 775 56 l 744 100 l 496 43 l 525 122 l 247 135 l 328 200 l 89 260 l 199 318 l 31 418 l 158 431 l 89 531 l 79 578 l 210 567 l 226 725 q 325 676 292 676 q 349 682 338 676 l 457 817 l 535 747 l 715 850 l 735 840 l 744 771 l 1003 817 l 985 736 l 1251 736 l 1172 668 l 1400 613 l 1411 589 l 1400 589 l 1300 556 l 1460 463 l 1471 442 m 1276 519 l 1235 532 l 1226 379 l 1256 374 l 1276 519 m 1260 311 l 1235 324 l 1210 304 l 1232 281 l 1260 311 m 1185 322 l 1185 521 l 1156 532 l 1147 393 l 1047 519 l 1051 321 l 1078 324 l 1078 422 q 1185 322 1144 322 m 1021 324 l 1017 474 q 972 536 1004 536 q 947 531 953 536 q 875 332 886 432 l 911 332 q 956 379 933 379 q 997 332 979 379 l 1021 324 m 856 532 l 822 524 l 804 321 l 847 335 l 856 532 m 772 317 l 772 514 l 740 524 l 735 385 l 633 514 l 636 311 l 664 318 l 664 413 q 772 317 728 317 m 614 456 q 540 522 599 522 l 531 522 q 531 522 532 522 q 522 521 529 521 q 457 346 457 476 q 517 313 467 313 q 546 317 529 313 q 614 456 597 317 m 444 529 q 315 411 315 506 l 315 400 q 317 385 315 386 q 385 297 333 297 q 401 300 392 297 q 422 306 410 303 l 419 340 q 385 335 410 335 q 347 375 347 335 q 374 456 347 417 q 422 485 399 485 q 431 484 429 485 q 440 481 433 483 l 444 529 m 297 524 l 265 517 l 247 311 l 288 326 l 297 524 m 986 422 l 931 422 l 965 490 l 986 422 m 581 428 q 565 368 581 396 q 519 350 535 350 q 490 399 490 350 l 490 413 q 542 476 513 476 q 575 450 565 476 q 581 428 581 444 z "},"":{"ha":196,"x_min":19,"x_max":174,"o":"m 25 353 q 21 367 22 360 q 19 386 19 375 q 25 427 19 406 q 42 460 31 449 q 68 475 53 471 q 103 479 83 479 q 162 457 150 468 q 174 435 174 446 l 172 422 q 151 346 172 375 q 86 317 131 317 l 74 317 l 25 353 z "},"":{"ha":104,"x_min":-124,"x_max":100,"o":"m 21 4 l 22 -93 q -7 -94 10 -93 q -38 -97 -24 -96 q -63 -99 -53 -99 q -74 -100 -74 -100 q -86 -101 -78 -100 q -103 -106 -94 -101 q -117 -117 -111 -110 q -124 -137 -124 -125 l -72 -154 l 100 -136 l 86 -46 q 83 -28 85 -42 q 75 -1 82 -15 l 21 4 z "},"":{"ha":167,"x_min":25,"x_max":143,"o":"m 122 850 l 122 653 q 135 638 128 649 q 143 613 143 628 l 44 613 l 26 629 l 51 656 q 53 678 51 656 q 56 733 54 701 q 58 797 57 764 q 60 851 60 831 l 60 942 q 43 953 51 946 q 25 974 35 960 l 125 974 q 135 968 129 974 q 142 957 142 963 l 129 933 l 131 935 l 122 850 z "},"":{"ha":406,"x_min":18,"x_max":382,"o":"m 324 632 q 342 651 332 636 q 360 682 351 665 q 375 715 369 699 q 381 740 381 732 l 381 769 q 382 778 382 772 q 369 848 382 818 q 335 900 357 878 q 283 940 314 922 q 217 974 253 957 l 211 974 q 73 925 128 974 q 18 792 18 876 q 34 711 18 747 q 77 650 50 675 q 142 612 104 625 q 221 599 179 599 q 274 608 250 599 q 325 632 299 617 l 324 632 m 315 781 q 307 731 315 756 q 283 688 299 707 q 245 656 267 668 q 199 643 224 643 q 151 655 172 643 q 115 686 129 667 q 92 730 100 706 q 85 781 85 754 q 94 833 85 808 q 122 877 104 858 q 162 907 139 896 q 211 918 185 918 q 260 906 240 918 q 292 875 279 894 q 310 831 304 856 q 315 781 315 806 z "},"":{"ha":400,"x_min":21,"x_max":385,"o":"m 21 514 l 36 542 l 101 526 l 168 483 q 192 438 189 451 q 197 413 194 425 l 200 413 l 203 390 q 194 357 203 371 q 175 324 186 343 l 158 297 l 104 257 l 39 242 l 24 269 q 26 291 24 285 q 36 303 29 297 q 54 320 43 310 q 82 354 65 331 q 92 373 89 361 q 103 390 94 385 q 90 410 94 397 q 79 432 86 424 q 51 467 63 457 q 33 482 39 476 q 24 493 26 488 q 21 514 21 499 m 203 514 l 218 542 l 283 526 l 350 483 q 374 438 371 451 q 379 413 376 425 l 382 413 l 385 390 q 376 357 385 371 q 357 324 368 343 l 340 297 l 286 257 l 221 242 l 206 269 q 208 291 206 285 q 218 303 211 297 q 236 320 225 310 q 264 354 247 331 q 274 373 271 361 q 285 390 276 385 q 272 410 276 397 q 261 432 268 424 q 233 467 244 457 q 215 482 221 476 q 206 493 208 488 q 203 514 203 499 z "},"":{"ha":768,"x_min":0,"x_max":743,"o":"m 68 89 q 265 344 189 236 q 384 523 340 453 q 444 626 428 593 q 463 658 460 660 l 439 703 q 448 717 439 710 q 463 724 457 724 l 660 724 q 631 697 649 707 q 594 681 614 688 l 176 89 q 199 67 183 82 q 221 44 215 51 q 222 40 221 44 q 224 33 224 35 q 213 13 224 21 q 188 1 203 6 q 154 -4 172 -3 q 121 -6 136 -6 q 102 -5 110 -6 q 89 -4 94 -4 l 86 -4 q 71 -3 81 -4 q 51 -2 61 -3 q 33 -1 42 -1 q 24 0 25 0 l 0 21 l 68 89 m 706 311 l 706 54 l 743 17 l 724 0 q 719 -1 722 0 q 713 -1 715 -1 q 700 -3 707 -3 q 690 -3 693 -3 l 674 -3 q 638 2 658 -3 q 618 24 618 7 l 621 33 l 625 39 q 633 47 629 43 q 640 53 638 51 l 640 179 l 440 186 l 440 329 q 421 341 429 333 q 401 361 413 349 l 510 361 q 522 356 515 361 q 528 346 528 351 l 515 321 l 517 322 l 507 239 l 507 235 l 640 235 l 640 319 q 629 331 636 324 q 619 344 622 339 q 618 354 618 349 l 619 357 q 626 367 625 365 q 632 374 628 369 q 654 372 640 374 q 683 366 668 369 q 710 358 697 363 q 729 347 722 353 l 706 311 m 175 596 l 175 399 q 188 384 181 394 q 196 358 196 374 l 97 358 l 79 375 l 104 401 q 106 424 104 401 q 108 478 107 447 q 111 543 110 510 q 113 597 113 576 l 113 688 q 96 699 104 692 q 78 719 88 706 l 178 719 q 188 714 182 719 q 194 703 194 708 l 182 679 l 183 681 l 175 596 z "},"":{"ha":697,"x_min":0,"x_max":676,"o":"m 68 89 q 265 344 189 236 q 384 523 340 453 q 444 626 428 593 q 463 658 460 660 l 439 703 q 448 717 439 710 q 463 724 457 724 l 660 724 q 631 697 649 707 q 594 681 614 688 l 176 89 q 199 67 183 82 q 221 44 215 51 q 222 40 221 44 q 224 33 224 35 q 213 13 224 21 q 188 1 203 6 q 154 -4 172 -3 q 121 -6 136 -6 q 102 -5 110 -6 q 89 -4 94 -4 l 86 -4 q 71 -3 81 -4 q 51 -2 61 -3 q 33 -1 42 -1 q 24 0 25 0 l 0 21 l 68 89 m 175 596 l 175 399 q 188 384 181 394 q 196 358 196 374 l 97 358 l 79 375 l 104 401 q 106 424 104 401 q 108 478 107 447 q 111 543 110 510 q 113 597 113 576 l 113 688 q 96 699 104 692 q 78 719 88 706 l 178 719 q 188 714 182 719 q 194 703 194 708 l 183 681 l 175 596 m 676 8 l 565 3 q 508 6 531 3 q 472 20 485 8 q 453 53 458 32 q 447 113 447 75 l 447 118 q 474 190 449 165 q 526 233 499 214 q 560 258 546 244 q 575 290 575 271 q 559 322 575 310 q 528 333 543 333 q 521 332 525 333 l 522 333 l 478 300 q 469 299 474 299 l 461 301 q 453 326 457 308 q 449 350 449 343 l 447 371 l 510 371 q 557 367 533 371 q 599 352 581 363 q 628 324 617 342 q 639 278 639 306 q 620 226 639 244 q 578 192 601 207 q 538 159 557 176 q 513 110 518 142 q 511 100 511 104 q 511 94 511 97 q 526 57 511 67 q 569 47 542 47 q 596 54 579 47 q 608 58 601 57 q 626 60 615 60 q 640 63 636 60 q 647 69 644 67 q 653 71 649 71 q 667 63 657 71 l 676 8 z "},"":{"ha":807,"x_min":25,"x_max":782,"o":"m 107 89 q 303 344 228 236 q 423 523 379 453 q 483 626 467 593 q 501 658 499 660 l 478 703 q 487 717 478 710 q 501 724 496 724 l 699 724 q 670 697 688 707 q 633 681 653 688 l 215 89 q 238 67 222 82 q 260 44 254 51 q 261 40 260 44 q 263 33 263 35 q 252 13 263 21 q 226 1 242 6 q 193 -4 211 -3 q 160 -6 175 -6 q 141 -5 149 -6 q 128 -4 133 -4 l 125 -4 q 110 -3 119 -4 q 90 -2 100 -3 q 72 -1 81 -1 q 63 0 64 0 l 39 21 l 107 89 m 744 311 l 744 54 l 782 17 l 763 0 q 758 -1 761 0 q 751 -1 754 -1 q 739 -3 746 -3 q 729 -3 732 -3 l 713 -3 q 677 2 697 -3 q 657 24 657 7 l 660 33 l 664 39 q 672 47 668 43 q 679 53 676 51 l 679 179 l 479 186 l 479 329 q 460 341 468 333 q 440 361 451 349 l 549 361 q 560 356 554 361 q 567 346 567 351 l 554 321 l 556 322 l 546 239 l 546 235 l 679 235 l 679 319 q 668 331 675 324 q 658 344 661 339 q 657 354 657 349 l 658 357 q 665 367 664 365 q 671 374 667 369 q 693 372 679 374 q 722 366 707 369 q 749 358 736 363 q 768 347 761 353 l 744 311 m 111 522 l 119 572 q 148 576 133 574 q 174 583 163 578 q 194 594 186 588 q 201 613 201 601 q 190 644 201 628 q 163 663 179 661 q 90 640 118 647 q 46 633 61 633 q 25 647 25 633 l 28 688 q 55 711 39 707 q 90 715 71 715 l 108 715 q 158 710 131 715 q 210 692 186 704 q 251 660 235 681 q 267 611 267 640 q 262 581 267 592 q 242 554 257 569 q 267 526 253 544 q 288 500 282 508 q 290 476 290 481 q 290 467 290 472 q 269 406 290 429 q 215 372 247 383 q 145 356 182 360 q 79 351 108 351 q 60 354 68 351 q 54 355 57 354 q 50 356 51 356 l 51 383 q 70 394 61 390 q 93 399 79 399 q 119 394 104 399 l 118 394 q 154 398 136 394 q 188 408 172 401 q 213 426 203 415 q 222 453 222 438 q 210 497 222 479 q 171 515 199 515 l 111 522 z "},"":{"ha":474,"x_min":18,"x_max":453,"o":"m 453 82 l 261 64 q 162 87 199 64 q 125 174 125 110 q 126 191 125 182 q 128 211 126 200 q 142 247 131 239 q 168 254 153 254 l 206 253 q 226 254 219 253 l 338 275 q 388 306 371 288 q 414 342 406 324 q 424 377 422 361 q 425 401 425 393 l 425 408 q 423 437 425 417 q 417 478 421 457 q 405 515 413 499 q 385 531 397 531 l 329 531 q 322 522 325 531 q 318 499 319 513 q 317 471 317 486 q 317 446 317 457 l 321 388 q 299 358 321 365 q 242 350 276 351 q 169 348 208 349 q 97 336 131 347 q 40 300 63 325 q 18 225 18 275 l 18 214 q 29 98 18 140 q 67 33 40 56 q 140 5 94 11 q 253 -1 185 -1 l 413 -1 l 440 17 l 453 82 m 415 704 q 419 690 418 697 q 421 674 421 683 q 416 636 421 656 q 400 607 411 617 q 376 593 390 596 q 346 590 363 590 q 292 610 303 600 q 282 629 282 619 l 283 640 q 302 710 283 683 q 361 736 321 736 l 372 736 l 415 704 z "},"":{"ha":999,"x_min":6,"x_max":983,"o":"m 478 739 q 524 668 500 706 q 569 590 549 631 q 603 506 590 549 q 617 422 617 464 l 369 422 q 403 584 369 501 q 478 739 436 667 m 717 -15 q 727 -16 718 -15 q 749 -17 736 -17 q 773 -17 761 -17 q 793 -18 785 -18 l 800 -18 q 817 -19 806 -18 q 842 -19 828 -19 q 888 -17 863 -19 q 934 -10 913 -15 q 969 3 956 -6 q 983 26 983 13 q 968 42 983 26 q 933 77 953 57 q 897 116 914 97 q 876 143 879 135 q 824 268 854 196 q 762 418 794 340 q 697 572 729 496 q 640 708 665 647 q 599 806 615 768 q 583 843 583 843 l 543 904 q 458 873 494 901 q 395 800 422 844 q 349 702 368 756 q 315 596 329 649 q 289 497 300 543 q 267 422 278 451 q 242 360 260 403 q 203 269 224 317 q 165 180 183 222 q 139 119 147 138 q 111 91 131 104 q 70 67 92 78 q 30 48 49 56 q 6 38 11 40 l 6 1 l 268 13 q 280 15 272 13 q 296 22 288 18 q 312 31 304 26 q 322 38 319 35 q 295 60 310 53 q 268 76 281 68 q 247 94 256 83 q 239 128 239 106 q 245 184 239 153 q 263 244 251 215 q 288 293 274 272 q 321 317 303 314 l 638 342 q 672 314 653 342 q 707 248 690 286 q 735 169 724 210 q 746 106 746 129 q 738 51 746 74 q 690 13 729 29 l 717 -15 m 565 986 l 550 1051 l 510 1106 l 483 1122 q 451 1142 465 1135 q 417 1150 436 1150 l 394 1147 q 388 1132 392 1138 q 383 1119 383 1126 q 410 1061 392 1085 l 411 1058 q 425 1039 418 1049 q 442 1021 432 1029 q 478 994 465 1004 q 499 978 490 983 q 515 972 507 974 q 538 971 522 971 l 565 986 z "},"":{"ha":999,"x_min":6,"x_max":983,"o":"m 478 739 q 524 668 500 706 q 569 590 549 631 q 603 506 590 549 q 617 422 617 464 l 369 422 q 403 584 369 501 q 478 739 436 667 m 717 -15 q 727 -16 718 -15 q 749 -17 736 -17 q 773 -17 761 -17 q 793 -18 785 -18 l 800 -18 q 817 -19 806 -18 q 842 -19 828 -19 q 888 -17 863 -19 q 934 -10 913 -15 q 969 3 956 -6 q 983 26 983 13 q 968 42 983 26 q 933 77 953 57 q 897 116 914 97 q 876 143 879 135 q 824 268 854 196 q 762 418 794 340 q 697 572 729 496 q 640 708 665 647 q 599 806 615 768 q 583 843 583 843 l 543 904 q 458 873 494 901 q 395 800 422 844 q 349 702 368 756 q 315 596 329 649 q 289 497 300 543 q 267 422 278 451 q 242 360 260 403 q 203 269 224 317 q 165 180 183 222 q 139 119 147 138 q 111 91 131 104 q 70 67 92 78 q 30 48 49 56 q 6 38 11 40 l 6 1 l 268 13 q 280 15 272 13 q 296 22 288 18 q 312 31 304 26 q 322 38 319 35 q 295 60 310 53 q 268 76 281 68 q 247 94 256 83 q 239 128 239 106 q 245 184 239 153 q 263 244 251 215 q 288 293 274 272 q 321 317 303 314 l 638 342 q 672 314 653 342 q 707 248 690 286 q 735 169 724 210 q 746 106 746 129 q 738 51 746 74 q 690 13 729 29 l 717 -15 m 429 1053 l 414 988 l 442 972 q 464 974 456 972 q 481 980 472 975 q 501 995 489 985 q 538 1022 514 1006 q 554 1040 547 1031 q 568 1060 561 1050 l 569 1063 q 596 1121 588 1086 q 592 1133 596 1128 q 585 1149 588 1139 l 563 1151 q 528 1144 543 1151 q 496 1124 514 1136 l 469 1107 l 429 1053 z "},"":{"ha":999,"x_min":6,"x_max":983,"o":"m 478 739 q 524 668 500 706 q 569 590 549 631 q 603 506 590 549 q 617 422 617 464 l 369 422 q 403 584 369 501 q 478 739 436 667 m 717 -15 q 727 -16 718 -15 q 749 -17 736 -17 q 773 -17 761 -17 q 793 -18 785 -18 l 800 -18 q 817 -19 806 -18 q 842 -19 828 -19 q 888 -17 863 -19 q 934 -10 913 -15 q 969 3 956 -6 q 983 26 983 13 q 968 42 983 26 q 933 77 953 57 q 897 116 914 97 q 876 143 879 135 q 824 268 854 196 q 762 418 794 340 q 697 572 729 496 q 640 708 665 647 q 599 806 615 768 q 583 843 583 843 l 543 904 q 458 873 494 901 q 395 800 422 844 q 349 702 368 756 q 315 596 329 649 q 288 497 300 543 q 265 422 276 451 q 241 360 258 403 q 203 269 224 317 q 165 180 183 222 q 139 119 147 138 q 111 91 131 104 q 70 67 92 78 q 30 48 49 56 q 6 38 11 40 l 6 1 l 268 13 q 280 15 272 13 q 296 22 288 18 q 312 31 304 26 q 322 38 319 35 q 295 60 310 53 q 268 76 281 68 q 247 94 256 83 q 239 128 239 106 q 245 184 239 153 q 263 244 251 215 q 288 293 274 272 q 321 317 303 314 l 638 342 q 672 314 653 342 q 707 248 690 286 q 735 169 724 210 q 746 106 746 129 q 738 51 746 74 q 690 13 729 29 l 717 -15 m 615 967 l 643 982 l 628 1047 l 585 1114 q 540 1138 553 1135 q 514 1143 526 1140 l 514 1146 l 492 1149 q 458 1140 472 1149 q 425 1121 444 1132 l 399 1104 l 358 1050 l 343 985 l 371 969 q 392 972 386 969 q 405 982 399 975 q 422 1000 411 989 q 456 1028 432 1011 q 474 1038 463 1035 q 492 1049 486 1040 q 512 1036 499 1040 q 533 1025 525 1032 q 568 997 558 1008 q 583 978 578 985 q 594 969 589 972 q 615 967 600 967 z "},"":{"ha":999,"x_min":6,"x_max":983,"o":"m 690 13 q 738 51 729 29 q 746 106 746 74 q 735 169 746 129 q 707 248 724 210 q 672 314 690 286 q 638 342 653 342 l 321 317 q 288 293 303 314 q 263 244 274 272 q 245 184 251 215 q 239 128 239 153 q 247 94 239 106 q 268 76 256 83 q 295 60 281 68 q 322 38 310 53 q 312 31 319 35 q 296 22 304 26 q 280 15 288 18 q 268 13 272 13 l 6 1 l 6 38 q 30 48 11 40 q 70 67 49 56 q 111 91 92 78 q 139 119 131 104 q 165 180 147 138 q 203 269 183 222 q 241 360 224 317 q 265 422 258 403 q 288 497 276 451 q 315 596 300 543 q 349 702 329 649 q 395 800 368 756 q 458 873 422 844 q 543 904 494 901 l 583 843 q 599 806 583 843 q 640 708 615 768 q 697 572 665 647 q 762 418 729 496 q 824 268 794 340 q 876 143 854 196 q 897 116 879 135 q 933 77 914 97 q 968 42 953 57 q 983 26 983 26 q 969 3 983 13 q 934 -10 956 -6 q 888 -17 913 -15 q 842 -19 863 -19 q 817 -19 828 -19 q 800 -18 806 -18 l 793 -18 q 773 -17 785 -18 q 749 -17 761 -17 q 727 -16 736 -17 q 717 -15 718 -15 l 690 13 m 478 739 q 403 584 436 667 q 369 422 369 501 l 617 422 q 603 506 617 464 q 569 590 590 549 q 524 668 549 631 q 478 739 500 706 m 401 1146 l 426 1149 l 439 1149 q 483 1128 454 1149 q 538 1086 513 1108 q 553 1080 544 1083 q 565 1072 561 1076 q 583 1084 571 1081 q 601 1094 594 1088 q 633 1122 624 1111 q 649 1139 643 1133 q 659 1147 654 1144 q 679 1149 664 1149 l 715 1129 l 715 1126 q 717 1117 715 1121 q 718 1110 718 1113 q 716 1094 718 1103 q 703 1064 714 1085 l 643 1000 q 613 983 632 989 q 583 975 594 978 l 544 979 q 522 986 531 982 q 506 997 514 990 q 488 1012 499 1003 q 460 1033 478 1021 q 446 1038 453 1036 q 436 1046 439 1040 q 419 1035 431 1038 q 400 1025 407 1032 q 366 998 376 1008 q 349 982 356 988 q 337 974 343 976 q 317 972 331 972 q 297 983 303 976 q 288 1000 290 990 l 303 1046 l 360 1117 q 377 1133 369 1129 q 401 1146 385 1138 z "},"":{"ha":999,"x_min":6,"x_max":983,"o":"m 478 739 q 524 668 500 706 q 569 590 549 631 q 603 506 590 549 q 617 422 617 464 l 369 422 q 403 584 369 501 q 478 739 436 667 m 717 -15 q 727 -16 718 -15 q 749 -17 736 -17 q 773 -17 761 -17 q 793 -18 785 -18 l 800 -18 q 817 -19 806 -18 q 842 -19 828 -19 q 888 -17 863 -19 q 934 -10 913 -15 q 969 3 956 -6 q 983 26 983 13 q 968 42 983 26 q 933 77 953 57 q 897 116 914 97 q 876 143 879 135 q 824 268 854 196 q 762 418 794 340 q 697 572 729 496 q 640 708 665 647 q 599 806 615 768 q 583 843 583 843 l 543 904 q 458 873 494 901 q 395 800 422 844 q 349 702 368 756 q 315 596 329 649 q 288 497 300 543 q 265 422 276 451 q 241 360 258 403 q 203 269 224 317 q 165 180 183 222 q 139 119 147 138 q 111 91 131 104 q 70 67 92 78 q 30 48 49 56 q 6 38 11 40 l 6 1 l 268 13 q 280 15 272 13 q 296 22 288 18 q 312 31 304 26 q 322 38 319 35 q 295 60 310 53 q 268 76 281 68 q 247 94 256 83 q 239 128 239 106 q 245 184 239 153 q 263 244 251 215 q 288 293 274 272 q 321 317 303 314 l 638 342 q 672 314 653 342 q 707 248 690 286 q 735 169 724 210 q 746 106 746 129 q 738 51 746 74 q 690 13 729 29 l 717 -15 m 556 997 l 600 967 l 611 967 q 669 992 650 967 q 688 1057 688 1017 l 689 1071 q 677 1088 689 1079 q 625 1107 665 1097 q 594 1103 608 1107 q 571 1090 581 1100 q 556 1062 560 1081 q 551 1026 551 1043 q 553 1010 551 1017 q 556 997 554 1004 m 339 996 l 383 965 l 394 965 q 452 990 433 965 q 471 1056 471 1015 l 472 1069 q 460 1087 472 1078 q 408 1106 449 1096 q 378 1102 392 1106 q 354 1089 364 1099 q 339 1060 343 1079 q 335 1025 335 1042 q 336 1009 335 1015 q 339 996 338 1003 z "},"":{"ha":999,"x_min":6,"x_max":983,"o":"m 478 739 q 524 668 500 706 q 569 590 549 631 q 603 506 590 549 q 617 422 617 464 l 369 422 q 403 584 369 501 q 478 739 436 667 m 717 -15 q 727 -16 718 -15 q 749 -17 736 -17 q 773 -17 761 -17 q 793 -18 785 -18 l 800 -18 q 817 -19 806 -18 q 842 -19 828 -19 q 888 -17 863 -19 q 934 -10 913 -15 q 969 3 956 -6 q 983 26 983 13 q 968 42 983 26 q 933 77 953 57 q 897 116 914 97 q 876 143 879 135 q 824 268 854 196 q 762 418 794 340 q 697 572 729 496 q 640 708 665 647 q 599 806 615 768 q 583 843 583 843 l 543 904 q 458 873 494 901 q 395 800 422 844 q 349 702 368 756 q 315 596 329 649 q 288 497 300 543 q 265 422 276 451 q 241 360 258 403 q 203 269 224 317 q 165 180 183 222 q 139 119 147 138 q 111 91 131 104 q 70 67 92 78 q 30 48 49 56 q 6 38 11 40 l 6 1 l 268 13 q 280 15 272 13 q 296 22 288 18 q 312 31 304 26 q 322 38 319 35 q 295 60 310 53 q 268 76 281 68 q 247 94 256 83 q 239 128 239 106 q 245 184 239 153 q 263 244 251 215 q 288 293 274 272 q 321 317 303 314 l 638 342 q 672 314 653 342 q 707 248 690 286 q 735 169 724 210 q 746 106 746 129 q 738 51 746 74 q 690 13 729 29 l 717 -15 m 436 1000 l 481 969 l 492 969 q 549 994 531 969 q 568 1060 568 1019 l 569 1074 q 558 1091 569 1082 q 506 1110 546 1100 q 475 1106 489 1110 q 451 1093 461 1103 q 436 1065 440 1083 q 432 1029 432 1046 q 433 1013 432 1019 q 436 1000 435 1007 z "},"":{"ha":1354,"x_min":0,"x_max":1349,"o":"m 685 15 l 711 -12 q 722 -13 713 -12 q 743 -14 731 -14 q 767 -15 756 -14 q 788 -15 779 -15 l 794 -15 q 811 -16 800 -15 q 836 -17 822 -17 q 909 -12 869 -17 q 968 8 949 -7 q 1116 3 1047 6 q 1213 0 1185 0 l 1228 0 q 1272 24 1250 0 q 1310 79 1293 47 q 1338 144 1328 111 q 1349 199 1349 178 q 1302 190 1325 199 q 1258 169 1279 182 q 1217 139 1236 156 q 1185 107 1199 122 l 901 107 q 898 110 899 108 q 896 113 897 111 l 896 422 l 1079 422 l 1079 368 l 1107 368 q 1121 386 1107 368 q 1152 429 1135 404 q 1187 481 1169 454 q 1213 528 1204 508 q 1214 540 1213 531 q 1215 551 1215 549 q 1214 568 1215 558 q 1213 581 1213 578 l 1132 528 l 868 528 l 868 790 l 1160 790 l 1132 739 q 1144 734 1135 736 q 1160 732 1153 732 q 1204 749 1183 732 q 1242 792 1225 767 q 1270 847 1258 818 q 1290 897 1282 875 l 1265 897 q 1200 896 1243 897 q 1102 892 1157 894 q 987 885 1047 889 q 872 879 926 882 q 774 873 817 876 q 710 868 731 869 l 710 843 q 715 833 711 840 q 722 817 718 825 q 730 801 726 808 q 738 790 733 794 l 738 464 q 680 605 708 536 q 628 727 651 674 q 592 813 606 781 q 578 846 578 846 l 538 907 q 453 876 489 904 q 390 803 417 847 q 343 706 363 760 q 308 599 324 651 q 282 499 293 546 q 260 425 271 453 q 235 363 253 406 q 197 272 217 319 q 160 183 178 225 q 133 122 142 140 q 106 94 125 107 q 65 69 86 81 q 24 51 43 58 q 0 40 6 43 l 0 4 l 263 15 q 274 18 267 15 q 290 25 282 21 q 306 33 299 29 q 317 40 314 38 q 290 63 304 56 q 263 78 275 71 q 242 97 250 86 q 233 131 233 108 q 240 187 233 156 q 257 247 246 218 q 283 296 268 275 q 315 319 297 317 l 632 344 q 662 323 646 344 q 693 269 678 301 q 720 201 708 238 q 738 136 732 165 l 738 78 l 713 31 q 685 15 701 21 m 472 742 q 519 671 494 708 q 565 592 544 633 q 598 509 585 551 q 611 425 611 467 l 364 425 q 373 506 364 464 q 397 588 382 547 q 432 667 413 628 q 472 742 451 706 z "},"":{"ha":800,"x_min":22,"x_max":790,"o":"m 429 -26 l 426 -97 q 371 -101 403 -97 q 332 -104 339 -104 l 331 -104 q 318 -105 326 -104 q 301 -110 310 -106 q 287 -122 293 -114 q 281 -142 281 -129 l 332 -158 l 504 -140 l 490 -50 q 487 -31 489 -46 q 478 -1 485 -17 q 565 1 521 -1 q 649 15 608 4 q 726 48 689 26 q 790 107 763 69 q 780 120 789 113 q 764 131 771 128 q 758 133 764 131 q 750 135 753 135 q 744 133 749 135 q 739 131 739 131 q 686 108 711 119 q 636 85 661 96 q 585 69 611 75 q 528 63 558 63 q 381 85 450 63 q 260 149 313 107 q 173 253 207 192 q 131 394 139 315 l 131 418 q 153 550 131 483 q 218 670 176 617 q 317 758 260 724 q 443 792 374 792 q 500 789 476 792 q 544 776 524 786 q 585 744 565 765 q 633 685 606 722 q 658 707 653 688 q 664 747 664 726 q 663 766 664 758 q 661 776 661 774 q 663 789 661 781 q 664 808 664 797 q 658 848 664 828 q 633 874 653 868 l 515 874 q 317 844 407 874 q 161 758 226 815 q 59 614 96 700 q 22 414 22 528 q 128 106 22 214 q 433 -1 233 -1 l 438 -1 l 429 -26 z "},"":{"ha":653,"x_min":8,"x_max":647,"o":"m 8 25 q 65 22 26 24 q 154 17 104 19 q 259 10 204 14 q 364 5 314 7 q 453 1 414 3 q 511 0 493 0 l 526 0 q 570 24 549 0 q 609 79 592 47 q 637 144 626 111 q 647 199 647 178 q 601 190 624 199 q 556 169 578 182 q 516 139 535 156 q 483 107 497 122 l 160 108 l 160 424 l 378 422 l 378 368 l 406 368 q 419 386 406 368 q 451 429 433 404 q 485 481 468 454 q 511 528 503 508 q 513 540 511 531 q 514 551 514 549 q 513 568 514 558 q 511 581 511 578 l 431 528 l 167 528 l 167 790 l 458 790 l 431 739 q 442 734 433 736 q 458 732 451 732 q 503 749 483 732 q 540 792 524 767 q 568 847 556 818 q 589 897 581 875 l 564 897 q 499 895 543 897 q 401 890 456 893 q 285 885 346 888 q 170 878 225 882 q 72 872 115 875 q 8 868 29 869 l 8 843 q 20 817 11 836 q 36 790 29 797 l 36 78 l 8 25 m 385 974 l 369 1039 l 329 1093 l 303 1110 q 270 1130 285 1122 q 236 1138 256 1138 l 214 1135 q 207 1119 211 1125 q 203 1107 203 1114 q 229 1049 211 1072 l 231 1046 q 244 1026 238 1036 q 261 1008 251 1017 q 297 981 285 992 q 318 966 310 971 q 334 960 326 961 q 357 958 342 958 l 385 974 z "},"":{"ha":653,"x_min":8,"x_max":647,"o":"m 8 25 q 65 22 26 24 q 154 17 104 19 q 259 10 204 14 q 364 5 314 7 q 453 1 414 3 q 511 0 493 0 l 526 0 q 570 24 549 0 q 609 79 592 47 q 637 144 626 111 q 647 199 647 178 q 601 190 624 199 q 556 169 578 182 q 516 139 535 156 q 483 107 497 122 l 160 108 l 160 424 l 378 422 l 378 368 l 406 368 q 419 386 406 368 q 451 429 433 404 q 485 481 468 454 q 511 528 503 508 q 513 540 511 531 q 514 551 514 549 q 513 568 514 558 q 511 581 511 578 l 431 528 l 167 528 l 167 790 l 458 790 l 431 739 q 442 734 433 736 q 458 732 451 732 q 503 749 483 732 q 540 792 524 767 q 568 847 556 818 q 589 897 581 875 l 564 897 q 499 895 543 897 q 401 890 456 893 q 285 885 346 888 q 170 878 225 882 q 72 872 115 875 q 8 868 29 869 l 8 843 q 20 817 11 836 q 36 790 29 797 l 36 78 l 8 25 m 276 1049 l 261 983 l 289 968 q 311 969 303 968 q 328 976 319 971 q 349 991 336 981 q 385 1018 361 1001 q 401 1036 394 1026 q 415 1056 408 1046 l 417 1058 q 443 1117 435 1082 q 439 1129 443 1124 q 432 1144 435 1135 l 410 1147 q 376 1140 390 1147 q 343 1119 361 1132 l 317 1103 l 276 1049 z "},"":{"ha":653,"x_min":8,"x_max":647,"o":"m 8 25 q 65 22 26 24 q 154 17 104 19 q 259 10 204 14 q 364 5 314 7 q 453 1 414 3 q 511 0 493 0 l 526 0 q 570 24 549 0 q 609 79 592 47 q 637 144 626 111 q 647 199 647 178 q 601 190 624 199 q 556 169 578 182 q 516 139 535 156 q 483 107 497 122 l 160 108 l 160 424 l 378 422 l 378 368 l 406 368 q 419 386 406 368 q 451 429 433 404 q 485 481 468 454 q 511 528 503 508 q 513 540 511 531 q 514 551 514 549 q 513 568 514 558 q 511 581 511 578 l 431 528 l 167 528 l 167 790 l 458 790 l 431 739 q 442 734 433 736 q 458 732 451 732 q 503 749 483 732 q 540 792 524 767 q 568 847 556 818 q 589 897 581 875 l 564 897 q 499 895 543 897 q 401 890 456 893 q 285 885 346 888 q 170 878 225 882 q 72 872 115 875 q 8 868 29 869 l 8 843 q 20 817 11 836 q 36 790 29 797 l 36 78 l 8 25 m 453 976 l 481 992 l 465 1057 l 422 1124 q 377 1147 390 1144 q 351 1153 364 1150 l 351 1156 l 329 1158 q 296 1150 310 1158 q 263 1131 282 1142 l 236 1114 l 196 1060 l 181 994 l 208 979 q 230 982 224 979 q 242 992 236 985 q 259 1010 249 999 q 293 1038 269 1021 q 312 1047 300 1044 q 329 1058 324 1050 q 349 1046 336 1050 q 371 1035 363 1042 q 406 1006 396 1018 q 421 988 415 994 q 432 979 426 982 q 453 976 438 976 z "},"":{"ha":653,"x_min":8,"x_max":647,"o":"m 8 25 q 65 22 26 24 q 154 17 104 19 q 259 10 204 14 q 364 5 314 7 q 453 1 414 3 q 511 0 493 0 l 526 0 q 570 24 549 0 q 609 79 592 47 q 637 144 626 111 q 647 199 647 178 q 601 190 624 199 q 556 169 578 182 q 516 139 535 156 q 483 107 497 122 l 160 108 l 160 424 l 378 422 l 378 368 l 406 368 q 419 386 406 368 q 451 429 433 404 q 485 481 468 454 q 511 528 503 508 q 513 540 511 531 q 514 551 514 549 q 513 568 514 558 q 511 581 511 578 l 431 528 l 167 528 l 167 790 l 458 790 l 431 739 q 442 734 433 736 q 458 732 451 732 q 503 749 483 732 q 540 792 524 767 q 568 847 556 818 q 589 897 581 875 l 564 897 q 499 895 543 897 q 401 890 456 893 q 285 885 346 888 q 170 878 225 882 q 72 872 115 875 q 8 868 29 869 l 8 843 q 20 817 11 836 q 36 790 29 797 l 36 78 l 8 25 m 376 1001 l 421 971 l 432 971 q 490 996 471 971 q 508 1061 508 1021 l 510 1075 q 498 1092 510 1083 q 446 1111 486 1101 q 415 1108 429 1111 q 392 1094 401 1104 q 376 1066 381 1085 q 372 1031 372 1047 q 374 1015 372 1021 q 376 1001 375 1008 m 160 1000 l 204 969 l 215 969 q 273 994 254 969 q 292 1060 292 1019 l 293 1074 q 281 1091 293 1082 q 229 1110 269 1100 q 199 1106 213 1110 q 175 1093 185 1103 q 160 1065 164 1083 q 156 1029 156 1046 q 157 1013 156 1019 q 160 1000 158 1007 z "},"":{"ha":307,"x_min":15,"x_max":283,"o":"m 15 25 l 43 0 q 76 -3 50 0 q 118 -6 103 -6 l 122 -6 q 138 -6 129 -6 q 160 -7 146 -7 q 200 -6 178 -7 q 240 1 222 -4 q 271 16 258 7 q 283 40 283 25 q 282 47 283 42 q 281 53 281 53 q 270 60 278 56 q 254 68 263 64 q 238 75 246 72 q 226 78 231 78 l 226 790 q 238 801 231 794 q 254 816 246 808 q 270 831 263 824 q 281 843 278 839 q 282 849 281 843 q 283 857 283 856 l 281 868 q 255 876 274 871 q 215 885 236 881 q 175 894 194 890 q 149 897 156 897 l 121 897 q 102 889 114 893 q 78 881 90 885 q 56 873 65 876 q 43 868 46 869 q 42 865 43 868 q 42 858 42 861 q 51 772 42 817 q 70 681 60 728 q 90 587 81 635 q 99 493 99 539 l 99 485 q 97 476 99 479 l 97 317 q 94 253 97 293 q 85 176 90 214 q 76 109 81 138 q 68 78 71 81 l 15 25 m 233 981 l 218 1046 l 178 1100 l 151 1117 q 119 1137 133 1129 q 85 1144 104 1144 l 63 1142 q 56 1126 60 1132 q 51 1114 51 1121 q 78 1056 60 1079 l 79 1053 q 93 1033 86 1043 q 110 1015 100 1024 q 146 988 133 999 q 167 973 158 978 q 183 967 175 968 q 206 965 190 965 l 233 981 z "},"":{"ha":307,"x_min":15,"x_max":283,"o":"m 15 25 l 43 0 q 76 -3 50 0 q 118 -6 103 -6 l 122 -6 q 138 -6 129 -6 q 160 -7 146 -7 q 200 -6 178 -7 q 240 1 222 -4 q 271 16 258 7 q 283 40 283 25 q 282 47 283 42 q 281 53 281 53 q 270 60 278 56 q 254 68 263 64 q 238 75 246 72 q 226 78 231 78 l 226 790 q 238 801 231 794 q 254 816 246 808 q 270 831 263 824 q 281 843 278 839 q 282 849 281 843 q 283 857 283 856 l 281 868 q 255 876 274 871 q 215 885 236 881 q 175 894 194 890 q 149 897 156 897 l 121 897 q 102 889 114 893 q 78 881 90 885 q 56 873 65 876 q 43 868 46 869 q 42 865 43 868 q 42 858 42 861 q 51 772 42 817 q 70 681 60 728 q 90 587 81 635 q 99 493 99 539 l 99 485 q 97 476 99 479 l 97 317 q 94 253 97 293 q 85 176 90 214 q 76 109 81 138 q 68 78 71 81 l 15 25 m 74 1043 l 58 978 l 86 963 q 108 964 100 963 q 125 970 117 965 q 146 985 133 975 q 182 1013 158 996 q 199 1031 192 1021 q 213 1050 206 1040 l 214 1053 q 240 1111 232 1076 q 236 1124 240 1118 q 229 1139 232 1129 l 207 1142 q 173 1134 188 1142 q 140 1114 158 1126 l 114 1097 l 74 1043 z "},"":{"ha":307,"x_min":-7,"x_max":293,"o":"m 15 25 l 43 0 q 76 -3 50 0 q 118 -6 103 -6 l 122 -6 q 138 -6 129 -6 q 160 -7 146 -7 q 200 -6 178 -7 q 240 1 222 -4 q 271 16 258 7 q 283 40 283 25 q 282 47 283 42 q 281 53 281 53 q 270 60 278 56 q 254 68 263 64 q 238 75 246 72 q 226 78 231 78 l 226 790 q 238 801 231 794 q 254 816 246 808 q 270 831 263 824 q 281 843 278 839 q 282 849 281 843 q 283 857 283 856 l 281 868 q 255 876 274 871 q 215 885 236 881 q 175 894 194 890 q 149 897 156 897 l 121 897 q 102 889 114 893 q 78 881 90 885 q 56 873 65 876 q 43 868 46 869 q 42 865 43 868 q 42 858 42 861 q 51 772 42 817 q 70 681 60 728 q 90 587 81 635 q 99 493 99 539 l 99 485 q 97 476 99 479 l 97 317 q 94 253 97 293 q 85 176 90 214 q 76 109 81 138 q 68 78 71 81 l 15 25 m 265 972 l 293 988 l 278 1053 l 235 1119 q 190 1143 203 1140 q 164 1149 176 1146 l 164 1151 l 142 1154 q 108 1146 122 1154 q 75 1126 94 1138 l 49 1110 l 8 1056 l -7 990 l 21 975 q 42 978 36 975 q 55 988 49 981 q 72 1006 61 994 q 106 1033 82 1017 q 124 1043 113 1040 q 142 1054 136 1046 q 162 1042 149 1046 q 183 1031 175 1038 q 218 1002 208 1014 q 233 984 228 990 q 244 975 239 978 q 265 972 250 972 z "},"":{"ha":307,"x_min":-15,"x_max":339,"o":"m 15 25 l 43 0 q 76 -3 50 0 q 118 -6 103 -6 l 122 -6 q 138 -6 129 -6 q 160 -7 146 -7 q 200 -6 178 -7 q 240 1 222 -4 q 271 16 258 7 q 283 40 283 25 q 282 47 283 42 q 281 53 281 53 q 270 60 278 56 q 254 68 263 64 q 238 75 246 72 q 226 78 231 78 l 226 790 q 238 801 231 794 q 254 816 246 808 q 270 831 263 824 q 281 843 278 839 q 282 849 281 843 q 283 857 283 856 l 281 868 q 255 876 274 871 q 215 885 236 881 q 175 894 194 890 q 149 897 156 897 l 121 897 q 102 889 114 893 q 78 881 90 885 q 56 873 65 876 q 43 868 46 869 q 42 865 43 868 q 42 858 42 861 q 51 772 42 817 q 70 681 60 728 q 90 587 81 635 q 99 493 99 539 l 99 485 q 97 476 99 479 l 97 317 q 94 253 97 293 q 85 176 90 214 q 76 109 81 138 q 68 78 71 81 l 15 25 m 206 1007 l 250 976 l 261 976 q 319 1001 300 976 q 338 1067 338 1026 l 339 1081 q 327 1098 339 1089 q 275 1117 315 1107 q 244 1113 258 1117 q 221 1100 231 1110 q 206 1072 210 1090 q 201 1036 201 1053 q 203 1020 201 1026 q 206 1007 204 1014 m -11 1006 l 33 975 l 44 975 q 102 1000 83 975 q 121 1065 121 1025 l 122 1079 q 110 1097 122 1088 q 58 1115 99 1106 q 28 1112 42 1115 q 4 1099 14 1108 q -11 1070 -7 1089 q -15 1035 -15 1051 q -14 1019 -15 1025 q -11 1006 -12 1013 z "},"":{"ha":776,"x_min":22,"x_max":754,"o":"m 97 413 q 81 410 93 413 q 56 403 69 408 q 33 390 43 399 q 22 368 22 381 l 74 351 l 163 351 l 163 65 q 147 44 156 61 q 139 21 139 28 q 147 8 139 17 q 163 -1 156 0 l 250 -1 q 432 23 342 -1 q 594 97 522 47 q 710 224 665 147 q 754 407 754 301 q 740 512 754 453 q 695 623 725 571 q 620 711 665 675 q 514 747 575 747 l 163 747 q 147 738 156 747 q 139 724 139 729 q 147 701 139 717 q 163 681 156 686 l 163 414 l 97 413 m 294 89 q 288 133 292 101 q 280 198 283 164 q 274 263 276 232 q 271 307 271 294 q 271 325 271 314 q 272 351 271 336 l 289 351 q 293 350 290 350 q 297 351 296 350 q 326 358 307 354 q 363 366 344 361 q 398 378 382 371 q 419 394 414 385 l 399 415 q 384 417 397 415 q 356 418 371 418 l 274 415 q 278 488 275 450 q 283 558 281 525 q 289 619 286 592 q 294 658 292 646 q 310 680 296 675 q 342 685 325 685 q 356 684 349 685 q 367 683 364 683 q 484 661 432 683 q 572 599 536 639 q 627 505 608 560 q 646 385 646 450 q 628 276 646 332 q 578 172 611 219 q 499 95 546 125 q 392 65 451 65 l 382 65 q 363 69 375 67 q 337 76 350 72 q 312 83 324 79 q 294 89 300 86 z "},"":{"ha":879,"x_min":3,"x_max":868,"o":"m 94 236 q 85 195 90 221 q 76 144 81 169 q 69 100 72 119 q 65 78 65 81 q 58 68 65 75 q 42 52 51 61 q 24 35 32 43 q 13 25 15 28 q 12 20 13 25 q 11 14 11 15 l 13 0 l 224 25 q 226 29 224 25 q 228 36 228 33 q 226 45 228 39 q 224 53 224 51 q 214 65 221 57 q 199 81 207 72 q 183 96 190 89 q 171 107 175 103 l 171 711 q 187 700 178 708 q 199 685 196 692 l 410 368 q 436 333 418 357 q 478 277 454 308 q 527 212 501 246 q 576 147 553 178 q 619 90 600 115 q 646 53 638 65 q 678 33 658 40 q 722 21 699 25 q 770 15 746 17 q 815 14 794 14 q 849 15 835 14 q 868 15 863 15 q 858 48 868 36 q 833 67 847 60 q 803 83 818 75 q 778 107 788 92 q 774 173 776 128 q 768 275 771 218 q 763 396 765 332 q 757 517 760 460 q 753 619 754 574 q 751 685 751 664 l 751 749 q 763 790 751 779 q 791 804 775 800 q 825 815 807 808 q 856 843 843 821 q 820 851 846 847 q 765 859 794 856 q 710 865 736 863 q 672 868 683 868 q 657 865 668 868 q 633 859 646 863 q 610 851 621 856 q 593 843 599 847 q 592 838 593 843 q 590 831 590 832 q 592 822 590 828 q 593 817 593 817 l 594 817 q 620 800 603 810 q 646 790 638 790 q 672 662 665 722 q 678 536 678 601 q 677 486 678 511 q 672 435 676 461 l 672 236 q 582 359 626 290 q 490 499 538 428 q 392 640 443 571 q 281 762 340 708 q 153 848 222 815 q 3 881 85 881 q 12 819 3 840 q 65 790 21 797 q 70 730 67 771 q 76 637 74 689 q 83 527 79 585 q 89 417 86 469 q 93 324 92 365 q 94 264 94 283 l 94 247 l 94 236 m 317 1142 q 292 1129 300 1133 q 275 1113 285 1125 l 218 1042 l 203 996 q 212 979 206 986 q 232 968 218 972 q 252 970 246 968 q 265 978 258 972 q 281 994 271 983 q 315 1021 292 1004 q 334 1031 322 1028 q 351 1042 346 1033 q 361 1034 354 1036 q 375 1029 368 1032 q 403 1008 393 1017 q 422 992 414 999 q 438 982 429 986 q 460 975 446 978 l 499 971 q 528 979 510 974 q 558 996 547 985 l 618 1060 q 631 1090 629 1081 q 633 1106 633 1099 q 632 1113 633 1108 q 631 1122 631 1117 l 631 1125 l 594 1144 q 574 1142 579 1144 q 564 1135 569 1140 q 549 1118 558 1129 q 517 1090 539 1107 q 498 1080 510 1083 q 481 1068 486 1076 q 468 1076 476 1072 q 453 1082 460 1079 q 399 1124 428 1104 q 354 1144 369 1144 l 342 1144 l 317 1142 z "},"":{"ha":893,"x_min":7,"x_max":881,"o":"m 142 78 q 97 122 121 89 q 54 196 74 156 q 22 274 35 236 q 8 333 8 313 l 8 342 q 8 372 8 346 q 7 414 7 397 q 36 585 7 513 q 118 715 65 658 q 244 814 171 771 q 406 897 317 857 l 417 897 q 601 867 517 897 q 749 781 686 838 q 846 644 811 725 q 881 461 881 563 q 842 267 881 353 q 736 122 803 181 q 580 31 669 63 q 389 -1 490 -1 q 262 20 319 -1 q 142 78 204 42 m 140 433 q 163 306 140 369 q 225 190 185 242 q 322 107 265 139 q 444 75 378 75 q 570 106 514 75 q 666 187 626 136 q 726 302 706 238 q 747 435 747 367 q 722 573 747 508 q 651 686 696 638 q 547 763 607 735 q 415 792 486 792 q 285 761 338 792 q 200 681 232 731 q 154 566 168 631 q 140 433 140 501 m 500 986 l 472 971 q 449 972 457 971 q 433 978 442 974 q 413 994 425 983 q 376 1021 400 1004 q 360 1039 367 1029 q 346 1058 353 1049 l 344 1061 q 318 1119 326 1086 q 322 1132 318 1126 q 329 1147 326 1138 l 351 1150 q 385 1142 371 1150 q 418 1122 400 1135 l 444 1106 l 485 1051 l 500 986 z "},"":{"ha":893,"x_min":7,"x_max":881,"o":"m 142 78 q 97 122 121 89 q 54 196 74 156 q 22 274 35 236 q 8 333 8 313 l 8 342 q 8 372 8 346 q 7 414 7 397 q 36 585 7 513 q 118 715 65 658 q 244 814 171 771 q 406 897 317 857 l 417 897 q 601 867 517 897 q 749 781 686 838 q 846 644 811 725 q 881 461 881 563 q 842 267 881 353 q 736 122 803 181 q 580 31 669 63 q 389 -1 490 -1 q 262 20 319 -1 q 142 78 204 42 m 140 433 q 163 306 140 369 q 225 190 185 242 q 322 107 265 139 q 444 75 378 75 q 570 106 514 75 q 666 187 626 136 q 726 302 706 238 q 747 435 747 367 q 722 573 747 508 q 651 686 696 638 q 547 763 607 735 q 415 792 486 792 q 285 761 338 792 q 200 681 232 731 q 154 566 168 631 q 140 433 140 501 m 368 1054 l 408 1108 l 435 1125 q 467 1145 453 1138 q 501 1153 482 1153 l 524 1150 q 531 1135 526 1140 q 535 1122 535 1129 q 508 1064 526 1089 l 507 1061 q 493 1042 500 1051 q 476 1024 486 1032 q 440 997 453 1007 q 419 981 428 986 q 403 975 411 976 q 381 974 394 974 l 353 989 l 368 1054 z "},"":{"ha":893,"x_min":7,"x_max":881,"o":"m 142 78 q 97 122 121 89 q 54 196 74 156 q 22 274 35 236 q 8 333 8 313 l 8 342 q 8 372 8 346 q 7 414 7 397 q 36 585 7 513 q 118 715 65 658 q 244 814 171 771 q 406 897 317 857 l 417 897 q 601 867 517 897 q 749 781 686 838 q 846 644 811 725 q 881 461 881 563 q 842 267 881 353 q 736 122 803 181 q 580 31 669 63 q 389 -1 490 -1 q 262 20 319 -1 q 142 78 204 42 m 140 433 q 163 306 140 369 q 225 190 185 242 q 322 107 265 139 q 444 75 378 75 q 570 106 514 75 q 666 187 626 136 q 726 302 706 238 q 747 435 747 367 q 722 573 747 508 q 651 686 696 638 q 547 763 607 735 q 415 792 486 792 q 285 761 338 792 q 200 681 232 731 q 154 566 168 631 q 140 433 140 501 m 561 968 q 540 971 546 968 q 529 980 535 974 q 513 998 524 986 q 479 1026 503 1010 q 458 1038 471 1033 q 438 1050 444 1042 q 420 1039 432 1042 q 401 1029 408 1036 q 367 1001 378 1013 q 351 983 357 989 q 338 974 344 976 q 317 971 331 971 l 289 986 l 304 1051 l 344 1106 l 371 1122 q 404 1142 390 1133 q 438 1150 418 1150 l 460 1147 l 460 1144 q 485 1139 472 1142 q 531 1115 499 1136 l 574 1049 l 589 983 l 561 968 z "},"":{"ha":893,"x_min":7,"x_max":881,"o":"m 140 433 q 154 566 140 501 q 200 681 168 631 q 285 761 232 731 q 415 792 338 792 q 547 763 486 792 q 651 686 607 735 q 722 573 696 638 q 747 435 747 508 q 726 302 747 367 q 666 187 706 238 q 570 106 626 136 q 444 75 514 75 q 322 107 378 75 q 225 190 265 139 q 163 306 185 242 q 140 433 140 369 m 142 78 q 262 20 204 42 q 389 -1 319 -1 q 580 31 490 -1 q 736 122 669 63 q 842 267 803 181 q 881 461 881 353 q 846 644 881 563 q 749 781 811 725 q 601 867 686 838 q 417 897 517 897 l 406 897 q 244 814 317 857 q 118 715 171 771 q 36 585 65 658 q 7 414 7 513 q 8 372 7 397 q 8 342 8 346 l 8 333 q 22 274 8 313 q 54 196 35 236 q 97 122 74 156 q 142 78 121 89 m 335 1143 q 310 1131 318 1135 q 293 1114 303 1126 l 236 1043 l 221 997 q 230 981 224 988 q 250 969 236 974 q 270 972 264 969 q 283 979 276 974 q 299 995 289 985 q 333 1022 310 1006 q 352 1032 340 1029 q 369 1043 364 1035 q 379 1035 372 1038 q 393 1031 386 1033 q 422 1009 411 1018 q 440 994 432 1000 q 456 983 447 988 q 478 976 464 979 l 517 972 q 547 981 528 975 q 576 997 565 986 l 636 1061 q 649 1091 647 1082 q 651 1107 651 1100 q 650 1114 651 1110 q 649 1124 649 1118 l 649 1126 l 613 1146 q 592 1144 597 1146 q 582 1136 588 1142 q 567 1119 576 1131 q 535 1092 557 1108 q 516 1081 528 1085 q 499 1069 504 1078 q 486 1077 494 1074 q 471 1083 478 1081 q 417 1126 446 1106 q 372 1146 388 1146 l 360 1146 l 335 1143 z "},"":{"ha":893,"x_min":7,"x_max":881,"o":"m 142 78 q 97 122 121 89 q 54 196 74 156 q 22 274 35 236 q 8 333 8 313 l 8 342 q 8 372 8 346 q 7 414 7 397 q 36 585 7 513 q 118 715 65 658 q 244 814 171 771 q 406 897 317 857 l 417 897 q 601 867 517 897 q 749 781 686 838 q 846 644 811 725 q 881 461 881 563 q 842 267 881 353 q 736 122 803 181 q 580 31 669 63 q 389 -1 490 -1 q 262 20 319 -1 q 142 78 204 42 m 140 433 q 163 306 140 369 q 225 190 185 242 q 322 107 265 139 q 444 75 378 75 q 570 106 514 75 q 666 187 626 136 q 726 302 706 238 q 747 435 747 367 q 722 573 747 508 q 651 686 696 638 q 547 763 607 735 q 415 792 486 792 q 285 761 338 792 q 200 681 232 731 q 154 566 168 631 q 140 433 140 501 m 481 1007 q 478 1020 479 1014 q 476 1036 476 1026 q 481 1072 476 1053 q 496 1100 485 1090 q 519 1113 506 1110 q 550 1117 533 1117 q 602 1098 590 1107 q 614 1081 614 1089 l 613 1067 q 594 1001 613 1026 q 536 976 575 976 l 525 976 l 481 1007 m 264 1006 q 261 1019 263 1013 q 260 1035 260 1025 q 264 1070 260 1051 q 279 1099 268 1089 q 303 1112 289 1108 q 333 1115 317 1115 q 385 1097 374 1106 q 397 1079 397 1088 l 396 1065 q 377 1000 396 1025 q 319 975 358 975 l 308 975 l 264 1006 z "},"":{"ha":485,"x_min":24,"x_max":464,"o":"m 313 186 q 324 179 315 183 q 338 175 333 175 l 464 171 l 464 186 l 413 208 q 398 227 413 208 q 364 272 383 246 q 323 326 344 299 q 288 371 301 354 q 281 382 285 374 q 274 393 276 390 l 274 397 q 288 433 274 411 q 322 474 301 454 q 365 509 342 494 q 407 524 388 524 l 400 533 l 299 533 q 300 522 299 528 q 307 518 301 522 q 313 511 313 514 q 305 490 313 501 q 286 467 297 478 q 263 446 275 456 q 242 429 251 436 q 238 425 238 425 l 163 511 q 169 517 165 514 q 175 522 174 519 l 176 528 l 175 533 q 161 535 172 533 q 138 540 150 538 q 114 543 125 542 q 99 544 103 544 l 86 544 q 61 528 61 544 q 62 524 61 525 q 63 522 63 522 q 75 515 65 519 q 88 511 85 511 l 188 403 q 194 392 192 400 q 200 382 197 385 l 200 376 q 181 333 200 361 q 133 275 161 304 q 74 223 104 246 q 24 197 44 200 l 24 186 l 153 186 q 142 206 153 196 q 125 219 132 215 q 147 247 133 231 q 175 279 160 263 q 206 311 190 296 q 238 338 222 326 q 292 269 272 294 q 322 231 313 244 q 335 213 332 217 q 338 208 338 208 q 327 196 338 204 q 313 186 317 188 z "},"":{"ha":893,"x_min":7,"x_max":881,"o":"m 142 78 q 261 20 204 42 q 389 -1 318 -1 q 580 31 490 -1 q 736 122 669 63 q 842 267 803 181 q 881 461 881 353 q 846 644 881 563 q 749 781 811 725 q 601 867 686 838 q 417 897 517 897 l 406 897 q 244 814 317 857 q 118 715 171 771 q 36 585 65 658 q 7 414 7 513 q 8 372 7 397 q 8 342 8 346 l 8 333 q 22 274 8 313 q 54 196 35 236 q 97 122 74 156 q 142 78 121 89 m 140 433 q 154 566 140 501 q 200 681 168 631 q 285 761 232 731 q 415 792 338 792 q 511 776 465 792 q 596 733 557 761 q 573 690 592 726 q 512 588 554 654 q 400 422 469 521 q 224 192 331 322 q 162 306 183 243 q 140 433 140 369 m 747 435 q 726 302 747 367 q 666 187 706 238 q 570 106 626 136 q 444 75 514 75 q 397 80 415 75 q 363 92 378 85 q 330 108 347 100 q 286 125 313 117 l 667 668 q 726 560 704 619 q 747 435 747 501 z "},"":{"ha":944,"x_min":10,"x_max":938,"o":"m 129 739 q 103 741 121 739 q 67 749 86 743 q 33 765 49 756 q 10 790 17 775 q 21 799 13 794 q 38 806 29 803 q 53 813 46 810 q 63 817 60 815 q 106 834 79 825 q 158 851 133 843 q 202 863 183 858 q 221 868 221 868 l 275 817 l 275 183 q 294 131 275 151 q 339 97 313 110 q 394 80 365 85 q 446 75 424 75 q 513 83 467 75 q 606 107 558 90 q 688 149 653 124 q 724 211 724 175 l 724 711 q 713 723 724 714 q 696 739 701 732 q 669 749 689 740 q 643 764 649 758 q 642 767 643 764 q 642 776 642 771 q 669 821 642 806 q 733 843 697 836 q 804 851 769 850 q 853 853 839 853 l 853 78 l 938 78 q 920 36 938 51 q 878 13 903 21 q 828 1 854 4 q 785 -1 803 -1 q 763 -1 776 -1 q 749 0 749 0 q 740 15 744 4 q 731 40 735 26 q 724 67 726 53 q 721 93 721 82 q 724 107 721 103 q 561 17 644 40 q 379 -6 478 -6 q 353 -3 371 -6 q 313 -1 336 -1 q 274 -1 290 -1 q 249 0 257 0 q 217 27 238 8 q 178 69 197 46 q 144 116 158 92 q 129 158 129 140 l 129 739 m 543 988 l 515 972 q 492 974 500 972 q 476 980 485 975 q 456 995 468 985 q 419 1022 443 1006 q 403 1040 410 1031 q 389 1060 396 1050 l 388 1063 q 361 1121 369 1088 q 365 1133 361 1128 q 372 1149 369 1139 l 394 1151 q 428 1144 414 1151 q 461 1124 443 1136 l 488 1107 l 528 1053 l 543 988 z "},"":{"ha":944,"x_min":10,"x_max":938,"o":"m 129 739 q 103 741 121 739 q 67 749 86 743 q 33 765 49 756 q 10 790 17 775 q 21 799 13 794 q 38 806 29 803 q 53 813 46 810 q 63 817 60 815 q 106 834 79 825 q 158 851 133 843 q 202 863 183 858 q 221 868 221 868 l 275 817 l 275 183 q 294 131 275 151 q 339 97 313 110 q 394 80 365 85 q 446 75 424 75 q 513 83 467 75 q 606 107 558 90 q 688 149 653 124 q 724 211 724 175 l 724 711 q 713 723 724 714 q 696 739 701 732 q 669 749 689 740 q 643 764 649 758 q 642 767 643 764 q 642 776 642 771 q 669 821 642 806 q 733 843 697 836 q 804 851 769 850 q 853 853 839 853 l 853 78 l 938 78 q 920 36 938 51 q 878 13 903 21 q 828 1 854 4 q 785 -1 803 -1 q 763 -1 776 -1 q 749 0 749 0 q 740 15 744 4 q 731 40 735 26 q 724 67 726 53 q 721 93 721 82 q 724 107 721 103 q 561 17 644 40 q 379 -6 478 -6 q 353 -3 371 -6 q 313 -1 336 -1 q 274 -1 290 -1 q 249 0 257 0 q 217 27 238 8 q 178 69 197 46 q 144 116 158 92 q 129 158 129 140 l 129 739 m 429 1053 l 469 1107 l 496 1124 q 528 1144 514 1136 q 563 1151 543 1151 l 585 1149 q 592 1133 588 1139 q 596 1121 596 1128 q 569 1063 588 1088 l 568 1060 q 554 1040 561 1050 q 538 1022 547 1031 q 501 995 514 1006 q 481 980 489 985 q 464 974 472 975 q 442 972 456 972 l 414 988 l 429 1053 z "},"":{"ha":944,"x_min":10,"x_max":938,"o":"m 129 739 q 103 741 121 739 q 67 749 86 743 q 33 765 49 756 q 10 790 17 775 q 21 799 13 794 q 38 806 29 803 q 53 813 46 810 q 63 817 60 815 q 106 834 79 825 q 158 851 133 843 q 202 863 183 858 q 221 868 221 868 l 275 817 l 275 183 q 294 131 275 151 q 339 97 313 110 q 394 80 365 85 q 446 75 424 75 q 513 83 467 75 q 606 107 558 90 q 688 149 653 124 q 724 211 724 175 l 724 711 q 713 723 724 714 q 696 739 701 732 q 669 749 689 740 q 643 764 649 758 q 642 767 643 764 q 642 776 642 771 q 669 821 642 806 q 733 843 697 836 q 804 851 769 850 q 853 853 839 853 l 853 78 l 938 78 q 920 36 938 51 q 878 13 903 21 q 828 1 854 4 q 785 -1 803 -1 q 763 -1 776 -1 q 749 0 749 0 q 740 15 744 4 q 731 40 735 26 q 724 67 726 53 q 721 93 721 82 q 724 107 721 103 q 561 17 644 40 q 379 -6 478 -6 q 353 -3 371 -6 q 313 -1 336 -1 q 274 -1 290 -1 q 249 0 257 0 q 217 27 238 8 q 178 69 197 46 q 144 116 158 92 q 129 158 129 140 l 129 739 m 603 968 q 582 971 588 968 q 571 980 576 974 q 555 998 565 986 q 521 1026 544 1010 q 499 1038 513 1033 q 479 1050 486 1042 q 462 1039 474 1042 q 443 1029 450 1036 q 409 1001 419 1013 q 392 983 399 989 q 379 974 386 976 q 358 971 372 971 l 331 986 l 346 1051 l 386 1106 l 413 1122 q 446 1142 432 1133 q 479 1150 460 1150 l 501 1147 l 501 1144 q 527 1139 514 1142 q 572 1115 540 1136 l 615 1049 l 631 983 l 603 968 z "},"":{"ha":944,"x_min":10,"x_max":938,"o":"m 129 739 l 129 158 q 144 115 129 139 q 178 69 158 92 q 217 27 197 46 q 249 0 238 8 q 274 -1 257 0 q 313 -1 290 -1 q 353 -3 336 -1 q 379 -6 371 -6 q 561 17 478 -6 q 724 107 644 40 q 721 93 721 101 q 724 67 721 82 q 731 39 726 53 q 740 15 735 25 q 749 0 744 4 q 763 -1 749 0 q 785 -1 776 -1 q 828 1 803 -1 q 878 13 854 4 q 920 36 903 21 q 938 78 938 51 l 853 78 l 853 853 q 804 851 839 853 q 733 843 769 850 q 669 821 697 836 q 642 776 642 806 q 642 767 642 771 q 643 764 643 764 q 653 757 646 761 q 668 749 660 753 q 684 742 676 746 q 696 739 692 739 q 713 723 701 732 q 724 711 724 714 l 724 211 q 688 149 724 175 q 606 107 653 124 q 513 83 558 90 q 446 75 467 75 q 394 80 424 75 q 339 97 365 85 q 294 131 313 110 q 275 183 275 151 l 275 817 l 221 868 q 202 863 221 868 q 158 851 183 858 q 106 834 133 843 q 63 817 79 825 q 53 813 60 815 q 37 806 46 810 q 20 799 28 803 q 10 790 13 794 q 33 765 17 775 q 67 749 49 756 q 103 741 86 743 q 129 739 121 739 m 542 996 l 586 965 l 597 965 q 655 990 636 965 q 674 1056 674 1015 l 675 1069 q 663 1087 675 1078 q 611 1106 651 1096 q 581 1102 594 1106 q 557 1089 567 1099 q 542 1060 546 1079 q 538 1025 538 1042 q 539 1009 538 1015 q 542 996 540 1003 m 325 994 l 369 964 l 381 964 q 438 989 419 964 q 457 1054 457 1014 l 458 1068 q 447 1085 458 1076 q 394 1104 435 1094 q 364 1101 378 1104 q 340 1088 350 1097 q 325 1059 329 1078 q 321 1024 321 1040 q 322 1008 321 1014 q 325 994 324 1001 z "},"":{"ha":1007,"x_min":11,"x_max":994,"o":"m 467 114 q 463 287 467 201 q 446 451 460 372 q 403 597 432 529 q 324 717 374 665 q 198 803 274 769 q 14 844 122 836 l 11 860 q 13 867 11 861 q 14 874 14 874 q 26 888 17 879 q 42 899 35 896 q 58 901 46 900 q 85 902 71 901 q 114 903 100 903 q 133 903 128 903 q 263 881 206 903 q 369 824 321 860 q 459 739 418 788 q 540 635 500 690 q 644 733 599 678 q 740 839 690 789 q 849 924 789 889 q 994 958 908 958 q 977 872 994 903 q 932 821 960 840 q 868 789 904 801 q 794 760 832 776 q 721 719 757 744 q 657 649 685 694 q 612 533 629 604 q 594 356 594 463 q 604 265 594 310 q 625 175 614 219 q 646 87 636 131 q 656 0 656 43 l 435 0 q 440 28 435 15 q 451 55 444 42 q 462 83 457 68 q 467 114 467 97 m 471 1047 l 511 1101 l 538 1118 q 570 1138 556 1131 q 604 1146 585 1146 l 626 1143 q 633 1128 629 1133 q 638 1115 638 1122 q 611 1057 629 1082 l 610 1054 q 596 1035 603 1044 q 579 1017 589 1025 q 543 990 556 1000 q 522 974 531 979 q 506 968 514 969 q 483 967 497 967 l 456 982 l 471 1047 z "},"":{"ha":479,"x_min":-7,"x_max":461,"o":"m -7 21 l 17 0 q 26 -1 18 0 q 44 -2 35 -1 q 64 -3 54 -3 q 79 -4 74 -4 l 82 -4 q 95 -5 88 -4 q 114 -6 103 -6 q 147 -4 129 -6 q 181 1 165 -3 q 206 13 196 6 q 217 33 217 21 q 215 40 217 35 q 214 44 214 44 q 192 57 208 49 q 169 65 176 65 l 169 203 q 274 222 222 207 q 368 265 326 238 q 435 335 410 293 q 461 435 461 376 q 436 539 461 499 q 369 603 411 579 q 275 635 328 626 q 167 646 222 644 l 167 796 q 190 817 174 803 q 213 840 207 832 q 214 845 213 840 q 215 851 215 850 l 213 861 q 192 867 207 863 q 158 875 176 871 q 124 882 140 879 q 103 885 108 885 l 79 885 q 64 878 74 882 q 44 872 54 875 q 25 865 33 868 q 15 861 17 863 q 15 858 15 861 q 14 853 14 856 q 24 750 14 806 q 53 619 35 694 l 53 300 q 48 243 50 282 q 44 165 46 204 q 40 97 42 126 q 38 65 39 67 l -7 21 m 167 576 q 176 577 169 576 q 189 578 183 578 q 251 563 219 578 q 309 524 283 547 q 351 470 335 500 q 368 411 368 440 q 349 346 368 371 q 300 308 329 321 q 235 290 271 294 q 167 285 200 285 l 167 576 z "},"":{"ha":561,"x_min":13,"x_max":543,"o":"m 47 414 l 47 403 l 63 214 q 68 133 65 175 q 71 71 71 90 q 70 64 71 67 q 69 61 69 61 l 89 -183 l 108 -203 q 123 -201 113 -203 q 144 -199 133 -200 l 147 -199 q 160 -199 153 -199 q 179 -197 168 -199 l 201 -196 q 227 -190 219 -193 q 235 -172 235 -187 l 235 -164 q 233 -158 235 -162 q 232 -153 232 -153 q 226 -134 231 -151 q 217 -92 222 -117 q 207 -39 213 -68 q 197 15 201 -10 q 188 55 192 39 q 182 71 183 71 l 132 650 l 285 658 q 326 647 307 658 q 358 619 344 636 q 378 581 371 601 q 386 539 386 560 q 372 495 386 514 q 337 465 358 476 q 288 447 315 453 q 232 439 260 440 l 229 364 l 307 353 q 402 311 374 353 q 431 210 431 269 q 431 174 431 190 q 432 143 432 157 q 417 90 432 107 q 346 74 403 74 q 293 83 318 83 q 267 77 278 83 q 256 51 256 71 q 257 35 256 44 q 263 13 258 25 q 375 20 324 13 q 464 52 426 28 q 522 120 501 76 q 543 236 543 164 q 542 255 543 243 q 541 278 542 267 q 539 299 540 290 q 538 307 538 307 q 519 334 533 317 q 489 368 506 351 q 456 399 472 385 q 429 417 439 413 q 461 447 449 433 q 481 473 474 460 q 492 501 489 486 q 494 536 494 517 q 462 631 494 592 q 380 694 429 669 q 275 728 331 718 q 174 739 219 739 l 136 739 q 85 729 101 732 q 62 724 68 726 q 56 721 56 722 q 54 719 56 721 q 44 701 53 717 q 24 665 35 685 q 13 643 13 644 l 47 414 z "},"":{"ha":847,"x_min":14,"x_max":829,"o":"m 401 604 q 442 545 421 576 q 479 481 463 514 q 507 412 496 447 q 518 340 518 376 l 311 340 q 340 476 311 407 q 401 604 368 546 m 607 -22 q 615 -22 608 -22 q 633 -23 624 -22 q 653 -24 643 -24 q 671 -24 664 -24 l 676 -24 q 690 -24 681 -24 q 711 -25 700 -25 q 749 -24 729 -25 q 788 -18 769 -22 q 817 -6 806 -14 q 829 13 829 1 q 816 25 829 13 q 787 54 803 38 q 757 87 771 71 q 740 110 743 103 q 695 213 721 153 q 642 338 669 274 q 588 466 614 403 q 540 579 561 529 q 504 660 518 629 q 490 692 490 692 l 440 749 q 384 725 410 749 q 338 664 358 701 q 299 581 317 626 q 268 489 282 535 q 244 403 254 443 q 225 340 233 364 q 204 289 218 324 q 175 215 190 254 q 146 141 160 176 q 125 90 132 106 q 102 67 118 78 q 68 47 86 56 q 35 31 50 38 q 14 22 19 25 l 14 -8 l 233 1 q 256 10 240 1 q 278 22 272 18 q 255 41 267 35 q 233 53 243 47 q 215 69 222 60 q 208 97 208 78 q 213 144 208 118 q 225 193 217 169 q 244 233 233 217 q 271 253 256 250 l 535 274 q 564 251 547 274 q 595 197 581 228 q 620 132 610 165 q 631 79 631 99 q 624 34 631 53 q 585 1 618 15 l 607 -22 m 493 853 l 478 918 l 438 972 l 411 989 q 378 1009 393 1001 q 344 1017 364 1017 l 322 1014 q 315 999 319 1004 q 311 986 311 993 q 338 928 319 951 l 339 925 q 353 906 346 915 q 369 888 360 896 q 406 860 393 871 q 426 845 418 850 q 442 839 435 840 q 465 838 450 838 l 493 853 z "},"":{"ha":847,"x_min":14,"x_max":829,"o":"m 401 604 q 442 545 421 576 q 479 481 463 514 q 507 412 496 447 q 518 340 518 376 l 311 340 q 340 476 311 407 q 401 604 368 546 m 607 -22 q 615 -22 608 -22 q 633 -23 624 -22 q 653 -24 643 -24 q 671 -24 664 -24 l 676 -24 q 690 -24 681 -24 q 711 -25 700 -25 q 749 -24 729 -25 q 788 -18 769 -22 q 817 -6 806 -14 q 829 13 829 1 q 816 25 829 13 q 787 54 803 38 q 757 87 771 71 q 740 110 743 103 q 695 213 721 153 q 642 338 669 274 q 588 466 614 403 q 540 579 561 529 q 504 660 518 629 q 490 692 490 692 l 440 749 q 384 725 410 749 q 338 664 358 701 q 299 581 317 626 q 268 489 282 535 q 244 403 254 443 q 225 340 233 364 q 204 289 218 324 q 175 215 190 254 q 146 141 160 176 q 125 90 132 106 q 102 67 118 78 q 68 47 86 56 q 35 31 50 38 q 14 22 19 25 l 14 -8 l 233 1 q 256 10 240 1 q 278 22 272 18 q 255 41 267 35 q 233 53 243 47 q 215 69 222 60 q 208 97 208 78 q 213 144 208 118 q 225 193 217 169 q 244 233 233 217 q 271 253 256 250 l 535 274 q 564 251 547 274 q 595 197 581 228 q 620 132 610 165 q 631 79 631 99 q 624 34 631 53 q 585 1 618 15 l 607 -22 m 356 925 l 340 860 l 368 844 q 390 846 382 844 q 407 852 399 847 q 428 867 415 857 q 464 894 440 878 q 481 913 474 903 q 494 932 488 922 l 496 935 q 522 993 514 958 q 518 1006 522 1000 q 511 1021 514 1011 l 489 1024 q 455 1016 469 1024 q 422 996 440 1008 l 396 979 l 356 925 z "},"":{"ha":847,"x_min":14,"x_max":829,"o":"m 401 604 q 442 545 421 576 q 479 481 463 514 q 507 412 496 447 q 518 340 518 376 l 311 340 q 340 476 311 407 q 401 604 368 546 m 607 -22 q 615 -22 608 -22 q 633 -23 624 -22 q 653 -24 643 -24 q 671 -24 664 -24 l 676 -24 q 690 -24 681 -24 q 711 -25 700 -25 q 749 -24 729 -25 q 788 -18 769 -22 q 817 -6 806 -14 q 829 13 829 1 q 816 25 829 13 q 787 54 803 38 q 757 87 771 71 q 740 110 743 103 q 695 213 721 153 q 642 338 669 274 q 588 466 614 403 q 540 579 561 529 q 504 660 518 629 q 490 692 490 692 l 440 749 q 384 725 410 749 q 338 664 358 701 q 299 581 317 626 q 268 489 282 535 q 244 403 254 443 q 225 340 233 364 q 204 289 218 324 q 175 215 190 254 q 146 141 160 176 q 125 90 132 106 q 102 67 118 78 q 68 47 86 56 q 35 31 50 38 q 14 22 19 25 l 14 -8 l 233 1 q 256 10 240 1 q 278 22 272 18 q 255 41 267 35 q 233 53 243 47 q 215 69 222 60 q 208 97 208 78 q 213 144 208 118 q 225 193 217 169 q 244 233 233 217 q 271 253 256 250 l 535 274 q 564 251 547 274 q 595 197 581 228 q 620 132 610 165 q 631 79 631 99 q 624 34 631 53 q 585 1 618 15 l 607 -22 m 528 843 l 556 858 l 540 924 l 497 990 q 452 1014 465 1011 q 426 1019 439 1017 l 426 1022 l 404 1025 q 371 1017 385 1025 q 338 997 357 1008 l 311 981 l 271 926 l 256 861 l 283 846 q 305 849 299 846 q 317 858 311 851 q 334 876 324 865 q 368 904 344 888 q 387 914 375 911 q 404 925 399 917 q 424 913 411 917 q 446 901 438 908 q 481 873 471 885 q 496 855 490 861 q 507 846 501 849 q 528 843 513 843 z "},"":{"ha":847,"x_min":14,"x_max":829,"o":"m 585 1 q 624 34 618 15 q 631 79 631 53 q 620 132 631 99 q 595 197 610 165 q 564 251 581 228 q 535 274 547 274 l 271 253 q 244 233 256 250 q 225 193 233 217 q 213 144 217 169 q 208 97 208 118 q 215 69 208 78 q 233 53 222 60 q 255 41 243 47 q 278 22 267 35 q 256 10 272 18 q 233 1 240 1 l 14 -8 l 14 22 q 35 31 19 25 q 68 47 50 38 q 102 67 86 56 q 125 90 118 78 q 146 141 132 106 q 175 215 160 176 q 204 289 190 254 q 225 340 218 324 q 244 403 233 364 q 268 489 254 443 q 299 581 282 535 q 338 664 317 626 q 384 725 358 701 q 440 749 410 749 l 490 692 q 504 660 490 692 q 540 579 518 629 q 588 466 561 529 q 642 338 614 403 q 695 213 669 274 q 740 110 721 153 q 757 87 743 103 q 787 54 771 71 q 816 25 803 38 q 829 13 829 13 q 817 -6 829 1 q 788 -18 806 -14 q 749 -24 769 -22 q 711 -25 729 -25 q 690 -24 700 -25 q 676 -24 681 -24 l 671 -24 q 653 -24 664 -24 q 633 -23 643 -24 q 615 -22 624 -22 q 607 -22 608 -22 l 585 1 m 401 604 q 340 476 368 546 q 311 340 311 407 l 518 340 q 507 412 518 376 q 479 481 496 447 q 442 545 463 514 q 401 604 421 576 m 315 1011 l 340 1014 l 353 1014 q 397 994 368 1014 q 451 951 426 974 q 467 945 458 949 q 479 938 475 942 q 497 949 485 946 q 515 960 508 953 q 547 988 538 976 q 563 1004 557 999 q 573 1012 568 1010 q 593 1014 578 1014 l 629 994 l 629 992 q 631 982 629 986 q 632 975 632 978 q 630 959 632 968 q 617 929 628 950 l 557 865 q 527 849 546 854 q 497 840 508 843 l 458 844 q 436 851 444 847 q 420 862 428 856 q 402 877 413 868 q 374 899 392 886 q 360 903 367 901 q 350 911 353 906 q 333 900 344 903 q 314 890 321 897 q 280 863 290 874 q 263 847 269 853 q 251 840 257 842 q 231 838 244 838 q 210 849 217 842 q 201 865 204 856 l 217 911 l 274 982 q 291 999 283 994 q 315 1011 299 1003 z "},"":{"ha":847,"x_min":14,"x_max":829,"o":"m 401 604 q 442 545 421 576 q 479 481 463 514 q 507 412 496 447 q 518 340 518 376 l 311 340 q 340 476 311 407 q 401 604 368 546 m 607 -22 q 615 -22 608 -22 q 633 -23 624 -22 q 653 -24 643 -24 q 671 -24 664 -24 l 676 -24 q 690 -24 681 -24 q 711 -25 700 -25 q 749 -24 729 -25 q 788 -18 769 -22 q 817 -6 806 -14 q 829 13 829 1 q 816 25 829 13 q 787 54 803 38 q 757 87 771 71 q 740 110 743 103 q 695 213 721 153 q 642 338 669 274 q 588 466 614 403 q 540 579 561 529 q 504 660 518 629 q 490 692 490 692 l 440 749 q 384 725 410 749 q 338 664 358 701 q 299 581 317 626 q 268 489 282 535 q 244 403 254 443 q 225 340 233 364 q 204 289 218 324 q 175 215 190 254 q 146 141 160 176 q 125 90 132 106 q 102 67 118 78 q 68 47 86 56 q 35 31 50 38 q 14 22 19 25 l 14 -8 l 233 1 q 256 10 240 1 q 278 22 272 18 q 255 41 267 35 q 233 53 243 47 q 215 69 222 60 q 208 97 208 78 q 213 144 208 118 q 225 193 217 169 q 244 233 233 217 q 271 253 256 250 l 535 274 q 564 251 547 274 q 595 197 581 228 q 620 132 610 165 q 631 79 631 99 q 624 34 631 53 q 585 1 618 15 l 607 -22 m 472 861 l 517 831 l 528 831 q 585 856 567 831 q 604 921 604 881 l 606 935 q 594 952 606 943 q 542 971 582 961 q 511 967 525 971 q 488 954 497 964 q 472 926 476 944 q 468 890 468 907 q 469 874 468 881 q 472 861 471 868 m 256 860 l 300 829 l 311 829 q 369 854 350 829 q 388 919 388 879 l 389 933 q 377 951 389 942 q 325 969 365 960 q 294 966 308 969 q 271 953 281 963 q 256 924 260 943 q 251 889 251 906 q 253 873 251 879 q 256 860 254 867 z "},"":{"ha":847,"x_min":14,"x_max":829,"o":"m 401 604 q 442 545 421 576 q 479 481 463 514 q 507 412 496 447 q 518 340 518 376 l 311 340 q 340 476 311 407 q 401 604 368 546 m 607 -22 q 615 -22 608 -22 q 633 -23 624 -22 q 653 -24 643 -24 q 671 -24 664 -24 l 676 -24 q 690 -24 681 -24 q 711 -25 700 -25 q 749 -24 729 -25 q 788 -18 769 -22 q 817 -6 806 -14 q 829 13 829 1 q 816 25 829 13 q 787 54 803 38 q 757 87 771 71 q 740 110 743 103 q 695 213 721 153 q 642 338 669 274 q 588 466 614 403 q 540 579 561 529 q 504 660 518 629 q 490 692 490 692 l 440 749 q 384 725 410 749 q 338 664 358 701 q 299 581 317 626 q 268 489 282 535 q 244 403 254 443 q 225 340 233 364 q 204 289 218 324 q 175 215 190 254 q 146 141 160 176 q 125 90 132 106 q 102 67 118 78 q 68 47 86 56 q 35 31 50 38 q 14 22 19 25 l 14 -8 l 233 1 q 256 10 240 1 q 278 22 272 18 q 255 41 267 35 q 233 53 243 47 q 215 69 222 60 q 208 97 208 78 q 213 144 208 118 q 225 193 217 169 q 244 233 233 217 q 271 253 256 250 l 535 274 q 564 251 547 274 q 595 197 581 228 q 620 132 610 165 q 631 79 631 99 q 624 34 631 53 q 585 1 618 15 l 607 -22 m 356 857 l 400 826 l 411 826 q 469 851 450 826 q 488 917 488 876 l 489 931 q 477 948 489 939 q 425 967 465 957 q 394 963 408 967 q 371 950 381 960 q 356 922 360 940 q 351 886 351 903 q 353 870 351 876 q 356 857 354 864 z "},"":{"ha":1169,"x_min":3,"x_max":1151,"o":"m 574 -8 l 596 -32 q 622 -33 599 -32 q 660 -33 646 -33 l 665 -33 q 679 -34 669 -33 q 700 -35 689 -35 q 738 -33 718 -35 q 776 -28 758 -32 q 806 -16 794 -24 q 818 3 818 -8 q 815 6 818 3 q 811 8 813 8 q 881 6 846 7 q 948 3 917 4 q 1003 1 979 1 q 1039 0 1026 0 l 1051 0 q 1088 19 1069 0 q 1119 66 1106 39 q 1142 121 1133 93 q 1151 165 1151 149 q 1076 140 1113 165 q 1015 89 1039 115 l 775 89 l 775 351 l 928 351 l 928 307 l 950 307 q 962 322 950 307 q 988 358 974 338 q 1017 402 1003 379 q 1039 440 1032 425 q 1040 449 1039 442 q 1040 460 1040 457 q 1040 474 1040 467 q 1039 483 1039 481 l 971 440 l 751 440 l 751 658 l 994 658 l 971 615 q 994 610 979 610 q 1031 624 1014 610 q 1063 660 1049 639 q 1086 706 1076 682 q 1103 747 1096 729 l 1082 747 q 1028 746 1064 747 q 946 742 992 744 q 850 738 900 740 q 754 733 800 736 q 673 728 708 731 q 619 724 638 725 l 619 703 q 629 681 622 697 q 643 658 636 665 l 643 307 l 486 694 l 478 775 q 406 750 438 775 q 348 685 374 725 q 303 595 322 644 q 268 498 283 546 q 241 408 253 450 q 221 343 229 367 q 199 290 214 326 q 168 211 185 253 q 136 133 151 169 q 114 81 121 96 q 91 57 107 68 q 57 37 75 46 q 24 22 39 28 q 3 13 8 15 l 3 -18 l 222 -8 q 245 0 229 -8 q 267 13 261 8 q 244 31 256 25 q 222 44 232 38 q 204 59 211 50 q 197 88 197 68 q 203 136 197 108 q 217 190 208 164 q 239 234 226 215 q 267 256 251 253 l 531 276 q 559 251 543 276 q 588 192 575 226 q 610 124 601 158 q 619 69 619 89 q 613 24 619 43 q 574 -8 607 6 m 397 607 q 438 548 417 579 q 475 483 458 517 q 503 414 492 450 q 514 343 514 378 l 307 343 q 335 479 307 410 q 397 607 364 549 z "},"":{"ha":668,"x_min":18,"x_max":658,"o":"m 353 -22 l 350 -93 q 321 -94 338 -93 q 290 -97 304 -96 q 265 -99 275 -99 q 254 -100 254 -100 q 242 -101 250 -100 q 225 -106 233 -101 q 210 -117 217 -110 q 204 -137 204 -125 l 256 -154 l 428 -136 l 414 -46 q 411 -28 413 -42 q 403 -1 410 -15 q 473 1 438 -1 q 542 13 508 4 q 605 40 575 22 q 658 89 635 57 q 649 100 657 93 q 636 108 642 107 q 632 110 636 108 q 625 113 628 113 q 619 110 624 113 q 615 108 615 108 q 572 91 592 100 q 531 74 551 82 q 488 60 510 65 q 440 56 467 56 q 318 74 375 56 q 217 126 261 92 q 144 211 172 160 q 108 329 115 263 l 108 349 q 128 458 108 403 q 182 558 147 514 q 265 631 217 603 q 369 660 313 660 q 417 658 397 660 q 453 647 436 656 q 488 619 471 638 q 528 571 506 601 q 548 590 543 574 q 553 622 553 606 q 552 638 553 632 q 551 647 551 644 q 552 657 551 650 q 553 674 553 664 q 548 707 553 690 q 528 728 543 724 l 429 728 q 264 703 339 728 q 134 631 189 679 q 49 512 79 583 q 18 344 18 440 q 106 89 18 178 q 360 -1 193 0 l 353 -22 z "},"":{"ha":563,"x_min":13,"x_max":544,"o":"m 13 21 q 60 17 28 19 q 134 13 93 15 q 221 8 175 11 q 308 4 267 6 q 383 1 350 3 q 432 0 415 0 l 444 0 q 481 19 463 0 q 513 66 499 39 q 535 121 526 93 q 544 165 544 149 q 469 140 506 165 q 408 89 432 115 l 168 89 l 168 351 l 321 351 l 321 307 l 343 307 q 355 322 343 307 q 381 358 367 338 q 410 402 396 379 q 432 440 425 425 q 433 449 432 442 q 433 460 433 457 q 433 474 433 467 q 432 483 432 481 l 364 440 l 144 440 l 144 658 l 388 658 l 364 615 q 388 610 371 610 q 425 624 408 610 q 455 660 442 639 q 478 706 468 682 q 496 747 489 729 l 475 747 q 421 746 457 747 q 339 742 385 744 q 243 738 293 740 q 147 732 193 735 q 65 727 101 729 q 13 724 29 725 l 13 703 q 22 681 15 697 q 36 658 29 665 l 36 65 l 13 21 m 332 856 l 317 921 l 276 975 l 250 992 q 217 1012 232 1004 q 183 1019 203 1019 l 161 1017 q 154 1001 158 1007 q 150 989 150 996 q 176 931 158 954 l 178 928 q 192 908 185 918 q 208 890 199 899 q 244 863 232 874 q 265 848 257 853 q 281 842 274 843 q 304 840 289 840 l 332 856 z "},"":{"ha":563,"x_min":13,"x_max":544,"o":"m 13 21 q 60 17 28 19 q 134 13 93 15 q 221 8 175 11 q 308 4 267 6 q 383 1 350 3 q 432 0 415 0 l 444 0 q 481 19 463 0 q 513 66 499 39 q 535 121 526 93 q 544 165 544 149 q 469 140 506 165 q 408 89 432 115 l 168 89 l 168 351 l 321 351 l 321 307 l 343 307 q 355 322 343 307 q 381 358 367 338 q 410 402 396 379 q 432 440 425 425 q 433 449 432 442 q 433 460 433 457 q 433 474 433 467 q 432 483 432 481 l 364 440 l 144 440 l 144 658 l 388 658 l 364 615 q 388 610 371 610 q 425 624 408 610 q 455 660 442 639 q 478 706 468 682 q 496 747 489 729 l 475 747 q 421 746 457 747 q 339 742 385 744 q 243 738 293 740 q 147 732 193 735 q 65 727 101 729 q 13 724 29 725 l 13 703 q 22 681 15 697 q 36 658 29 665 l 36 65 l 13 21 m 213 924 l 197 858 l 225 843 q 247 844 239 843 q 264 851 256 846 q 285 866 272 856 q 321 893 297 876 q 338 911 331 901 q 351 931 344 921 l 353 933 q 379 992 371 957 q 375 1004 379 999 q 368 1019 371 1010 l 346 1022 q 312 1015 326 1022 q 279 994 297 1007 l 253 978 l 213 924 z "},"":{"ha":563,"x_min":13,"x_max":544,"o":"m 13 21 q 60 17 28 19 q 134 13 93 15 q 221 8 175 11 q 308 4 267 6 q 383 1 350 3 q 432 0 415 0 l 444 0 q 481 19 463 0 q 513 66 499 39 q 535 121 526 93 q 544 165 544 149 q 469 140 506 165 q 408 89 432 115 l 168 89 l 168 351 l 321 351 l 321 307 l 343 307 q 355 322 343 307 q 381 358 367 338 q 410 402 396 379 q 432 440 425 425 q 433 449 432 442 q 433 460 433 457 q 433 474 433 467 q 432 483 432 481 l 364 440 l 144 440 l 144 658 l 388 658 l 364 615 q 388 610 371 610 q 425 624 408 610 q 455 660 442 639 q 478 706 468 682 q 496 747 489 729 l 475 747 q 421 746 457 747 q 339 742 385 744 q 243 738 293 740 q 147 732 193 735 q 65 727 101 729 q 13 724 29 725 l 13 703 q 22 681 15 697 q 36 658 29 665 l 36 65 l 13 21 m 382 843 l 410 858 l 394 924 l 351 990 q 306 1014 319 1011 q 281 1019 293 1017 l 281 1022 l 258 1025 q 225 1017 239 1025 q 192 997 211 1008 l 165 981 l 125 926 l 110 861 l 138 846 q 159 849 153 846 q 172 858 165 851 q 188 876 178 865 q 222 904 199 888 q 241 914 229 911 q 258 925 253 917 q 278 913 265 917 q 300 901 292 908 q 335 873 325 885 q 350 855 344 861 q 361 846 356 849 q 382 843 367 843 z "},"":{"ha":563,"x_min":13,"x_max":544,"o":"m 13 21 q 60 17 28 19 q 134 13 93 15 q 221 8 175 11 q 308 4 267 6 q 383 1 350 3 q 432 0 415 0 l 444 0 q 481 19 463 0 q 513 66 499 39 q 535 121 526 93 q 544 165 544 149 q 469 140 506 165 q 408 89 432 115 l 168 89 l 168 351 l 321 351 l 321 307 l 343 307 q 355 322 343 307 q 381 358 367 338 q 410 402 396 379 q 432 440 425 425 q 433 449 432 442 q 433 460 433 457 q 433 474 433 467 q 432 483 432 481 l 364 440 l 144 440 l 144 658 l 388 658 l 364 615 q 388 610 371 610 q 425 624 408 610 q 455 660 442 639 q 478 706 468 682 q 496 747 489 729 l 475 747 q 421 746 457 747 q 339 742 385 744 q 243 738 293 740 q 147 732 193 735 q 65 727 101 729 q 13 724 29 725 l 13 703 q 22 681 15 697 q 36 658 29 665 l 36 65 l 13 21 m 321 882 l 365 851 l 376 851 q 434 876 415 851 q 453 942 453 901 l 454 956 q 442 973 454 964 q 390 992 431 982 q 360 988 374 992 q 336 975 346 985 q 321 947 325 965 q 317 911 317 928 q 318 895 317 901 q 321 882 319 889 m 104 881 l 149 850 l 160 850 q 217 875 199 850 q 236 940 236 900 l 238 954 q 226 972 238 963 q 174 990 214 981 q 143 987 157 990 q 119 974 129 983 q 104 945 108 964 q 100 910 100 926 q 101 894 100 900 q 104 881 103 888 z "},"":{"ha":264,"x_min":21,"x_max":244,"o":"m 21 21 l 44 0 q 54 -1 46 0 q 72 -2 63 -1 q 92 -3 82 -3 q 107 -4 101 -4 l 110 -4 q 123 -5 115 -4 q 142 -6 131 -6 q 175 -4 157 -6 q 208 1 193 -3 q 234 13 224 6 q 244 33 244 21 q 243 40 244 35 q 242 44 242 44 q 220 57 236 49 q 197 65 204 65 l 197 658 q 220 680 204 665 q 242 703 236 694 q 243 708 242 703 q 244 714 244 713 l 242 724 q 221 729 236 725 q 188 738 206 733 q 153 744 169 742 q 132 747 138 747 l 108 747 q 93 741 103 744 q 73 734 83 738 q 54 728 63 731 q 44 724 46 725 q 44 721 44 724 q 43 715 43 718 q 51 643 43 681 q 67 567 58 606 q 83 490 75 529 q 90 411 90 450 q 89 397 90 400 l 89 264 q 86 212 89 244 q 79 147 83 179 q 71 91 75 115 q 65 65 67 67 l 21 21 m 221 851 l 206 917 l 165 971 l 139 988 q 106 1008 121 1000 q 72 1015 92 1015 l 50 1013 q 43 997 47 1003 q 39 985 39 992 q 65 926 47 950 l 67 924 q 81 904 74 914 q 97 886 88 894 q 133 859 121 869 q 154 844 146 849 q 170 838 163 839 q 193 836 178 836 l 221 851 z "},"":{"ha":264,"x_min":21,"x_max":244,"o":"m 21 21 l 44 0 q 54 -1 46 0 q 72 -2 63 -1 q 92 -3 82 -3 q 107 -4 101 -4 l 110 -4 q 123 -5 115 -4 q 142 -6 131 -6 q 175 -4 157 -6 q 208 1 193 -3 q 234 13 224 6 q 244 33 244 21 q 243 40 244 35 q 242 44 242 44 q 220 57 236 49 q 197 65 204 65 l 197 658 q 220 680 204 665 q 242 703 236 694 q 243 708 242 703 q 244 714 244 713 l 242 724 q 221 729 236 725 q 188 738 206 733 q 153 744 169 742 q 132 747 138 747 l 108 747 q 93 741 103 744 q 73 734 83 738 q 54 728 63 731 q 44 724 46 725 q 44 721 44 724 q 43 715 43 718 q 51 643 43 681 q 67 567 58 606 q 83 490 75 529 q 90 411 90 450 q 89 397 90 400 l 89 264 q 86 212 89 244 q 79 147 83 179 q 71 91 75 115 q 65 65 67 67 l 21 21 m 50 924 l 35 858 l 63 843 q 85 844 76 843 q 101 851 93 846 q 122 866 110 856 q 158 893 135 876 q 175 911 168 901 q 189 931 182 921 l 190 933 q 217 992 208 957 q 213 1004 217 999 q 206 1019 208 1010 l 183 1022 q 149 1015 164 1022 q 117 994 135 1007 l 90 978 l 50 924 z "},"":{"ha":264,"x_min":-14,"x_max":286,"o":"m 21 21 l 44 0 q 54 -1 46 0 q 72 -2 63 -1 q 92 -3 82 -3 q 107 -4 101 -4 l 110 -4 q 123 -5 115 -4 q 142 -6 131 -6 q 175 -4 157 -6 q 208 1 193 -3 q 234 13 224 6 q 244 33 244 21 q 243 40 244 35 q 242 44 242 44 q 220 57 236 49 q 197 65 204 65 l 197 658 q 220 680 204 665 q 242 703 236 694 q 243 708 242 703 q 244 714 244 713 l 242 724 q 221 729 236 725 q 188 738 206 733 q 153 744 169 742 q 132 747 138 747 l 108 747 q 93 741 103 744 q 73 734 83 738 q 54 728 63 731 q 44 724 46 725 q 44 721 44 724 q 43 715 43 718 q 51 643 43 681 q 67 567 58 606 q 83 490 75 529 q 90 411 90 450 q 89 397 90 400 l 89 264 q 86 212 89 244 q 79 147 83 179 q 71 91 75 115 q 65 65 67 67 l 21 21 m 258 856 l 286 871 l 271 936 l 228 1003 q 183 1026 196 1024 q 157 1032 169 1029 l 157 1035 l 135 1038 q 101 1029 115 1038 q 68 1010 88 1021 l 42 993 l 1 939 l -14 874 l 14 858 q 35 861 29 858 q 48 871 42 864 q 65 889 54 878 q 99 917 75 900 q 117 926 106 924 q 135 938 129 929 q 155 925 142 929 q 176 914 168 921 q 211 885 201 897 q 226 867 221 874 q 238 858 232 861 q 258 856 243 856 z "},"":{"ha":264,"x_min":-35,"x_max":319,"o":"m 21 21 l 44 0 q 54 -1 46 0 q 72 -2 63 -1 q 92 -3 82 -3 q 107 -4 101 -4 l 110 -4 q 123 -5 115 -4 q 142 -6 131 -6 q 175 -4 157 -6 q 208 1 193 -3 q 234 13 224 6 q 244 33 244 21 q 243 40 244 35 q 242 44 242 44 q 220 57 236 49 q 197 65 204 65 l 197 658 q 220 680 204 665 q 242 703 236 694 q 243 708 242 703 q 244 714 244 713 l 242 724 q 221 729 236 725 q 188 738 206 733 q 153 744 169 742 q 132 747 138 747 l 108 747 q 93 741 103 744 q 73 734 83 738 q 54 728 63 731 q 44 724 46 725 q 44 721 44 724 q 43 715 43 718 q 51 643 43 681 q 67 567 58 606 q 83 490 75 529 q 90 411 90 450 q 89 397 90 400 l 89 264 q 86 212 89 244 q 79 147 83 179 q 71 91 75 115 q 65 65 67 67 l 21 21 m 186 874 l 231 843 l 242 843 q 299 868 281 843 q 318 933 318 893 l 319 947 q 308 965 319 956 q 256 983 296 974 q 225 980 239 983 q 201 967 211 976 q 186 938 190 957 q 182 903 182 919 q 183 887 182 893 q 186 874 185 881 m -31 872 l 14 842 l 25 842 q 83 867 64 842 q 101 932 101 892 l 103 946 q 91 963 103 954 q 39 982 79 972 q 8 978 22 982 q -15 965 -6 975 q -31 937 -26 956 q -35 901 -35 918 q -33 885 -35 892 q -31 872 -32 879 z "},"":{"ha":701,"x_min":19,"x_max":683,"o":"m 683 379 q 650 536 683 471 q 560 644 617 601 q 430 708 504 688 q 274 728 356 728 l 194 728 q 145 724 169 728 q 102 710 121 721 q 72 681 83 700 q 61 631 61 661 l 340 647 q 451 626 403 647 q 531 567 499 604 q 578 479 563 529 q 594 372 594 429 q 582 288 594 326 q 460 381 519 349 q 344 429 400 414 q 238 447 289 444 q 144 450 188 450 l 133 450 q 53 417 88 450 q 19 328 19 383 q 24 267 19 301 q 38 183 29 232 q 86 109 50 143 q 167 50 122 75 q 256 11 211 25 q 329 -3 300 -3 q 335 -2 332 -3 q 340 -1 338 -1 q 488 30 424 -1 q 595 113 551 61 q 661 234 639 165 q 683 379 683 303 m 339 357 l 542 224 q 451 98 510 133 q 296 63 392 63 l 269 63 q 234 83 263 63 q 174 136 206 104 q 117 206 143 168 q 92 278 92 243 q 103 316 92 299 q 143 347 115 333 q 190 361 165 358 q 240 364 215 364 l 300 363 q 339 357 322 363 z "},"":{"ha":731,"x_min":4,"x_max":725,"o":"m 81 197 q 74 163 78 185 q 66 121 69 142 q 60 83 63 100 q 57 65 57 67 q 51 56 57 63 q 37 43 44 50 q 22 29 29 36 q 13 21 14 22 q 12 17 13 21 q 11 11 11 13 l 13 0 l 189 21 q 190 24 189 21 q 192 31 192 28 q 190 38 192 33 q 189 44 189 43 q 167 67 183 51 q 144 89 151 82 l 144 593 q 158 583 151 590 q 168 571 165 576 l 343 307 q 381 255 353 292 q 440 176 408 218 q 501 97 472 135 q 540 44 529 60 q 567 27 550 33 q 604 17 585 21 q 644 13 624 14 q 682 11 665 11 q 709 12 697 11 q 725 13 721 13 q 717 40 725 31 q 696 56 708 49 q 671 69 683 63 q 650 89 658 76 q 647 144 649 106 q 642 229 644 182 q 637 330 639 276 q 633 431 635 383 q 629 515 631 478 q 628 571 628 553 l 628 624 q 638 658 628 649 q 661 670 647 667 q 690 678 675 674 q 715 703 704 683 q 686 709 707 706 q 641 716 665 713 q 594 722 617 719 q 563 724 572 724 q 549 722 558 724 q 530 716 540 719 q 510 709 519 713 q 496 703 500 706 q 495 698 496 703 q 494 692 494 693 q 495 685 494 689 q 496 681 496 681 l 497 681 q 519 667 504 675 q 540 658 533 658 q 561 551 556 601 q 567 447 567 500 q 566 406 567 426 q 563 363 565 385 l 563 197 q 488 299 525 242 q 411 417 450 357 q 329 533 372 476 q 237 635 286 590 q 130 706 188 679 q 4 733 72 733 q 12 683 4 700 q 57 658 19 665 q 61 609 58 643 q 67 531 64 575 q 72 440 69 488 q 76 348 74 392 q 79 269 78 304 q 81 219 81 235 l 81 197 m 244 1032 q 220 1019 228 1024 q 203 1003 213 1015 l 146 932 l 131 886 q 140 869 133 876 q 160 858 146 863 q 180 860 174 858 q 192 868 186 863 q 209 884 199 874 q 243 911 219 894 q 262 921 250 918 q 279 932 274 924 q 289 924 282 926 q 303 919 296 922 q 331 898 321 907 q 349 883 342 889 q 365 872 357 876 q 388 865 374 868 l 426 861 q 456 869 438 864 q 486 886 475 875 l 546 950 q 559 980 557 971 q 561 996 561 989 q 560 1003 561 999 q 558 1013 558 1007 l 558 1015 l 522 1035 q 502 1033 507 1035 q 492 1025 497 1031 q 476 1008 486 1019 q 444 981 467 997 q 426 970 438 974 q 408 958 414 967 q 396 966 404 963 q 381 972 388 969 q 326 1015 356 994 q 282 1035 297 1035 l 269 1035 l 244 1032 z "},"":{"ha":744,"x_min":6,"x_max":733,"o":"m 118 65 q 82 101 101 74 q 46 163 63 129 q 18 228 29 196 q 7 278 7 261 l 7 285 q 7 293 7 286 q 6 309 7 300 q 6 328 6 318 q 6 344 6 338 q 30 488 6 428 q 98 595 54 549 q 203 678 142 642 q 338 747 264 714 l 347 747 q 501 722 431 747 q 624 650 572 697 q 704 536 675 603 q 733 385 733 469 q 701 223 733 294 q 613 101 668 151 q 483 25 557 51 q 324 -1 408 -1 q 217 17 265 -1 q 118 65 169 35 m 117 361 q 135 255 117 308 q 188 158 154 201 q 267 89 221 115 q 371 63 314 63 q 476 88 429 63 q 555 156 522 114 q 605 251 588 197 q 622 363 622 306 q 601 478 622 424 q 543 572 581 532 q 455 636 506 613 q 346 660 404 660 q 237 634 281 660 q 167 567 193 608 q 128 472 140 525 q 117 361 117 418 m 435 857 l 407 842 q 384 843 392 842 q 368 849 376 844 q 347 865 360 854 q 311 892 335 875 q 294 910 301 900 q 281 929 288 919 l 279 932 q 253 990 261 957 q 257 1003 253 997 q 264 1018 261 1008 l 286 1021 q 320 1013 306 1021 q 353 993 335 1006 l 379 976 l 419 922 l 435 857 z "},"":{"ha":744,"x_min":6,"x_max":733,"o":"m 118 65 q 82 101 101 74 q 46 163 63 129 q 18 228 29 196 q 7 278 7 261 l 7 285 q 7 293 7 286 q 6 309 7 300 q 6 328 6 318 q 6 344 6 338 q 30 488 6 428 q 98 595 54 549 q 203 678 142 642 q 338 747 264 714 l 347 747 q 501 722 431 747 q 624 650 572 697 q 704 536 675 603 q 733 385 733 469 q 701 223 733 294 q 613 101 668 151 q 483 25 557 51 q 324 -1 408 -1 q 217 17 265 -1 q 118 65 169 35 m 117 361 q 135 255 117 308 q 188 158 154 201 q 267 89 221 115 q 371 63 314 63 q 476 88 429 63 q 555 156 522 114 q 605 251 588 197 q 622 363 622 306 q 601 478 622 424 q 543 572 581 532 q 455 636 506 613 q 346 660 404 660 q 237 634 281 660 q 167 567 193 608 q 128 472 140 525 q 117 361 117 418 m 294 922 l 335 976 l 361 993 q 394 1013 379 1006 q 428 1021 408 1021 l 450 1018 q 457 1003 453 1008 q 461 990 461 997 q 435 932 453 957 l 433 929 q 419 910 426 919 q 403 892 413 900 q 367 865 379 875 q 346 849 354 854 q 329 843 338 844 q 307 842 321 842 l 279 857 l 294 922 z "},"":{"ha":744,"x_min":6,"x_max":733,"o":"m 118 65 q 82 101 101 74 q 46 163 63 129 q 18 228 29 196 q 7 278 7 261 l 7 285 q 7 293 7 286 q 6 309 7 300 q 6 328 6 318 q 6 344 6 338 q 30 488 6 428 q 98 595 54 549 q 203 678 142 642 q 338 747 264 714 l 347 747 q 501 722 431 747 q 624 650 572 697 q 704 536 675 603 q 733 385 733 469 q 701 223 733 294 q 613 101 668 151 q 483 25 557 51 q 324 -1 408 -1 q 217 17 265 -1 q 118 65 169 35 m 117 361 q 135 255 117 308 q 188 158 154 201 q 267 89 221 115 q 371 63 314 63 q 476 88 429 63 q 555 156 522 114 q 605 251 588 197 q 622 363 622 306 q 601 478 622 424 q 543 572 581 532 q 455 636 506 613 q 346 660 404 660 q 237 634 281 660 q 167 567 193 608 q 128 472 140 525 q 117 361 117 418 m 476 843 q 456 846 461 843 q 444 855 450 849 q 428 873 439 861 q 394 901 418 885 q 373 913 386 908 q 353 925 360 917 q 335 914 347 917 q 317 904 324 911 q 283 876 293 888 q 266 858 272 864 q 253 849 260 851 q 232 846 246 846 l 204 861 l 219 926 l 260 981 l 286 997 q 319 1017 306 1008 q 353 1025 333 1025 l 375 1022 l 375 1019 q 401 1014 388 1017 q 446 990 414 1011 l 489 924 l 504 858 l 476 843 z "},"":{"ha":744,"x_min":6,"x_max":733,"o":"m 118 65 q 217 17 169 35 q 324 -1 265 -1 q 483 25 408 -1 q 613 101 557 51 q 701 223 668 151 q 733 385 733 294 q 704 536 733 469 q 624 650 675 603 q 501 722 572 697 q 347 747 431 747 l 338 747 q 203 678 264 714 q 98 595 142 642 q 30 488 54 549 q 6 344 6 428 q 6 328 6 338 q 6 309 6 318 q 7 293 7 300 q 7 285 7 286 l 7 278 q 18 228 7 261 q 46 163 29 196 q 82 101 63 129 q 118 65 101 74 m 117 361 q 128 472 117 418 q 167 567 140 525 q 237 634 193 608 q 346 660 281 660 q 455 636 404 660 q 543 572 506 613 q 601 478 581 532 q 622 363 622 424 q 605 251 622 306 q 555 156 588 197 q 476 88 522 114 q 371 63 429 63 q 267 89 314 63 q 188 158 221 115 q 135 255 154 201 q 117 361 117 308 m 263 1029 q 238 1017 246 1021 q 221 1000 231 1013 l 164 929 l 149 883 q 158 867 151 874 q 178 856 164 860 q 198 858 192 856 q 210 865 204 860 q 227 881 217 871 q 261 908 238 892 q 280 918 268 915 q 297 929 292 921 q 307 922 300 924 q 321 917 314 919 q 349 895 339 904 q 367 880 360 886 q 383 869 375 874 q 406 863 392 865 l 444 858 q 474 867 456 861 q 504 883 493 872 l 564 947 q 577 977 575 968 q 579 993 579 986 q 578 1000 579 996 q 576 1010 576 1004 l 576 1013 l 540 1032 q 520 1030 525 1032 q 510 1022 515 1028 q 494 1006 504 1017 q 463 978 485 994 q 444 967 456 971 q 426 956 432 964 q 414 963 422 960 q 399 969 406 967 q 344 1012 374 992 q 300 1032 315 1032 l 288 1032 l 263 1029 z "}}}
